<svg width="19" height="25" viewBox="0 0 19 25" fill="none" xmlns="http://www.w3.org/2000/svg">
<path fill-rule="evenodd" clip-rule="evenodd" d="M18.7559 24.9445H0.243608C0.108649 24.9445 0 24.8353 0 24.7009V22.1171C0 21.9827 0.108649 21.8735 0.243608 21.8735H18.7559C18.8909 21.8735 19 21.9827 19 22.1171V24.7009C19 24.8353 18.8909 24.9445 18.7559 24.9445ZM0.487217 24.4572H18.5123V22.3608H0.487217V24.4572Z" fill="#1A1C20"/>
<path fill-rule="evenodd" clip-rule="evenodd" d="M12.8631 22.3608H8.57466C8.44019 22.3608 8.33105 22.2517 8.33105 22.1172V17.7937C8.33105 17.6592 8.44019 17.55 8.57466 17.55H12.8631C12.9976 17.55 13.1068 17.6592 13.1068 17.7937V22.1172C13.1068 22.2517 12.9976 22.3608 12.8631 22.3608ZM8.81827 21.8736H12.6195V18.0373H8.81827V21.8736Z" fill="#1A1C20"/>
<path fill-rule="evenodd" clip-rule="evenodd" d="M17.1515 22.3611H14.3042C14.1697 22.3611 14.0605 22.252 14.0605 22.1175V13.1279C14.0605 12.9934 14.1697 12.8843 14.3042 12.8843H17.1515C17.2859 12.8843 17.3951 12.9934 17.3951 13.1279V22.1175C17.3951 22.252 17.2859 22.3611 17.1515 22.3611ZM14.5478 21.8739H16.9078V13.3715H14.5478V21.8739Z" fill="#1A1C20"/>
<path fill-rule="evenodd" clip-rule="evenodd" d="M14.304 22.361H12.8628C12.7283 22.361 12.6192 22.2519 12.6192 22.1174V18.0374H9.98091C9.84644 18.0374 9.7373 17.9288 9.7373 17.7938V4.34419C9.7373 4.20972 9.84644 4.10059 9.98091 4.10059H14.304C14.4385 4.10059 14.5476 4.20972 14.5476 4.34419V22.1174C14.5476 22.2519 14.4385 22.361 14.304 22.361ZM13.1064 21.8738H14.0604V4.5878H10.2245V17.5502H12.8628C12.9973 17.5502 13.1064 17.6593 13.1064 17.7938V21.8738Z" fill="#1A1C20"/>
<path fill-rule="evenodd" clip-rule="evenodd" d="M11.6469 4.58783C11.5125 4.58783 11.4033 4.47869 11.4033 4.34422V2.67989C11.4033 2.54542 11.5125 2.43628 11.6469 2.43628C11.7814 2.43628 11.8905 2.54542 11.8905 2.67989V4.34422C11.8905 4.47869 11.7814 4.58783 11.6469 4.58783Z" fill="#1A1C20"/>
<path fill-rule="evenodd" clip-rule="evenodd" d="M13.1557 4.58783C13.0212 4.58783 12.9121 4.47869 12.9121 4.34422V2.67989C12.9121 2.54542 13.0212 2.43628 13.1557 2.43628C13.2907 2.43628 13.3993 2.54542 13.3993 2.67989V4.34422C13.3993 4.47869 13.2907 4.58783 13.1557 4.58783Z" fill="#1A1C20"/>
<path fill-rule="evenodd" clip-rule="evenodd" d="M7.1573 22.361H1.84712C1.71265 22.361 1.60352 22.2519 1.60352 22.1174V7.02925C1.60352 6.89478 1.71265 6.78564 1.84712 6.78564H7.1573C7.29226 6.78564 7.40091 6.89478 7.40091 7.02925V22.1174C7.40091 22.2519 7.29177 22.361 7.1573 22.361ZM2.09073 21.8738H6.91369V7.27286H2.09073V21.8738Z" fill="#1A1C20"/>
<path fill-rule="evenodd" clip-rule="evenodd" d="M7.1573 7.27314H1.84712C1.71265 7.27314 1.60352 7.164 1.60352 7.02953V4.58516C1.60352 4.45069 1.71265 4.34155 1.84712 4.34155H7.1573C7.29226 4.34155 7.40091 4.45069 7.40091 4.58516V7.02953C7.40091 7.164 7.29177 7.27314 7.1573 7.27314ZM2.09073 6.78592H6.91369V4.82877H2.09073V6.78592Z" fill="#1A1C20"/>
<path fill-rule="evenodd" clip-rule="evenodd" d="M5.80772 4.82844H3.19478C3.06031 4.82844 2.95117 4.7193 2.95117 4.58483V3.44669C2.95117 2.68517 3.57091 2.06543 4.33292 2.06543H4.67007C5.43159 2.06543 6.05133 2.68517 6.05133 3.44669V4.58483C6.05133 4.7193 5.9422 4.82844 5.80772 4.82844ZM3.43839 4.34122H5.56412V3.44669C5.56412 2.95363 5.16314 2.55265 4.67007 2.55265H4.33292C3.83986 2.55265 3.43839 2.95363 3.43839 3.44669V4.34122Z" fill="#1A1C20"/>
<path fill-rule="evenodd" clip-rule="evenodd" d="M4.54537 2.55253C4.41089 2.55253 4.30176 2.44339 4.30176 2.30892V0.243608C4.30176 0.109137 4.41089 0 4.54537 0C4.67984 0 4.78897 0.109137 4.78897 0.243608V2.30892C4.78897 2.44339 4.67984 2.55253 4.54537 2.55253Z" fill="#1A1C20"/>
</svg>
