<svg width="23" height="23" viewBox="0 0 23 23" fill="none" xmlns="http://www.w3.org/2000/svg">
<path d="M22.7433 10.7859C21.6985 10.7623 20.6536 10.8292 19.6202 10.9858C19.4804 11.0096 19.3862 11.1432 19.4099 11.2843C19.4307 11.4088 19.5376 11.4999 19.6628 11.5C19.6771 11.4998 19.6913 11.4986 19.7054 11.4964C20.7107 11.3451 21.7271 11.2806 22.7433 11.3037C22.8851 11.3037 23 11.1878 23 11.0448C23 10.9018 22.8851 10.7859 22.7433 10.7859Z" fill="#1A1C20"/>
<path d="M22.7651 20.366C21.8128 20.366 18.3566 20.0114 13.8683 15.4481C13.7193 15.2966 13.5558 15.1503 13.3884 15.006C14.1009 14.613 14.7731 14.1488 15.3949 13.6201C16.2162 12.917 17.1466 12.3575 18.1484 11.9647C18.271 11.9215 18.3359 11.7853 18.2933 11.6607C18.2508 11.536 18.1169 11.47 17.9943 11.5133C17.9898 11.5149 17.9854 11.5166 17.981 11.5184C16.9307 11.9298 15.9551 12.5161 15.0941 13.2531C14.4456 13.8066 13.7395 14.2862 12.9883 14.6834C12.4038 14.2361 11.778 13.8476 11.1195 13.5236C11.0026 13.4657 10.8619 13.5152 10.805 13.6339C10.7482 13.7527 10.7968 13.8958 10.9136 13.9536C11.8818 14.413 12.7687 15.0321 13.5382 15.7858C18.152 20.4792 21.7671 20.8438 22.765 20.8438C22.8948 20.8438 23 20.7368 23 20.6048C23.0001 20.473 22.8949 20.366 22.7651 20.366Z" fill="#1A1C20"/>
<path d="M0.24059 11.73C1.32148 11.7402 2.40109 11.806 3.47465 11.9269C4.08732 12.3644 4.82278 12.6153 5.58566 12.6468L5.6949 14.9528C5.4908 15.2352 5.32072 15.41 5.03082 15.41C4.11571 15.41 3.59873 16.3971 3.42864 16.79H2.63623C2.50392 16.79 2.39665 16.893 2.39665 17.02C2.39665 17.147 2.50392 17.25 2.63623 17.25H11.2604C11.3927 17.25 11.5 17.147 11.5 17.02C11.5 16.893 11.3927 16.79 11.2604 16.79H10.5158C10.3728 16.014 9.68503 15.4391 8.86478 15.41C8.57492 15.41 8.40484 15.2352 8.2007 14.9528L8.30178 12.8152C8.94938 12.9902 9.58714 13.1971 10.2125 13.4352C10.3351 13.4826 10.4744 13.4258 10.524 13.3083C10.5736 13.1907 10.5147 13.0567 10.3922 13.0088C9.71602 12.7505 9.0257 12.5277 8.32431 12.3414L8.35594 11.6675C10.1748 11.3464 11.4965 9.82563 11.5 8.0501C11.5 7.54202 11.0709 7.13011 10.5417 7.13011C10.0125 7.13011 9.58348 7.54202 9.58348 8.0501C9.58302 8.77444 9.13787 9.43043 8.44797 9.72357L8.55959 7.36932C8.57959 6.9313 8.40553 6.50564 8.08047 6.19769C7.99261 6.1027 7.84121 6.09408 7.74227 6.17843C7.64333 6.26278 7.63436 6.40814 7.72222 6.50313C7.72931 6.51082 7.73696 6.51803 7.74506 6.52471C7.97315 6.74124 8.09503 7.04044 8.08047 7.34809L7.95447 10.04C7.94834 10.1669 8.05048 10.2745 8.18266 10.2804C8.20614 10.2815 8.22968 10.2792 8.25252 10.2737C9.31569 10.0188 10.0619 9.10212 10.0626 8.05005C10.0626 7.79599 10.2771 7.59006 10.5418 7.59006C10.8064 7.59006 11.0209 7.79599 11.0209 8.05005C11.018 9.66779 9.76638 11.0328 8.09535 11.2406C7.97975 11.2548 7.89157 11.3468 7.88644 11.4586L7.74845 14.375C7.35582 13.9508 6.67928 13.9124 6.23738 14.2894C6.20593 14.3162 6.17617 14.3448 6.1482 14.375L6.05526 12.4095C6.04935 12.2866 5.94382 12.1899 5.81568 12.19H5.75053C3.89911 12.188 2.3988 10.7476 2.39665 8.97004C2.39665 8.71598 2.61114 8.51005 2.87577 8.51005C3.14039 8.51005 3.35489 8.71598 3.35489 8.97004C3.35649 10.2396 4.42808 11.2685 5.75048 11.27C5.88279 11.2701 5.99016 11.1673 5.99029 11.0402C5.99029 11.0366 5.9902 11.033 5.99002 11.0294L5.81563 7.34945C5.78601 6.74928 6.2687 6.23971 6.89382 6.21127C6.91195 6.21043 6.93013 6.21004 6.94826 6.21004C7.08057 6.21004 7.18784 6.10705 7.18784 5.98002C7.18784 5.85299 7.08057 5.75 6.94826 5.75C6.05732 5.75013 5.33518 6.44366 5.33532 7.29903C5.33532 7.32242 5.33587 7.3458 5.33697 7.36918L5.4989 10.7943C4.54662 10.6719 3.83529 9.8924 3.83396 8.96995C3.83396 8.46187 3.40493 8.04996 2.87572 8.04996C2.34652 8.04996 1.91748 8.46187 1.91748 8.96995C1.91735 9.86923 2.26205 10.7371 2.88579 11.4079C1.32578 11.2699 0.255423 11.2736 0.239582 11.2699C0.10727 11.2699 0 11.3729 0 11.4999C0 11.627 0.10727 11.73 0.239582 11.73H0.24059V11.73ZM6.46923 15.87C6.60154 15.87 6.70881 15.767 6.70881 15.64C6.70881 15.5129 6.60154 15.4099 6.46923 15.4099H5.93883C6.03466 15.3009 6.11418 15.1855 6.1894 15.0774C6.4424 14.7131 6.61294 14.49 6.94835 14.49C7.28375 14.49 7.45429 14.7131 7.70729 15.0774C7.91684 15.522 8.35874 15.8246 8.86487 15.8699C9.41848 15.8988 9.88693 16.2727 10.0176 16.7899H3.95766C4.14309 16.4279 4.51297 15.8699 5.03187 15.8699H6.46923V15.87Z" fill="#1A1C20"/>
<path d="M19.4062 0C17.4215 0 15.8125 1.60896 15.8125 3.59375C15.8125 5.57854 17.4215 7.1875 19.4062 7.1875C21.391 7.1875 23 5.57854 23 3.59375C22.9979 1.60988 21.3902 0.002152 19.4062 0ZM19.4062 6.70838C17.6861 6.70838 16.2917 5.31393 16.2917 3.5938C16.2917 1.87366 17.6861 0.479209 19.4062 0.479209C21.1264 0.479209 22.5208 1.87366 22.5208 3.5938C22.5187 5.31306 21.1255 6.70628 19.4062 6.70838Z" fill="#1A1C20"/>
<path d="M11.5 19.4062H9.58335C9.45103 19.4062 9.34375 19.5068 9.34375 19.6309C9.34375 19.7549 9.45103 19.8555 9.58335 19.8555H11.5C13.2192 19.8575 14.6124 21.1636 14.6145 22.7754C14.6145 22.8994 14.7218 23 14.8541 23C14.9865 23 15.0938 22.8994 15.0938 22.7754C15.0916 20.9154 13.4839 19.4082 11.5 19.4062Z" fill="#1A1C20"/>
<path d="M5.13698 3.08207C5.23827 3.14831 5.36789 3.10926 5.4266 2.99486C5.60354 2.65201 5.993 2.53614 6.29643 2.73606C6.42577 2.82131 6.52439 2.95535 6.57483 3.11462H6.40182C6.28472 3.11462 6.18979 3.22188 6.18979 3.35418C6.18979 3.48649 6.28472 3.59375 6.40182 3.59375H7.24985C7.36695 3.59375 7.46188 3.48649 7.46188 3.35418C7.46188 3.22188 7.36695 3.11462 7.24985 3.11462H7.07684C7.19524 2.74096 7.55933 2.54649 7.89003 2.68026C8.03099 2.7373 8.14967 2.84868 8.22507 2.99481C8.27937 3.11205 8.40744 3.15738 8.51121 3.09603C8.61497 3.03469 8.65509 2.88998 8.60079 2.77273C8.59804 2.76678 8.59504 2.76092 8.59184 2.75525C8.30137 2.18396 7.65604 1.98688 7.15042 2.31507C7.02324 2.39761 6.91271 2.50918 6.8258 2.64267C6.48042 2.11186 5.81958 1.99786 5.34974 2.38809C5.23159 2.48624 5.13281 2.61113 5.05975 2.75474C5.00121 2.86933 5.03573 3.01578 5.13698 3.08207Z" fill="#1A1C20"/>
</svg>
