<svg width="25" height="25" viewBox="0 0 25 25" xmlns="http://www.w3.org/2000/svg">
<path d="M12.5001 2.5C11.5055 2.5 10.5517 2.89509 9.84842 3.59835C9.14516 4.30161 8.75007 5.25544 8.75007 6.25C8.75007 7.24456 9.14516 8.19839 9.84842 8.90165C10.5517 9.60491 11.5055 10 12.5001 10C13.4946 10 14.4485 9.60491 15.1517 8.90165C15.855 8.19839 16.2501 7.24456 16.2501 6.25C16.2501 5.25544 15.855 4.30161 15.1517 3.59835C14.4485 2.89509 13.4946 2.5 12.5001 2.5ZM6.31632 12.495C6.27382 12.6983 6.25257 12.9083 6.25257 13.125V17.5C6.25176 18.4075 6.44897 19.3042 6.83046 20.1277C7.21195 20.9511 7.76851 21.6814 8.46132 22.2675L8.24757 22.33C7.61329 22.5001 6.9517 22.5437 6.30059 22.4581C5.64948 22.3725 5.02161 22.1595 4.45283 21.8312C3.88405 21.503 3.38551 21.0659 2.98568 20.5449C2.58585 20.024 2.29257 19.4293 2.12257 18.795L1.31382 15.7763C1.25012 15.5384 1.2339 15.2903 1.26608 15.0462C1.29826 14.8021 1.3782 14.5667 1.50136 14.3534C1.62451 14.1402 1.78846 13.9533 1.98384 13.8035C2.17923 13.6536 2.40221 13.5437 2.64007 13.48L6.31632 12.495ZM16.5438 22.2675C17.2366 21.6814 17.7932 20.9511 18.1747 20.1277C18.5562 19.3042 18.7534 18.4075 18.7526 17.5V13.125C18.7517 12.9083 18.7309 12.6983 18.6901 12.495L22.3651 13.48C22.8452 13.6089 23.2545 13.9232 23.503 14.3538C23.7515 14.7844 23.8188 15.296 23.6901 15.7763L22.8813 18.795C22.7065 19.4473 22.4013 20.0574 21.9842 20.5885C21.5671 21.1196 21.0467 21.5607 20.4545 21.8852C19.8622 22.2097 19.2104 22.4109 18.5383 22.4766C17.8662 22.5423 17.1877 22.4712 16.5438 22.2675ZM20.6251 5C19.7963 5 19.0014 5.32924 18.4154 5.91529C17.8293 6.50134 17.5001 7.2962 17.5001 8.125C17.5001 8.9538 17.8293 9.74866 18.4154 10.3347C19.0014 10.9208 19.7963 11.25 20.6251 11.25C21.4539 11.25 22.2487 10.9208 22.8348 10.3347C23.4208 9.74866 23.7501 8.9538 23.7501 8.125C23.7501 7.2962 23.4208 6.50134 22.8348 5.91529C22.2487 5.32924 21.4539 5 20.6251 5ZM4.37507 5C3.54627 5 2.75142 5.32924 2.16537 5.91529C1.57931 6.50134 1.25007 7.2962 1.25007 8.125C1.25007 8.9538 1.57931 9.74866 2.16537 10.3347C2.75142 10.9208 3.54627 11.25 4.37507 11.25C5.20388 11.25 5.99873 10.9208 6.58478 10.3347C7.17083 9.74866 7.50007 8.9538 7.50007 8.125C7.50007 7.2962 7.17083 6.50134 6.58478 5.91529C5.99873 5.32924 5.20388 5 4.37507 5ZM9.37507 11.25C8.87779 11.25 8.40088 11.4475 8.04925 11.7992C7.69762 12.1508 7.50007 12.6277 7.50007 13.125V17.5C7.50007 18.8261 8.02686 20.0979 8.96454 21.0355C9.90222 21.9732 11.174 22.5 12.5001 22.5C13.8262 22.5 15.0979 21.9732 16.0356 21.0355C16.9733 20.0979 17.5001 18.8261 17.5001 17.5V13.125C17.5001 12.6277 17.3025 12.1508 16.9509 11.7992C16.5993 11.4475 16.1224 11.25 15.6251 11.25H9.37507Z"
fill="currentColor"/>
</svg>