<svg width="25" height="25" viewBox="0 0 25 25" fill="none" xmlns="http://www.w3.org/2000/svg">
<path d="M4.16602 18.7487C4.16602 17.6436 4.605 16.5838 5.3864 15.8024C6.16781 15.021 7.22761 14.582 8.33268 14.582H16.666C17.7711 14.582 18.8309 15.021 19.6123 15.8024C20.3937 16.5838 20.8327 17.6436 20.8327 18.7487C20.8327 19.3012 20.6132 19.8311 20.2225 20.2218C19.8318 20.6125 19.3019 20.832 18.7493 20.832H6.24935C5.69681 20.832 5.16691 20.6125 4.77621 20.2218C4.38551 19.8311 4.16602 19.3012 4.16602 18.7487Z" stroke="currentColor" stroke-width="2" stroke-linejoin="round"/>
<path d="M12.499 10.416C14.2249 10.416 15.624 9.01691 15.624 7.29102C15.624 5.56513 14.2249 4.16602 12.499 4.16602C10.7731 4.16602 9.37402 5.56513 9.37402 7.29102C9.37402 9.01691 10.7731 10.416 12.499 10.416Z" stroke="currentColor" stroke-width="2"/>
</svg>