<svg width="24" height="24" viewBox="0 0 24 24" fill="none" xmlns="http://www.w3.org/2000/svg">
<path d="M2.71665 21.9486C2.30019 22.1097 1.89091 21.6984 2.05122 21.28L8.56697 4.27271L19.6434 15.4019L2.71665 21.9486Z" fill="url(#paint0_linear_724_223)"/>
<path d="M19.6438 15.4019L8.56736 4.27271L3.36914 17.841C3.4745 18.3238 3.843 18.9413 4.39995 19.5009C5.05319 20.1572 5.7857 20.5531 6.28815 20.5674L19.6438 15.4019Z" fill="url(#paint1_linear_724_223)"/>
<path d="M19.6434 15.4019L8.56695 4.27271L4.71289 14.3325C4.81845 15.198 5.48455 16.3803 6.54177 17.4426C7.59252 18.4983 8.76134 19.1659 9.62131 19.2781L19.6434 15.4019Z" fill="url(#paint2_linear_724_223)"/>
<path d="M19.6432 15.4019L8.5667 4.27271L6.56055 9.50911C6.63466 10.6629 7.79894 12.5991 9.60911 14.4179C11.3291 16.146 13.1546 17.2883 14.3174 17.4617L19.6432 15.4019Z" fill="url(#paint3_linear_724_223)"/>
<path d="M19.7675 15.2723C20.7969 14.2371 19.1533 10.9058 16.0964 7.83163C13.0396 4.75745 9.7271 3.10451 8.69776 4.13969C7.66843 5.17486 9.31204 8.50615 12.3689 11.5803C15.4257 14.6545 18.7382 16.3074 19.7675 15.2723Z" fill="url(#paint4_linear_724_223)"/>
<path d="M15.2552 8.68173C17.6038 11.0415 18.9479 13.5169 18.2575 14.2107C17.567 14.9044 15.1033 13.5539 12.7547 11.1941C10.4061 8.83431 9.06195 6.35889 9.75242 5.66514C10.4429 4.97139 12.9065 6.32195 15.2552 8.68173Z" fill="url(#paint5_linear_724_223)"/>
<path d="M19.3186 2.11249C19.3662 1.98334 19.548 1.98334 19.5955 2.11249L20.2148 3.7938L21.8881 4.41593C22.0166 4.46372 22.0166 4.6464 21.8881 4.6942L20.2148 5.31633L19.5955 6.99764C19.548 7.12678 19.3662 7.12678 19.3186 6.99764L18.6994 5.31633L17.0261 4.6942C16.8976 4.6464 16.8976 4.46372 17.0261 4.41593L18.6994 3.7938L19.3186 2.11249Z" fill="url(#paint6_linear_724_223)"/>
<path d="M19.9642 12.7754C19.9827 12.7251 20.0534 12.7251 20.0719 12.7754L20.3127 13.4292L20.9634 13.6711C21.0134 13.6897 21.0134 13.7608 20.9634 13.7793L20.3127 14.0213L20.0719 14.6751C20.0534 14.7254 19.9827 14.7254 19.9642 14.6751L19.7234 14.0213L19.0726 13.7793C19.0227 13.7608 19.0227 13.6897 19.0726 13.6711L19.7234 13.4292L19.9642 12.7754Z" fill="url(#paint7_linear_724_223)"/>
<path d="M21.0939 12.252L21.7388 11.2151C19.0596 9.53302 15.6937 9.87174 13.4072 11.8216C13.7226 12.1116 14.037 12.3818 14.3458 12.6297C16.2341 11.126 18.9336 10.8957 21.0939 12.252Z" fill="url(#paint8_linear_724_223)"/>
<path d="M14.2868 2.0199L13.1751 2.51721C14.3079 5.07367 13.4818 8.00748 11.3457 9.6197C11.5899 9.92556 11.8555 10.2368 12.1403 10.549C14.6732 8.5923 15.6437 5.08192 14.2868 2.0199Z" fill="url(#paint9_linear_724_223)"/>
<path d="M17.4435 6.7946C17.4435 7.11926 17.1816 7.38241 16.8585 7.38241C16.5354 7.38241 16.2734 7.11926 16.2734 6.7946C16.2734 6.46994 16.5354 6.20679 16.8585 6.20679C17.1816 6.20679 17.4435 6.46994 17.4435 6.7946Z" fill="url(#paint10_linear_724_223)"/>
<path d="M21.2811 8.59842C21.2811 9.16983 20.8201 9.633 20.2514 9.633C19.6827 9.633 19.2217 9.16983 19.2217 8.59842C19.2217 8.02706 19.6827 7.56384 20.2514 7.56384C20.8201 7.56384 21.2811 8.02706 21.2811 8.59842Z" fill="url(#paint11_linear_724_223)"/>
<defs>
<linearGradient id="paint0_linear_724_223" x1="2.70023" y1="19.6741" x2="4.98933" y2="22.1057" gradientUnits="userSpaceOnUse">
<stop stop-color="#C12D32"/>
<stop offset="1" stop-color="#C90D50"/>
</linearGradient>
<linearGradient id="paint1_linear_724_223" x1="4.12811" y1="15.4182" x2="7.50611" y2="20.0895" gradientUnits="userSpaceOnUse">
<stop stop-color="#FFE266"/>
<stop offset="1" stop-color="#D2AC0A"/>
</linearGradient>
<linearGradient id="paint2_linear_724_223" x1="4.7128" y1="11.7971" x2="11.6977" y2="18.4396" gradientUnits="userSpaceOnUse">
<stop stop-color="#C12D32"/>
<stop offset="1" stop-color="#C90D50"/>
</linearGradient>
<linearGradient id="paint3_linear_724_223" x1="7.80156" y1="9.30474" x2="14.2576" y2="17.1952" gradientUnits="userSpaceOnUse">
<stop stop-color="#FFE266"/>
<stop offset="1" stop-color="#D2AC0A"/>
</linearGradient>
<linearGradient id="paint4_linear_724_223" x1="16.8758" y1="5.37786" x2="11.7111" y2="13.9606" gradientUnits="userSpaceOnUse">
<stop stop-color="#FFE266"/>
<stop offset="1" stop-color="#D2AC0A"/>
</linearGradient>
<linearGradient id="paint5_linear_724_223" x1="15.3138" y1="8.66987" x2="12.6821" y2="10.9383" gradientUnits="userSpaceOnUse">
<stop stop-color="#EFAA66"/>
<stop offset="1" stop-color="#EB761F"/>
</linearGradient>
<linearGradient id="paint6_linear_724_223" x1="16.9296" y1="4.56244" x2="19.2939" y2="6.81131" gradientUnits="userSpaceOnUse">
<stop stop-color="#C12D32"/>
<stop offset="1" stop-color="#C90D50"/>
</linearGradient>
<linearGradient id="paint7_linear_724_223" x1="19.1802" y1="13.4262" x2="20.0276" y2="14.005" gradientUnits="userSpaceOnUse">
<stop stop-color="#35BEEF"/>
<stop offset="1" stop-color="#008CBF"/>
</linearGradient>
<linearGradient id="paint8_linear_724_223" x1="21.4919" y1="11.8676" x2="13.886" y2="12.4034" gradientUnits="userSpaceOnUse">
<stop stop-color="#C12D32"/>
<stop offset="1" stop-color="#E56E72"/>
</linearGradient>
<linearGradient id="paint9_linear_724_223" x1="11.1488" y1="9.75147" x2="14.8254" y2="3.46506" gradientUnits="userSpaceOnUse">
<stop stop-color="#50A40E"/>
<stop offset="1" stop-color="#91EA4B"/>
</linearGradient>
<linearGradient id="paint10_linear_724_223" x1="17.2242" y1="7.23546" x2="16.2703" y2="6.52952" gradientUnits="userSpaceOnUse">
<stop stop-color="#86A90E"/>
<stop offset="1" stop-color="#C6EA4B"/>
</linearGradient>
<linearGradient id="paint11_linear_724_223" x1="19.3736" y1="8.28511" x2="20.2615" y2="8.89153" gradientUnits="userSpaceOnUse">
<stop stop-color="#35BEEF"/>
<stop offset="1" stop-color="#008CBF"/>
</linearGradient>
</defs>
</svg>
