<svg width="35" height="40" viewBox="0 0 35 40" fill="none" xmlns="http://www.w3.org/2000/svg">
<path d="M20.0948 21.4678L19.3813 21.1526L17.6875 22.1476L19.1145 22.9696L20.8083 21.9746L20.0948 21.4678ZM18.463 22.2959L19.3875 21.7583L19.4185 21.7706L18.4817 22.3083H18.4568L18.463 22.2959ZM19.1331 22.71L19.0773 22.6791L20.0824 22.092L20.1444 22.1353L19.1331 22.7162V22.71Z" fill="#3A3E40"/>
<path d="M19.1145 23.5195L18.401 23.1796L17.6875 22.6975V22.1475L18.401 22.4627L19.1145 22.9694V23.5195Z" fill="#1A1F21"/>
<path d="M20.8081 21.9746L19.1143 22.9696V23.5197L20.8081 22.5247V21.9746Z" fill="#2E3234"/>
<path d="M20.535 22.2896L19.3872 22.9632V23.2042L20.535 22.5306V22.2896Z" fill="#CF9F0C"/>
<path d="M19.7907 21.5542L19.4185 21.7644L19.3875 21.752L18.463 22.2959L18.0659 22.1475L19.3875 21.375L19.7907 21.5542Z" fill="#1A1F21"/>
<path d="M20.4416 21.9621L20.1438 22.1351L20.0818 22.0918L19.0767 22.679L18.7603 22.4812L20.0818 21.7148L20.4416 21.9621Z" fill="#1A1F21"/>
<path d="M18.5561 22.9448C18.5561 23.0684 18.4692 23.1179 18.3637 23.0561C18.2582 22.9943 18.1714 22.8459 18.1714 22.7223C18.1714 22.5987 18.2582 22.5493 18.3637 22.6111C18.4692 22.6729 18.5561 22.8212 18.5561 22.9448Z" fill="#84847C"/>
<path d="M18.2084 22.6977L15.9624 24.4158L16.2726 24.7433L18.3325 23.4826L18.5186 23.3157L18.6241 23.0561L18.5869 22.6853L18.2084 22.6977Z" fill="#3D3D37"/>
<path d="M18.0225 22.8646L15.7827 24.5827L16.0929 24.9164L18.3327 23.4826L18.4444 23.2292L18.401 22.8584L18.0225 22.8646Z" fill="#52524D"/>
<path d="M19.5739 19.96C19.5491 20.0898 19.667 20.3185 19.7786 20.5039C19.8903 20.6893 21.3359 21.1899 21.3359 21.1899C21.3359 21.1899 21.6089 21.6163 21.6896 21.7647C21.7702 21.913 21.7702 21.9748 21.7951 22.0057C21.8199 22.0366 21.7951 22.1849 21.7951 22.3889C21.7951 22.5928 21.7206 22.599 21.7206 22.599C21.7206 22.599 21.7392 22.9327 21.4166 22.8833C21.094 22.8338 20.8272 22.5681 20.6224 22.4383C20.4239 22.3085 19.2389 21.5669 18.8542 21.5113C18.4695 21.4556 17.9049 21.2084 17.7746 20.9921C17.7312 20.9241 17.7002 20.8376 17.6878 20.7387C17.6567 20.5286 17.7002 20.2628 17.8367 20.028C18.0352 19.6819 18.2524 19.1318 18.4943 18.4891C18.7363 17.8463 18.8107 16.5052 18.9597 16.017C19.1086 15.5287 19.5367 14.9292 19.5367 14.9292L19.7972 14.6635L21.0754 13.3533L22.279 13.8662C22.279 13.8662 22.5148 14.3607 22.2232 15.1641C21.9316 15.9737 21.702 16.5979 20.8086 17.8463C19.9151 19.0948 19.5801 19.8302 19.5553 19.9662L19.5739 19.96Z" fill="#F2AD7E"/>
<g style="mix-blend-mode:multiply">
<path d="M19.6787 15.8069C19.5298 16.0047 19.4367 15.8935 19.1327 16.6474C18.8287 17.4014 18.99 17.8217 18.6736 18.8044C18.413 19.6202 18.0655 20.1826 17.6995 20.7388C17.6685 20.5287 17.7119 20.2629 17.8484 20.0281C18.0469 19.682 18.2641 19.1319 18.506 18.4892C18.748 17.8464 18.8225 16.5053 18.9714 16.0171C19.1203 15.5288 19.5484 14.9293 19.5484 14.9293L19.809 14.6636C19.9579 14.7934 20.1316 14.9726 20.1812 15.1271C20.2681 15.399 19.8276 15.6153 19.6787 15.8131V15.8069Z" fill="#EDC0AF"/>
</g>
<path d="M19.859 20.5844L19.6481 20.5967C19.6481 20.5967 19.6667 20.9305 19.4619 20.9552C19.1579 20.9984 18.6864 20.881 18.6864 20.881C18.6864 20.881 18.0908 20.7945 18.0163 20.7327C17.9419 20.6709 17.8736 20.3186 17.8736 20.3186C17.8736 20.3186 17.6627 20.4978 17.6316 20.5535C17.6006 20.6091 17.5386 21.3198 17.5386 21.3816C17.5386 21.4434 17.6254 21.8081 18.1094 21.8822C18.5933 21.9564 19.2138 22.3148 19.4868 22.457C19.7597 22.5991 20.6408 23.2357 21.193 23.3037C21.7452 23.3717 21.8072 23.2295 21.8692 23.0874C21.9313 22.9452 21.9809 22.7289 21.9561 22.4817C21.9313 22.2283 21.7514 21.8266 21.7514 21.8266L21.2922 21.4063L19.8652 20.5905L19.859 20.5844Z" fill="#3A3E40"/>
<path d="M19.859 20.2504L19.6481 20.2627C19.6481 20.2627 19.6667 20.5965 19.4619 20.6212C19.1579 20.6645 18.6864 20.547 18.6864 20.547C18.6864 20.547 18.0908 20.4605 18.0163 20.3987C17.9419 20.3369 17.8736 19.9846 17.8736 19.9846C17.8736 19.9846 17.6627 20.1638 17.6316 20.2195C17.6006 20.2751 17.5386 20.9858 17.5386 21.0476C17.5386 21.1094 17.6254 21.4741 18.1094 21.5482C18.5933 21.6224 19.2138 21.9809 19.4868 22.123C19.7597 22.2651 20.6408 22.9017 21.193 22.9697C21.7389 23.0377 21.8072 22.8955 21.8692 22.7534C21.9313 22.6112 21.9809 22.3949 21.9561 22.1477C21.9313 21.8943 21.7514 21.4926 21.7514 21.4926L21.2922 21.0723L19.8652 20.2566L19.859 20.2504Z" fill="#C12D32"/>
<path d="M19.8895 20.4295C19.8895 20.4295 19.6475 20.0525 19.6475 19.9784C19.6475 19.9042 19.5421 20.1576 19.2008 20.2008C18.8658 20.2503 18.7293 20.2008 18.8348 20.3677C18.9402 20.5346 19.3001 20.8189 19.6165 20.8003C19.9329 20.7756 20.057 20.6087 20.057 20.6087L19.8895 20.4233V20.4295Z" fill="#F5E1E1"/>
<path d="M21.8193 14.2309C21.2671 14.5337 20.6467 14.8551 20.0945 15.0467C19.9642 15.09 19.8463 15.1394 19.747 15.1827C19.4306 15.3248 19.2755 15.4361 19.2755 15.4361C19.2755 15.4361 18.9715 14.8737 17.9912 13.9961C17.0109 13.1185 14.6966 11.4312 14.6966 11.4312C14.6966 11.4312 14.678 10.9801 14.7028 10.4918C14.7277 10.0345 14.7897 9.55243 14.9324 9.39793C15.2364 9.08273 17.3397 9.43501 17.3397 9.43501C17.3397 9.43501 17.985 9.37938 18.2518 9.55861C18.5123 9.73166 20.7025 11.8021 21.2919 12.5252C21.8813 13.2482 22.297 13.7921 22.297 13.7921C22.297 13.7921 22.3591 13.9281 21.8069 14.2309H21.8193Z" fill="#C12D32"/>
<path d="M22.3095 13.7922C22.3095 13.7922 22.1668 13.6068 21.9248 13.304C21.9248 13.304 21.1741 13.613 20.5847 13.9714C19.9952 14.3361 18.9901 14.7007 18.9405 14.8985C18.9405 14.9108 18.9281 14.9232 18.9219 14.9417C19.1825 15.2569 19.2755 15.4362 19.2755 15.4362C19.2755 15.4362 19.4306 15.3187 19.7471 15.1828C19.8463 15.1395 19.9642 15.0962 20.0945 15.0468C20.6467 14.8614 21.2671 14.5338 21.8193 14.231C22.3715 13.9282 22.3095 13.7922 22.3095 13.7922Z" fill="#3A3E40"/>
<g style="mix-blend-mode:multiply">
<path d="M19.747 15.1764C19.4306 15.3186 19.2755 15.4298 19.2755 15.4298C19.2755 15.4298 18.9715 14.8674 17.9912 13.9898C17.0109 13.1122 14.6966 11.425 14.6966 11.425C14.6966 11.425 14.678 10.9738 14.7028 10.4856C14.9882 10.5474 15.3357 10.8008 15.7638 11.3632C15.8383 11.4621 18.2394 13.5943 18.8722 14.0949C19.4988 14.5955 19.747 15.1826 19.747 15.1826V15.1764Z" fill="#B3847B"/>
</g>
<path d="M31.9882 14.0517C31.9758 14.1197 31.9634 14.2062 31.9572 14.2433C31.9386 14.2989 31.8827 14.3792 31.8703 14.3916C31.8579 14.404 31.8083 14.509 31.7773 14.5585C31.7462 14.6079 31.6532 14.7624 31.5911 14.7995C31.5291 14.8304 31.3554 14.886 31.3057 14.8984C31.2561 14.9107 31.1196 14.886 31.0389 14.8428C30.9583 14.7995 30.89 14.7192 30.89 14.7192C30.89 14.7192 30.5798 14.645 30.3378 14.4658C30.0959 14.2927 30.1393 14.2062 29.9408 14.0702C29.7422 13.9343 29.2707 13.6747 28.3214 13.2482C27.3721 12.8218 25.9513 11.9875 25.6908 11.7712C25.4302 11.5548 24.8097 10.7267 24.6981 10.5351C24.5864 10.3435 23.0849 8.86642 23.4944 8.51414C23.544 8.47088 23.5813 8.42143 23.6123 8.35963C23.8791 7.87139 24.3258 6.88872 25.4984 8.25457C25.4984 8.25457 26.2926 9.07655 26.3546 9.28668C26.4229 9.49681 26.6462 9.86762 26.6462 9.86762C26.6462 9.86762 28.7495 11.7094 29.3203 12.1729C29.8911 12.6302 30.4992 12.9701 30.4992 12.9701C30.4992 12.9701 30.8838 12.9701 31.0079 12.9825C31.132 12.9949 31.3368 12.9887 31.5477 13.0505C31.7586 13.1123 32.0565 13.1308 32.1495 13.273C32.2426 13.4151 32.1371 13.7797 32.1247 13.8168C32.1123 13.8601 32.0068 13.9899 32.0068 13.9899C32.0068 13.9899 32.0068 14.0208 32.0006 14.064L31.9882 14.0517Z" fill="#FFCDAB"/>
<g style="mix-blend-mode:multiply">
<path d="M31.9572 14.2432C31.9386 14.2988 31.8827 14.3792 31.8703 14.3915C31.8579 14.4039 31.8083 14.509 31.7773 14.5584C31.7462 14.6078 31.6532 14.7624 31.5911 14.7994C31.5291 14.8303 31.3554 14.886 31.3057 14.8983C31.2561 14.9107 31.1196 14.886 31.0389 14.8427C30.9583 14.7994 30.89 14.7191 30.89 14.7191C30.89 14.7191 30.5798 14.6449 30.3378 14.4657C30.0959 14.2927 30.1393 14.2061 29.9408 14.0702C29.7422 13.9342 29.2707 13.6746 28.3214 13.2482C27.3721 12.8217 25.9513 11.9874 25.6908 11.7711C25.4302 11.5548 24.8097 10.7266 24.6981 10.535C24.5864 10.3434 23.0849 8.86636 23.4944 8.51408C23.544 8.47082 23.5813 8.42138 23.6123 8.35957C24.1086 8.15562 24.7787 7.97021 24.7787 7.97021C24.7787 7.97021 25.8272 9.71306 25.821 9.73778C25.821 9.7625 25.5232 10.3249 25.4612 10.4176C25.3991 10.5041 25.3371 11.0789 25.3371 11.0789C25.3371 11.0789 25.5853 11.425 26.1871 11.9194C26.7889 12.4077 27.974 12.8959 28.7371 13.2976C29.5002 13.7055 29.9842 13.9713 29.9842 13.9713L30.0897 13.9836L30.1765 14.132L30.3999 14.4472C30.3999 14.4472 30.6667 14.4904 30.6915 14.4781C30.7163 14.4657 30.7597 14.305 30.7535 14.2803C30.7535 14.2556 30.6357 14.169 30.6357 14.169C30.6357 14.169 30.2696 14.0516 30.1765 13.9775C30.0835 13.9033 30.2138 13.86 30.2138 13.86C30.2138 13.86 30.4681 13.9095 30.555 13.8848C30.6419 13.86 30.8156 13.8106 30.8404 13.7488C30.859 13.6808 30.9769 13.5448 30.9769 13.5448L31.1506 13.6684L31.2995 14.064L31.5043 14.2803L31.6284 14.373L31.5477 14.4101C31.5477 14.4101 31.3119 14.2247 31.2685 14.169C31.2251 14.1134 30.9955 13.9651 30.9955 13.9651C30.9955 13.9651 30.8776 14.0454 30.8652 14.0578C30.8528 14.0702 30.8776 14.1814 30.8776 14.1814L30.89 14.2741L30.8218 14.373C30.7535 14.4719 30.8032 14.5399 30.8032 14.5399L30.9955 14.7067C30.9955 14.7067 31.1444 14.7562 31.2003 14.7438C31.2499 14.7315 31.3243 14.7253 31.3367 14.6944C31.3554 14.6697 31.3554 14.6388 31.3181 14.6078C31.2809 14.5831 30.9521 14.1752 30.9335 14.1505L31.3678 14.5831L31.5415 14.6449C31.5415 14.6449 31.6159 14.6017 31.6532 14.5584C31.6842 14.5151 31.7462 14.441 31.7524 14.4286C31.7524 14.4163 31.6966 14.3668 31.6842 14.3545C31.6718 14.3483 31.5973 14.2741 31.5973 14.2741C31.5973 14.2741 31.6532 14.2927 31.6656 14.2988C31.678 14.2988 31.8207 14.2185 31.8641 14.169C31.8889 14.1443 31.9448 14.1011 32.0006 14.064C31.9882 14.132 31.9758 14.2185 31.9696 14.2556L31.9572 14.2432Z" fill="#EDC0AF"/>
</g>
<g style="mix-blend-mode:multiply">
<path d="M27.8067 38.0496L1.5249 22.8894C-0.00137984 22.0117 -0.460505 21.2639 0.50738 21.2207C1.47527 21.1836 3.51651 21.8696 5.04279 22.7472L31.3246 37.9136C32.8509 38.7913 33.31 39.5391 32.3421 39.5823C31.3742 39.6194 29.333 38.9334 27.8067 38.0558V38.0496Z" fill="#AAADB0"/>
</g>
<path d="M28.4893 29.7806L27.9434 28.8969L28.0674 28.8227C28.1357 28.7856 28.2288 28.7918 28.328 28.8474C28.5328 28.9648 28.7003 29.2429 28.7065 29.4716C28.7065 29.5829 28.6693 29.6632 28.6072 29.7003L28.4956 29.7683L28.4893 29.7806Z" fill="#787878"/>
<path d="M27.8503 29.1317C27.8503 29.3603 28.024 29.6446 28.2287 29.7559C28.4335 29.8733 28.601 29.7744 28.5948 29.5457C28.5948 29.3171 28.4211 29.0328 28.2163 28.9215C28.0116 28.8041 27.8441 28.903 27.8503 29.1317Z" fill="#A2A2A2"/>
<path d="M27.9308 29.28C27.7198 28.6867 27.5213 28.0872 27.3227 27.4939C27.1428 26.8944 26.9815 26.2826 26.8078 25.6831C26.4603 24.4779 26.1253 23.2666 25.7964 22.0553L25.7778 21.9935V21.9255C25.7964 20.9181 25.8275 19.9107 25.8647 18.9033L26.7457 18.9219C26.7333 19.9292 26.7147 20.9366 26.6837 21.944L26.6713 21.8204C26.9939 23.0379 27.3041 24.2555 27.6081 25.473C27.757 26.0848 27.9183 26.6905 28.0673 27.3023C28.21 27.9142 28.272 28.5508 28.3713 29.175L27.9308 29.28Z" fill="#D64B00"/>
<g style="mix-blend-mode:multiply">
<path d="M27.7449 28.3839L26.0945 21.907L26.2 19.2186L25.8712 18.959C25.834 19.9478 25.8091 20.9367 25.7905 21.9193V21.9873L25.8029 22.0491C26.1256 23.2605 26.4668 24.4718 26.8143 25.677C26.988 26.2826 27.1493 26.8883 27.3292 27.4878C27.5278 28.0873 27.7263 28.6806 27.9372 29.2739L28.2909 29.1874L27.7511 28.3778L27.7449 28.3839Z" fill="white"/>
</g>
<path d="M27.9991 21.9006C25.9268 20.7078 24.0841 20.7696 22.9053 21.8388C24.0779 21.1034 25.7283 21.1775 27.5648 22.2344C31.1137 24.2739 33.9925 29.2181 33.9925 33.2786C33.9925 34.9658 33.4962 36.2327 32.6586 36.9929C33.7568 36.3069 34.433 34.9101 34.433 32.951C34.433 28.8905 31.5542 23.9463 28.0053 21.9068L27.9991 21.9006Z" fill="#4A362B"/>
<path d="M27.8126 22.6486C24.5553 20.7759 21.9185 22.2778 21.9185 25.9983C21.9185 29.7188 24.5553 34.249 27.8126 36.1216C31.0699 37.9942 33.7068 36.4924 33.7068 32.7719C33.7068 29.0514 31.0699 24.5212 27.8126 22.6486ZM27.8126 35.5468C24.8345 33.8349 22.421 29.6879 22.421 26.2826C22.421 22.8772 24.8345 21.5052 27.8126 23.2172C30.7907 24.9291 33.2042 29.0761 33.2042 32.4814C33.2042 35.8868 30.7907 37.2588 27.8126 35.5468Z" fill="#787878"/>
<path d="M27.565 22.2281C24.016 20.1886 21.1372 21.8202 21.1372 25.8807C21.1372 29.9411 24.016 34.8853 27.565 36.9248C31.1139 38.9643 33.9927 37.3327 33.9927 33.2723C33.9927 29.2118 31.1139 24.2676 27.565 22.2281ZM27.565 35.7382C24.5869 34.0263 22.1733 29.8793 22.1733 26.474C22.1733 23.0686 24.5869 21.6966 27.565 23.4085C30.5431 25.1205 32.9566 29.2675 32.9566 32.6728C32.9566 36.0781 30.5431 37.4502 27.565 35.7382Z" fill="#4A362B"/>
<path d="M27.5651 22.5496C24.1713 20.5967 21.4165 22.1603 21.4165 26.0415C21.4165 29.9227 24.1651 34.6507 27.5651 36.6036C30.9589 38.5566 33.7136 36.993 33.7136 33.1118C33.7136 29.2305 30.9651 24.5026 27.5651 22.5496ZM27.5651 36.4429C24.2519 34.5332 21.5592 29.9165 21.5592 26.1218C21.5592 22.3271 24.2457 20.8068 27.5651 22.7103C30.8782 24.62 33.5709 29.2367 33.5709 33.0252C33.5709 36.8138 30.8782 38.3465 27.5651 36.4368V36.4429Z" fill="#D1D1D1"/>
<path d="M27.5646 22.8403C24.3135 20.9676 21.6704 22.4633 21.6704 26.1838C21.6704 29.9044 24.3073 34.4345 27.5646 36.3071C30.8157 38.1798 33.4588 36.678 33.4588 32.9574C33.4588 29.2369 30.8157 24.7067 27.5646 22.8341V22.8403ZM27.5646 35.7385C24.5865 34.0266 22.173 29.8796 22.173 26.4743C22.173 23.0689 24.5865 21.7031 27.5646 23.415C30.5427 25.127 32.9562 29.274 32.9562 32.6793C32.9562 36.0846 30.5427 37.4505 27.5646 35.7385Z" fill="#ACACA6"/>
<path d="M25.691 28.2109L25.5483 28.2913L25.691 28.7795L26.2308 29.1565L26.4108 29.8919L26.8947 30.7201L27.5772 31.4308L28.5637 31.8758L28.7064 31.7955L29.3516 31.2887L29.5005 30.2813L28.9546 28.8104L28.0487 27.8463L26.9816 27.4075L26.8389 27.4878L26.6031 27.7227L25.6972 28.2047L25.691 28.2109ZM29.0848 30.0217L27.8316 29.0267L28.241 28.489L28.8181 29.1689L29.0786 30.0217H29.0848ZM28.3465 30.2813L28.4086 29.8301L29.0848 30.3431L28.998 30.9426L28.4582 31.3196L28.3465 30.2813ZM27.2483 30.6583L27.7757 30.2813H28.1666V31.2393L27.7137 31.1033L27.2483 30.6645V30.6583ZM27.2297 28.9402L26.7458 28.1615L27.1118 27.939H27.4779L28.0053 28.1615L27.4655 28.9402H27.2235H27.2297ZM26.5845 28.3407L27.1181 29.1998L27.0684 30.2813L26.7954 29.8178L26.5845 29.3357V28.3407Z" fill="#ACACA7"/>
<path d="M25.5483 28.2915V28.8601L26.0881 29.2371L26.268 29.9725L26.752 30.8007L27.4345 31.5114L28.5637 31.876L29.2089 31.3693L29.3578 30.3619L28.8119 28.891L27.906 27.9268L26.8389 27.488L26.4604 27.8032L25.5545 28.2853L25.5483 28.2915ZM28.9421 30.0961L27.6889 29.1011L28.0983 28.5634L28.6754 29.2432L28.9359 30.0961H28.9421ZM28.2038 30.3619L28.2659 29.9107L28.9421 30.4237L28.8553 31.0232L28.3155 31.4002L28.2038 30.3619ZM27.1056 30.7389L27.633 30.3619H28.0239V31.3198L27.571 31.1839L27.1056 30.7451V30.7389ZM27.087 29.0146L26.6031 28.2359L26.9691 28.0134H27.3352L27.8626 28.2359L27.3228 29.0146H27.0808H27.087ZM26.4418 28.4213L26.9754 29.2803L26.9257 30.3619L26.6527 29.8984L26.4418 29.4163V28.4213Z" fill="#84847C"/>
<path d="M27.5214 29.8053C27.3167 29.6261 27.1181 29.4407 26.9134 29.2615C26.7086 29.0822 26.5101 28.8968 26.3116 28.7114L26.2619 28.6682L26.2247 28.5569C26.0634 28.0687 25.9331 27.5742 25.7904 27.0798L25.3747 25.5965C25.0893 24.6077 24.8225 23.6189 24.5557 22.63L24.5371 22.5744V22.5064C24.5371 22.0058 24.5495 21.5114 24.5619 21.0108L24.5992 19.5151L25.4802 19.5275L25.4678 21.0231C25.4678 21.5237 25.4554 22.0182 25.443 22.5188L25.4305 22.3952C25.6911 23.3902 25.9517 24.379 26.1999 25.3741L26.5784 26.8635C26.7024 27.3641 26.8389 27.8585 26.9382 28.3591L26.8513 28.2046C27.0189 28.4148 27.1926 28.6311 27.3539 28.8474C27.5152 29.0637 27.6889 29.2738 27.8503 29.4901L27.5214 29.7991V29.8053Z" fill="#FFAB26"/>
<g style="mix-blend-mode:multiply">
<path d="M27.6455 29.688L26.5225 28.5323L24.8473 22.6672L24.9218 19.7996C24.9218 19.7996 24.7915 19.7131 24.5992 19.6018L24.5619 21.0109C24.5495 21.5115 24.5433 22.0059 24.5371 22.5065V22.5745L24.5495 22.6302C24.8163 23.619 25.0831 24.6078 25.3685 25.5967L25.7842 27.08C25.9269 27.5744 26.0572 28.0688 26.2185 28.5571L26.2557 28.6683L26.3054 28.7116C26.5039 28.897 26.7024 29.0824 26.9072 29.2616C27.1119 29.4408 27.3043 29.6262 27.5152 29.8055L27.6393 29.6942L27.6455 29.688Z" fill="#E6E6E6"/>
</g>
<path d="M27.8375 30.1639L27.2915 29.2802L27.4156 29.206C27.4838 29.1689 27.5769 29.1751 27.6762 29.2307C27.8809 29.3481 28.0484 29.6262 28.0546 29.8549C28.0546 29.9662 28.0174 30.0465 27.9554 30.0836L27.8437 30.1516L27.8375 30.1639Z" fill="#787878"/>
<path d="M27.1925 29.5152C27.1925 29.7439 27.3663 30.0282 27.571 30.1394C27.7758 30.2568 27.9433 30.1579 27.9371 29.9293C27.9371 29.7006 27.7634 29.4163 27.5586 29.3051C27.3539 29.1876 27.1863 29.2865 27.1925 29.5152Z" fill="#A2A2A2"/>
<path d="M27.0438 19.2247C27.0438 19.2247 26.7522 19.4101 26.5288 19.4719C26.2992 19.5337 26.0262 19.4719 26.0262 19.4719L25.685 19.7315C25.685 19.7315 25.747 20.0034 25.5175 20.127C25.1452 20.3248 24.9032 20.3309 24.6116 20.2691C24.32 20.2073 24.2021 19.991 24.2021 19.991C24.2021 19.991 24.2021 19.4533 24.32 19.2247C24.4379 18.996 25.989 18.001 26.0511 18.001C26.1131 18.001 26.4916 18.1369 26.7894 18.3285C27.0872 18.5201 27.0562 19.2247 27.0562 19.2247H27.0438Z" fill="#BABAB6"/>
<path d="M24.798 18.8414C24.8476 18.8105 24.8848 18.7672 24.9221 18.7178C24.618 18.9341 24.3513 19.138 24.3078 19.2246C24.1899 19.447 24.1899 19.9909 24.1899 19.9909C24.1899 19.9909 24.3078 20.2072 24.5994 20.269C24.7607 20.2999 24.9034 20.3123 25.0648 20.2876C25.0586 20.2876 24.7794 20.1269 24.6553 19.7993C24.525 19.4656 24.4629 19.5521 24.4319 19.4038C24.4009 19.2493 24.4443 19.0824 24.7918 18.8414H24.798Z" fill="#84847C"/>
<path d="M26.0447 18.9589C25.8028 19.0763 25.629 19.1629 25.6166 19.2803C25.6042 19.3977 25.6787 19.7315 25.6787 19.7315L26.0199 19.4719C26.0199 19.4719 26.1316 19.4966 26.2743 19.4966C26.2743 19.4966 26.2929 18.8415 26.0509 18.9589H26.0447Z" fill="#84847C"/>
<path d="M14.995 18.2357L8.18253 17.0615L8.62925 16.8204L8.37487 17.2592L8.30041 16.9008C8.8402 17.3952 9.37377 17.8958 9.90735 18.3964L11.4895 19.9168C12.5442 20.9303 13.5804 21.9624 14.6165 22.9884L14.6289 23.0007V23.0131C14.8398 23.2541 15.0446 23.5013 15.2307 23.7547C15.4231 24.0081 15.603 24.2739 15.7581 24.5582L15.3424 24.9228C15.0818 24.7312 14.846 24.5149 14.6165 24.2924C14.3869 24.0699 14.1698 23.8412 13.9588 23.6002L13.9836 23.6249C12.9413 22.599 11.899 21.5731 10.8752 20.5286L9.33655 18.965C8.83399 18.4335 8.31903 17.9143 7.82268 17.3766L7.69238 17.2345L7.74822 17.012L7.87231 16.5238L7.95297 16.2024L8.31903 16.2766L15.088 17.6918L14.9825 18.2357H14.995Z" fill="#D6D6D6"/>
<path d="M7.76661 15.5225C6.81734 14.9786 6.0542 15.4112 6.0542 16.499C6.0542 17.5867 6.82354 18.8969 7.76661 19.447C8.71588 19.9908 9.47902 19.5582 9.47902 18.4705C9.47902 17.3828 8.70968 16.0725 7.76661 15.5225Z" fill="#C12D32"/>
<path d="M3.81445 17.9451C3.81445 18.2232 4.01299 18.557 4.25497 18.6991C4.49694 18.8351 4.69548 18.7239 4.69548 18.4519C4.69548 18.18 4.49694 17.8401 4.25497 17.6979C4.01299 17.562 3.81445 17.6732 3.81445 17.9451Z" fill="#E5E8E8"/>
<path d="M3.74609 17.9884C3.74609 18.2665 3.94463 18.6002 4.18661 18.7424C4.42858 18.8845 4.62712 18.7671 4.62712 18.4952C4.62712 18.2232 4.42858 17.8833 4.18661 17.7412C3.94463 17.599 3.74609 17.7164 3.74609 17.9884Z" fill="#B0B9B9"/>
<path d="M3.81445 18.0256C3.81445 18.2604 3.98197 18.5447 4.18672 18.6622C4.39146 18.7796 4.55898 18.6869 4.55898 18.452C4.55898 18.2172 4.39146 17.9329 4.18672 17.8155C3.98197 17.698 3.81445 17.7907 3.81445 18.0256Z" fill="#FFCF3D"/>
<path d="M10.999 17.2281C10.999 17.5062 11.1976 17.8399 11.4395 17.9821C11.6815 18.1181 11.88 18.0068 11.88 17.7349C11.88 17.4629 11.6815 17.123 11.4395 16.9809C11.1976 16.8449 10.999 16.9562 10.999 17.2281Z" fill="#E5E8E8"/>
<path d="M10.9307 17.2713C10.9307 17.5494 11.1292 17.8832 11.3712 18.0253C11.6131 18.1613 11.8117 18.05 11.8117 17.7781C11.8117 17.5062 11.6131 17.1662 11.3712 17.0241C11.1292 16.8881 10.9307 16.9994 10.9307 17.2713Z" fill="#B0B9B9"/>
<path d="M10.999 17.3083C10.999 17.5432 11.1665 17.8274 11.3713 17.9449C11.576 18.0623 11.7436 17.9696 11.7436 17.7347C11.7436 17.4999 11.576 17.2156 11.3713 17.0982C11.1665 16.9807 10.999 17.0735 10.999 17.3083Z" fill="#FFCF3D"/>
<path d="M8.28131 10.5103C6.20904 9.31745 4.36633 9.37926 3.1875 10.4484C4.36013 9.71299 6.0105 9.78716 7.847 10.844C11.3959 12.8835 14.2748 17.8277 14.2748 21.8882C14.2748 23.5754 13.7784 24.8424 12.9408 25.6025C14.039 24.9165 14.7153 23.5198 14.7153 21.5606C14.7153 17.5002 11.8364 12.5559 8.28751 10.5164L8.28131 10.5103Z" fill="#4A362B"/>
<path d="M8.09535 11.2582C4.83804 9.38556 2.20117 10.8874 2.20117 14.6079C2.20117 18.3284 4.83804 22.8586 8.09535 24.7312C11.3527 26.6039 13.9895 25.102 13.9895 21.3815C13.9895 17.661 11.3527 13.1308 8.09535 11.2582ZM8.09535 24.1565C5.11724 22.4445 2.70373 18.2975 2.70373 14.8922C2.70373 11.4869 5.11724 10.1148 8.09535 11.8268C11.0735 13.5387 13.487 17.6857 13.487 21.091C13.487 24.4964 11.0735 25.8684 8.09535 24.1565Z" fill="#787878"/>
<path d="M7.84719 10.8377C4.29827 8.79822 1.41943 10.4298 1.41943 14.4903C1.41943 18.5507 4.29827 23.495 7.84719 25.5345C11.3961 27.574 14.2749 25.9424 14.2749 21.8819C14.2749 17.8215 11.3961 12.8772 7.84719 10.8377ZM7.84719 24.3478C4.86908 22.6359 2.45557 18.4889 2.45557 15.0836C2.45557 11.6782 4.86908 10.3062 7.84719 12.0182C10.8253 13.7301 13.2388 17.8771 13.2388 21.2824C13.2388 24.6878 10.8253 26.0598 7.84719 24.3478Z" fill="#4A362B"/>
<path d="M7.8473 11.4496C4.58999 9.57697 1.95312 11.0788 1.95312 14.7993C1.95312 18.5199 4.58999 23.05 7.8473 24.9226C11.1046 26.7953 13.7415 25.2935 13.7415 21.5729C13.7415 17.8524 11.1046 13.3222 7.8473 11.4496ZM7.8473 24.3479C4.86919 22.6359 2.45568 18.489 2.45568 15.0836C2.45568 11.6783 4.86919 10.3062 7.8473 12.0182C10.8254 13.7301 13.2389 17.8771 13.2389 21.2824C13.2389 24.6878 10.8254 26.0598 7.8473 24.3479Z" fill="#ACACA6"/>
<path d="M7.84094 11.1285C4.44713 9.17552 1.69238 10.7391 1.69238 14.6204C1.69238 18.5016 4.44093 23.2295 7.84094 25.1825C11.2347 27.1355 13.9895 25.5718 13.9895 21.6906C13.9895 17.8094 11.2409 13.0815 7.84094 11.1285ZM7.84094 25.0218C4.52779 23.1121 1.83508 18.4954 1.83508 14.7007C1.83508 10.906 4.52159 9.38565 7.84094 11.2892C11.1541 13.1989 13.8468 17.8156 13.8468 21.6041C13.8468 25.3926 11.1541 26.9253 7.84094 25.0156V25.0218Z" fill="#D1D1D1"/>
<path d="M7.11514 16.431L6.89178 16.4186L6.81733 16.4742L6.97244 16.7276L6.80492 16.8389L6.73047 16.8945L6.96624 17.1417L6.87937 17.3518L7.10273 17.5991V17.8833L7.35711 18.0317L7.46259 18.3469L7.69215 18.384L7.87208 18.6744L8.052 18.5879L8.20711 18.8722L8.28157 18.8166L8.38704 18.625L8.56076 18.8104L8.63522 18.7548V18.4828L8.79653 18.5446L8.87098 18.489L8.78412 18.18L8.87719 18.1244L8.95164 18.0688L8.78412 17.7659L8.87098 17.5496L8.64763 17.3024V17.0181L8.39325 16.8698L8.28777 16.5608L8.05821 16.5237L7.87828 16.2332L7.69835 16.3197L7.46879 16.0911L7.39434 16.1467L7.36332 16.2888L7.12135 16.159V16.431H7.11514Z" fill="#C4C4C0"/>
<path d="M8.87684 18.1244L8.70933 17.8216L8.79619 17.6053L8.57283 17.3581V17.0738L8.31845 16.9254L8.21297 16.6164L7.98341 16.5793L7.80348 16.2889L7.62356 16.3754L7.39399 16.1467L7.28852 16.3383L7.04655 16.2085V16.4805L6.81699 16.4681L6.90385 16.7771L6.73633 16.8884L6.90385 17.1912L6.81699 17.4013L7.04034 17.6485V17.9328L7.29472 18.0812L7.4002 18.3964L7.62976 18.4334L7.80969 18.7239L7.98962 18.6374L8.21918 18.8661L8.32465 18.6745L8.56662 18.8043V18.5323L8.79619 18.5447L8.70933 18.2357L8.87684 18.1244Z" fill="#606056"/>
<path d="M7.12151 16.6163L6.92297 16.6101L6.85473 16.6596L6.99743 16.8821L6.85473 16.981L6.78027 17.0366L6.99743 17.2467L6.92297 17.4383L7.12151 17.6546L7.12772 17.908L7.34487 18.044L7.43794 18.3221L7.64268 18.353L7.804 18.6126L7.95911 18.5322L8.0894 18.7918L8.16385 18.7362L8.25692 18.5631L8.39962 18.7362L8.47407 18.6805L8.48028 18.4333L8.60436 18.5013L8.67882 18.4457L8.60436 18.1676L8.69743 18.112L8.72845 18.0316L8.61677 17.7782L8.6478 17.5805L8.48028 17.358L8.43685 17.1231L8.23831 16.9686L8.13283 16.7276L7.93429 16.6596L7.77918 16.4556L7.61166 16.4865L7.41933 16.332L7.36969 16.3815L7.31385 16.468L7.10911 16.3877L7.12772 16.4124L7.12151 16.6163Z" fill="#C4C4C0"/>
<path d="M8.67882 18.1243L8.52991 17.8586L8.60436 17.667L8.40582 17.4507L8.39962 17.1973L8.18247 17.0675L8.0894 16.7894L7.89086 16.7585L7.72955 16.4989L7.56823 16.5731L7.36349 16.3691L7.27662 16.5422L7.05947 16.4309L7.04706 16.672L6.85473 16.6596L6.92918 16.9377L6.78027 17.0366L6.92918 17.3024L6.85473 17.494L7.04706 17.7103L7.05947 17.9637L7.27662 18.0934L7.36349 18.3716L7.56823 18.4025L7.72955 18.662L7.89086 18.5879L8.0894 18.7918L8.18247 18.6188L8.39962 18.7362L8.40582 18.489L8.60436 18.5013L8.52991 18.2232L8.67882 18.1243Z" fill="#696960"/>
<path d="M7.14616 16.7893L6.97243 16.7831L6.89798 16.8387L7.04068 17.0241L6.91039 17.1107L6.83594 17.1663L7.04068 17.3455L6.97243 17.5062L7.14616 17.6978L7.15236 17.9203L7.3447 18.0377L7.41915 18.2787L7.59908 18.3096L7.74178 18.5321L7.87828 18.4703L7.98375 18.699L8.0582 18.6434L8.13886 18.4951L8.25674 18.6496L8.32499 18.5939L8.3312 18.3838L8.43047 18.4456L8.50492 18.39L8.44288 18.149L8.53594 18.0933L8.52353 17.9821L8.46149 17.772L8.44288 17.5989L8.3312 17.395L8.25674 17.2096L8.10784 17.0489L7.99616 16.882L7.82864 16.7831L7.69214 16.6595L7.53703 16.641L7.38813 16.5544L7.35711 16.6101L7.27645 16.641L7.11514 16.6039L7.15236 16.6533L7.14616 16.7893Z" fill="#C4C4C0"/>
<path d="M8.49871 18.1182L8.36842 17.8834L8.43047 17.7165L8.26295 17.5311L8.25674 17.3086L8.06441 17.1912L7.98375 16.9502L7.80382 16.9193L7.66733 16.6906L7.53083 16.7586L7.3509 16.5793L7.27024 16.7339L7.07791 16.635L7.0717 16.8451L6.89798 16.8389L6.96623 17.0799L6.83594 17.1665L6.96623 17.3951L6.89798 17.562L7.0717 17.7536L7.07791 17.9761L7.27024 18.0935L7.3509 18.3345L7.53083 18.3593L7.66733 18.5879L7.80382 18.52L7.98375 18.6992L8.06441 18.5509L8.25674 18.6497L8.26295 18.4396L8.43047 18.4458L8.36842 18.2048L8.49871 18.1182Z" fill="#727269"/>
<path d="M7.14018 16.9688L6.99128 16.9626L6.92303 17.0182L7.05332 17.1727L6.94164 17.2469L6.86719 17.2963L7.05332 17.4447L6.99128 17.5868L7.14018 17.7475L7.14639 17.9391L7.3077 18.038L7.37595 18.2481L7.53106 18.2728L7.64894 18.4644L7.77303 18.4088L7.85369 18.6127L7.92194 18.5633L7.99018 18.4335L8.08325 18.5695L8.1515 18.52L8.1577 18.3346L8.23836 18.3964L8.30661 18.3408L8.25077 18.1369L8.34383 18.0751L8.2942 17.9391L8.28799 17.7722L8.21354 17.6177L8.1577 17.4385L8.05223 17.3025L7.94675 17.1356L7.82887 17.0429L7.69858 16.9132L7.57449 16.8761L7.43799 16.8019L7.32631 16.7896L7.32011 16.839L7.20843 16.8205L7.09675 16.8328L7.14639 16.9008L7.14018 16.9688Z" fill="#C4C4C0"/>
<path d="M8.28799 18.1182L8.18252 17.9142L8.23836 17.7721L8.08945 17.6114L8.08325 17.4198L7.92193 17.3209L7.85369 17.1108L7.69858 17.0922L7.58069 16.8945L7.45661 16.9501L7.3077 16.8018L7.23945 16.9315L7.07814 16.845L7.07193 17.0242L6.92303 17.0181L6.97887 17.2282L6.86719 17.2962L6.97887 17.5001L6.92303 17.6423L7.07193 17.803L7.07814 17.9946L7.23945 18.0934L7.3077 18.3036L7.45661 18.3283L7.58069 18.5199L7.69858 18.4643L7.85369 18.6126L7.92193 18.4828L8.08325 18.5693L8.08945 18.3901L8.23836 18.3963L8.18252 18.1923L8.28799 18.1182Z" fill="#7B7B72"/>
<path d="M8.1575 18.0873L8.06443 17.9205L8.11407 17.803L7.98998 17.6671V17.5064L7.84728 17.4198L7.79144 17.2468L7.66115 17.2283L7.56188 17.0676L7.46261 17.117L7.33231 16.9934L7.25786 17.049L7.27027 17.1047L7.13377 17.0305L7.05932 17.0861L7.12757 17.185H7.00348L6.92903 17.2344L7.04691 17.3519L6.95385 17.4137L6.87939 17.4693L7.04691 17.5805L6.99728 17.698L7.12137 17.8339V17.9946L7.26407 18.0811L7.31991 18.2542L7.4502 18.2727L7.54947 18.4334L7.64874 18.384L7.70458 18.5632L7.77903 18.5076L7.83487 18.4025L7.89691 18.5261L7.97137 18.4705V18.316L8.02721 18.3778L8.10166 18.3222L8.05202 18.1491L8.14509 18.0873H8.1575Z" fill="#C4C4C0"/>
<path d="M8.08333 18.143L7.99027 17.9761L8.0399 17.8587L7.91582 17.7227V17.562L7.77311 17.4755L7.71727 17.3025L7.58698 17.2839L7.48771 17.1232L7.38844 17.1727L7.25815 17.0491L7.20231 17.1541L7.06581 17.08V17.2345H6.93552L6.98516 17.4075L6.89209 17.4693L6.98516 17.6362L6.93552 17.7536L7.05961 17.8896V18.0503L7.20231 18.1368L7.25815 18.3099L7.38844 18.3284L7.48771 18.4891L7.58698 18.4396L7.71727 18.5632L7.77311 18.4582L7.90961 18.5323V18.3778H8.0399L7.99027 18.2048L8.08333 18.143Z" fill="#84847C"/>
<path d="M13.76 11.7218C14.0143 12.8218 14.2625 13.9219 14.4983 15.0282C14.7278 16.1345 14.9698 17.2346 15.187 18.347L15.826 21.672C16.0308 22.7845 16.2913 23.8846 16.5519 24.9847L16.4775 24.8116C16.4775 24.8116 16.5209 24.8549 16.5519 24.8734C16.583 24.8981 16.614 24.9229 16.6512 24.9414C16.7194 24.9785 16.7815 25.0094 16.8435 25.0217C16.9056 25.0341 16.9676 25.0403 17.0359 25.0217C17.0731 25.0217 17.1041 25.0032 17.1413 24.9908L17.1972 24.9661L17.2282 24.9538H17.2406C17.2406 24.9538 17.3027 24.8981 17.3337 24.8734C17.3709 24.8425 17.4205 24.7993 17.464 24.7622C17.5508 24.6818 17.6377 24.6015 17.7308 24.515C17.9107 24.3481 18.0844 24.1689 18.2581 23.9896C18.9592 23.2789 19.6355 22.5311 20.3118 21.7895L21.3231 20.6646L22.3158 19.5213C22.6508 19.1443 22.9673 18.7487 23.2899 18.3656L23.7738 17.7846C23.9352 17.593 24.0903 17.3953 24.2206 17.1728L25.145 17.97C24.9403 18.1245 24.7603 18.3099 24.5928 18.4954L24.0779 19.0516C23.7366 19.4224 23.383 19.787 23.0479 20.164L22.0242 21.2827L21.0067 22.4075C20.3242 23.1553 19.6355 23.8969 18.9282 24.6324C18.7483 24.8178 18.5684 24.997 18.3822 25.1763C18.2892 25.269 18.1899 25.3555 18.0906 25.4482C17.9789 25.5409 17.9045 25.6212 17.7246 25.7387L17.6563 25.7819L17.5943 25.8066L17.4764 25.8561C17.3957 25.887 17.3089 25.9117 17.2158 25.9241C17.0359 25.9612 16.8373 25.955 16.6574 25.9179C16.4713 25.8808 16.3038 25.8005 16.1548 25.7016C16.0804 25.6521 16.0121 25.5965 15.9563 25.5347C15.8881 25.4729 15.8446 25.4235 15.7702 25.3246L15.7081 25.2442L15.6895 25.1515C15.491 24.0391 15.2986 22.9266 15.0505 21.8265L14.3246 18.5201C14.0888 17.4138 13.8778 16.3075 13.6483 15.2013C13.4311 14.095 13.2202 12.9825 13.0278 11.8701L13.7786 11.7156L13.76 11.7218Z" fill="#E66202"/>
<g style="mix-blend-mode:multiply">
<path d="M21.9996 21.2887L23.0234 20.1701C23.3584 19.7931 23.7121 19.4284 24.0533 19.0576L24.5683 18.5014C24.742 18.316 24.9157 18.1306 25.1205 17.9761L24.9653 17.8463C24.742 17.7721 24.5931 17.735 24.5931 17.735C24.5931 17.735 18.3515 24.7991 17.8613 25.2132C17.3712 25.6211 16.8686 25.6458 16.6701 25.5407C16.4715 25.4295 15.9131 24.9103 15.9131 24.9103L13.2577 11.8267L12.9971 11.8823C13.1956 12.9947 13.4066 14.1072 13.6175 15.2135C13.8409 16.3197 14.0518 17.4322 14.2938 18.5323L15.0197 21.8387C15.2679 22.9388 15.4602 24.0513 15.6588 25.1637L15.6774 25.2564L15.7394 25.3368C15.8139 25.4357 15.8573 25.4851 15.9255 25.5469C15.9876 25.6087 16.0558 25.6582 16.1241 25.7138C16.2668 25.8127 16.4405 25.8868 16.6266 25.9301C16.8128 25.9672 17.0051 25.9734 17.185 25.9363C17.2719 25.9177 17.3588 25.893 17.4456 25.8683L17.5635 25.8188L17.6255 25.7941L17.6938 25.7509C17.8737 25.6334 17.9544 25.5531 18.0599 25.4604C18.1591 25.3677 18.2584 25.2812 18.3515 25.1885C18.5376 25.0092 18.7175 24.8238 18.8974 24.6446C19.6047 23.9091 20.2934 23.1675 20.9759 22.4197L21.9934 21.2949L21.9996 21.2887Z" fill="#E6E6E6"/>
</g>
<path d="M13.9874 12.9914L13.8149 13.5139L25.32 17.2819L25.4925 16.7594L13.9874 12.9914Z" fill="white"/>
<g style="mix-blend-mode:multiply">
<path d="M14.2005 13.6376C14.2005 13.6376 13.8655 13.5079 13.8717 13.3472C14.3246 13.4955 24.5618 16.8081 24.5618 16.8081L24.5867 17.0368L14.2005 13.6376Z" fill="#E6E6E6"/>
</g>
<path d="M24.7544 18.8106L24.438 15.5598L25.654 15.4424L25.9705 18.6932C25.6541 19.027 25.1391 19.0826 24.7606 18.8168H24.7544V18.8106Z" fill="white"/>
<g style="mix-blend-mode:multiply">
<path d="M25.0336 16.1898C25.0336 16.1898 25.1329 16.2701 25.4927 16.1342C25.6168 16.0909 25.6727 16.0291 25.7037 15.9673L25.6603 15.5532C25.6541 15.51 25.6416 15.4729 25.6354 15.4358L24.438 15.5532L24.7544 18.8041H24.7606C24.8971 18.9029 25.0522 18.9586 25.2073 18.9709L25.0274 16.1836L25.0336 16.1898Z" fill="#E6E6E6"/>
</g>
<path d="M24.5 15.6151L26.5971 16.2516L26.6095 15.1763L24.5 15.0588V15.6151Z" fill="#231310"/>
<path d="M24.5 15.0589L26.3117 15.5039V14.8797L25.2321 14.583L24.5 15.0589Z" fill="#322320"/>
<path d="M16.2545 27.2528C16.0621 27.2528 15.8388 27.1971 15.5906 27.0488C14.9081 26.6533 8.85262 22.1231 7.25189 20.473C6.43912 19.6325 6.557 18.143 6.60043 17.5806C6.60663 17.4941 6.61284 17.4261 6.61284 17.389C6.61284 16.9935 6.7059 16.7401 6.90445 16.6226C7.18985 16.462 7.5435 16.6721 7.55591 16.6783L16.0063 23.4148C17.334 24.3666 17.576 26.0414 17.3216 26.4679C17.1913 26.6842 16.8563 27.2404 16.2607 27.2404L16.2545 27.2528ZM7.15262 16.8204C7.10919 16.8204 7.07196 16.8266 7.03474 16.8513C6.92306 16.9131 6.86722 17.0985 6.87342 17.389C6.87342 17.4323 6.87342 17.5064 6.86101 17.6053C6.81758 18.1368 6.7059 19.5397 7.43802 20.2999C9.03255 21.9377 15.0508 26.437 15.7271 26.8325C16.4344 27.2466 16.8191 26.8201 17.1045 26.3504C17.2658 26.0847 17.1169 24.5334 15.8574 23.6311L7.41941 16.8946C7.38218 16.876 7.2705 16.8204 7.15883 16.8204H7.15262Z" fill="#48483C"/>
<path d="M14.8645 18.3283L7.12761 17.7906L7.5371 17.5372L7.28272 17.976L7.20827 17.6176L13.5305 23.7052L13.3568 23.6001L16.0185 24.6817L15.8386 25.207L13.0652 24.4468L12.9784 24.4221L12.8977 24.3418L6.73674 18.0873L6.60645 17.9575L6.66228 17.7288L6.79258 17.2406L6.86083 16.9563L7.19586 16.9872L14.9141 17.7783L14.8645 18.3283Z" fill="#FFAB26"/>
<g style="mix-blend-mode:multiply">
<path d="M7.40061 17.8033L7.07178 17.7538L7.28273 17.5623L14.1758 18.0814L14.5915 18.3224L7.40061 17.8033Z" fill="#E64200"/>
</g>
<g style="mix-blend-mode:multiply">
<path d="M15.9379 24.9166C15.9379 24.9166 15.9379 24.9105 15.9317 24.9043L13.2141 24.175L6.78017 17.8031L6.84842 17.0059L6.78637 17.2407L6.66228 17.729L6.60645 17.9576L6.73674 18.0936L12.8915 24.3419L12.9722 24.4222L13.0652 24.4469L15.8324 25.2071L15.9317 24.9166H15.9379Z" fill="#E66202"/>
</g>
<path d="M7.1027 17.8523C7.1027 17.8523 6.74285 18.0192 6.74905 18.3714C6.75525 18.7175 6.6808 18.9029 6.82971 19.0204C6.97861 19.1316 7.22679 19.3294 7.22679 19.3294L7.32606 20.1575H7.51839L7.54321 19.3294C7.54321 19.3294 7.76657 19.2243 7.77898 19.1193C7.78518 19.076 7.85964 18.5692 7.78518 18.39C7.68591 18.118 7.41292 17.9388 7.09029 17.8523H7.1027Z" fill="#6D6D6D"/>
<path d="M7.78518 19.1378C7.64869 19.2676 7.45635 19.3603 7.40051 19.348C7.32606 19.3356 7.42533 18.6805 7.40051 18.6249C7.37569 18.5692 7.20197 18.5198 6.9662 18.3467C6.8173 18.2355 6.81109 18.1552 6.8235 18.1057C6.78007 18.1799 6.74905 18.2602 6.74905 18.3653C6.75525 18.7114 6.6808 18.8968 6.82971 19.0142C6.97861 19.1255 7.22679 19.3232 7.22679 19.3232L7.30745 20.0092C7.37569 20.0092 7.45015 20.0154 7.5246 20.0092L7.54942 19.3232C7.54942 19.3232 7.74796 19.2243 7.77898 19.1316L7.78518 19.1378Z" fill="#4F4F4F"/>
<path d="M7.66769 20.2566L7.62425 20.1762L7.64907 20.1144L7.58703 20.0465V19.9661L7.51878 19.9229L7.48776 19.8363L7.42571 19.824L7.37608 19.7436L7.32644 19.7683L7.2644 19.7065L7.23338 19.7622L7.16513 19.7251V19.7992H7.10309L7.1279 19.8858L7.08447 19.9167L7.1279 19.997L7.10309 20.0588L7.16513 20.1268V20.2071L7.23338 20.2504L7.2644 20.3369L7.32644 20.3493L7.37608 20.4296L7.42571 20.4049L7.48776 20.4667L7.51878 20.4111L7.58703 20.4482V20.374H7.64907L7.62425 20.2875L7.66769 20.2566Z" fill="#84847C"/>
<path d="M13.1327 11.8577L12.8535 9.31762L13.4367 9.2002L13.7283 11.8083C13.7407 11.8701 13.7283 11.9319 13.6849 11.9751C13.5732 12.1111 13.3747 12.1358 13.2382 12.0308C13.1823 11.9875 13.1451 11.9257 13.1265 11.8577H13.1327Z" fill="#D5D8DA"/>
<path d="M9.71457 10.4423C9.29267 10.1271 9.28647 9.83042 9.38574 9.60793C9.49121 9.37926 9.73939 9.24329 9.99377 9.24947L10.6887 9.26183C10.85 9.26183 11.0051 9.21857 11.1292 9.1135C11.4518 8.84775 12.1963 8.36569 12.9409 8.77359C13.9336 9.31745 13.8653 10.331 14.3058 10.7142C14.5974 10.9676 14.9883 10.6586 15.3171 11.0788C15.5033 11.3137 15.7514 12.5497 15.3606 12.4261C14.6471 12.2036 13.2759 11.6474 12.8664 11.4558C12.246 11.1654 10.5584 11.0603 9.71457 10.4361V10.4423Z" fill="#322920"/>
<path d="M9.83918 9.70704C9.03261 9.11373 10.8505 8.68111 10.8505 8.68111L11.0242 8.58841C11.0242 8.58841 11.9673 7.59956 12.9166 8.11871C13.8658 8.63785 13.7976 9.60816 14.2195 9.97279C14.4925 10.2138 15.0012 10.6835 15.3177 11.0852C15.4976 11.3077 15.1005 11.524 14.722 11.4066C14.0458 11.1965 13.2392 10.8689 12.8483 10.6835C12.2589 10.4054 10.6458 10.3065 9.83918 9.70704Z" fill="#4D382F"/>
<path d="M17.2091 25.9303L16.9672 25.4977L17.0912 25.1887L16.7686 24.8364L16.7562 24.4223L16.4026 24.1998L16.2537 23.7487L15.9186 23.6992L15.658 23.2728L15.3974 23.3964L15.0624 23.0688L14.9631 23.0997L14.9135 23.347L14.5599 23.1616L14.4606 23.1925L14.5474 23.5571L14.2248 23.5386L14.1255 23.5695L14.3489 23.9897L14.1069 24.1504L14.3489 24.583L14.2248 24.892L14.5474 25.2443L14.5599 25.6584L14.9135 25.8809L15.0624 26.332L15.3974 26.3815L15.5588 26.8388L15.658 26.8079L15.9186 26.6843L16.1482 27.049L16.2475 27.0181L16.3964 26.7338L16.6507 26.9563L16.75 26.9254L16.7624 26.5298L16.9858 26.5793L17.085 26.5484L16.961 26.0972L17.2029 25.9365L17.2091 25.9303ZM16.6631 25.85L16.1544 25.3432C16.1544 25.3432 16.1544 25.3308 16.1544 25.3247C16.1544 25.1763 16.1047 25.0156 16.0241 24.8673L16.3405 24.5521C16.5515 24.8859 16.6818 25.2752 16.6818 25.6275C16.6818 25.7078 16.6756 25.782 16.6631 25.85ZM15.658 23.8599C15.8628 23.9774 16.0489 24.1504 16.2102 24.3605L15.9 24.6695C15.8318 24.583 15.7511 24.5089 15.6642 24.4594C15.5029 24.3667 15.3664 24.3729 15.2734 24.4471L14.7646 23.9403C14.9383 23.6807 15.2734 23.6313 15.6642 23.8537L15.658 23.8599ZM14.6591 24.1813L15.1617 24.6819C15.1617 24.6819 15.1617 24.7252 15.1617 24.7561C15.1617 24.9168 15.2237 25.1022 15.3168 25.2629L15.0066 25.5719C14.777 25.2258 14.6343 24.8179 14.6343 24.4532C14.6343 24.3543 14.6467 24.2678 14.6653 24.1875L14.6591 24.1813ZM15.658 26.2146C15.4719 26.1034 15.292 25.9427 15.1431 25.7573L15.4595 25.4421C15.5215 25.5101 15.5898 25.5657 15.6642 25.6089C15.838 25.7078 15.9931 25.6955 16.0861 25.5904L16.5887 26.091C16.4212 26.3815 16.0737 26.4495 15.6704 26.2146H15.658Z" fill="#C4C4C0"/>
<path d="M17.1042 25.9611L16.8622 25.5285L16.9863 25.2195L16.6636 24.8672L16.6512 24.4531L16.2976 24.2306L16.1487 23.7794L15.8136 23.73L15.5531 23.3036L15.2925 23.4272L14.9574 23.0996L14.8085 23.3839L14.4549 23.1985L14.4425 23.594L14.1198 23.5755L14.2439 24.0267L14.002 24.1873L14.2439 24.62L14.1198 24.929L14.4425 25.2813L14.4549 25.6953L14.8085 25.9178L14.9574 26.369L15.2925 26.4184L15.5531 26.8449L15.8136 26.7213L16.1487 27.0488L16.2976 26.7645L16.6512 26.9499L16.6636 26.5544L16.9863 26.5668L16.8622 26.1156L17.1042 25.9549V25.9611ZM16.5644 25.8807L16.0556 25.374C16.0556 25.374 16.0556 25.3616 16.0556 25.3554C16.0556 25.2071 16.006 25.0464 15.9253 24.8981L16.2417 24.5829C16.4527 24.9166 16.583 25.306 16.583 25.6583C16.583 25.7386 16.5768 25.8128 16.5644 25.8807ZM15.5593 23.8969C15.764 24.0143 15.9501 24.1873 16.1114 24.3975L15.8012 24.7065C15.733 24.62 15.6523 24.5458 15.5655 24.4964C15.4041 24.4037 15.2676 24.4098 15.1746 24.484L14.6658 23.9772C14.8395 23.7176 15.1746 23.6682 15.5655 23.8907L15.5593 23.8969ZM14.5603 24.2121L15.0629 24.7127C15.0629 24.7127 15.0629 24.7559 15.0629 24.7868C15.0629 24.9475 15.1249 25.1329 15.218 25.2936L14.9078 25.6026C14.6782 25.2565 14.5355 24.8486 14.5355 24.484C14.5355 24.3851 14.5479 24.2986 14.5666 24.2182L14.5603 24.2121ZM15.5593 26.2454C15.3731 26.1341 15.1932 25.9734 15.0443 25.788L15.3607 25.4728C15.4228 25.5408 15.491 25.5964 15.5655 25.6397C15.7392 25.7386 15.8943 25.7262 15.9874 25.6212L16.4899 26.1218C16.3224 26.4122 15.975 26.4802 15.5717 26.2454H15.5593Z" fill="#ACACA6"/>
<path d="M13.9771 27.4505L15.8136 25.2998L15.4413 25.0464L13.5428 26.9067L13.4932 27.1848L13.611 27.537L13.9771 27.4505Z" fill="#3D3D37"/>
<path d="M13.7476 27.6912L15.5841 25.5467L15.2119 25.2871L13.3133 27.1536L13.2637 27.4255L13.3816 27.7839L13.7476 27.6912Z" fill="#52524D"/>
<path d="M14.1007 26.647L13.3872 26.3318L11.6934 27.3268L13.1204 28.1488L14.8142 27.1538L14.1007 26.647ZM12.4689 27.4751L13.3934 26.9375L13.4244 26.9498L12.4875 27.4875H12.4627L12.4689 27.4751ZM13.139 27.8954L13.0831 27.8645L14.0883 27.2774L14.1503 27.3206L13.139 27.9016V27.8954Z" fill="#3A3E40"/>
<path d="M13.1266 28.6987L12.4131 28.3649L11.6934 27.8829V27.3267L12.4131 27.6419L13.1266 28.1486V28.6987Z" fill="#1A1F21"/>
<path d="M14.8141 27.1538L13.1265 28.1488V28.6989L14.8141 27.7039V27.1538Z" fill="#2E3234"/>
<path d="M14.5415 27.4688L13.3999 28.1424V28.3834L14.5415 27.716V27.4688Z" fill="#CF9F0C"/>
<path d="M13.8029 26.7334L13.4307 26.9497L13.3997 26.9373L12.469 27.475L12.0781 27.3267L13.3997 26.5603L13.8029 26.7334Z" fill="#1A1F21"/>
<path d="M14.4486 27.1413L14.1508 27.3143L14.095 27.271L13.0899 27.8582L12.7734 27.6666L14.095 26.894L14.4486 27.1413Z" fill="#1A1F21"/>
<path d="M12.5683 28.124C12.5683 28.2476 12.4814 28.2971 12.3759 28.2353C12.2705 28.1735 12.1836 28.0251 12.1836 27.9015C12.1836 27.7779 12.2705 27.7285 12.3759 27.7903C12.4814 27.8521 12.5683 28.0004 12.5683 28.124Z" fill="#84847C"/>
<path d="M29.9783 11.9442L29.9038 12.2285L29.8666 12.3706L29.637 12.315C29.5129 12.3212 29.395 12.3768 29.3206 12.4757L29.0166 12.8218L26.6093 14.7253L26.479 14.5585L26.4666 14.5461L26.3301 14.3669L26.3549 14.3483L28.7188 12.4819L28.9732 12.179C29.1407 11.9751 29.3951 11.8577 29.6618 11.8577H29.7177L29.9721 11.9318L29.9783 11.9442Z" fill="#BABAB6"/>
<g style="mix-blend-mode:multiply">
<path d="M29.9033 12.2346L29.8661 12.3767L29.6366 12.3211C29.5125 12.3273 29.3946 12.3829 29.3201 12.4818L29.0161 12.8279L26.6088 14.7314L26.4785 14.5646C27.1424 14.1752 28.8796 12.7661 29.0161 12.593C29.165 12.4076 29.3201 12.1913 29.5187 12.1728C29.6055 12.1666 29.7482 12.1851 29.8971 12.2346H29.9033Z" fill="#999BA3"/>
</g>
<path d="M30.5796 15.3183C30.5796 15.3183 30.3686 15.2874 30.3376 15.0896C30.3066 14.8856 30.5796 14.8733 30.5796 14.8733C30.5796 14.8733 30.9456 14.8671 31.138 14.6199C31.2745 14.4468 31.3055 14.1873 31.231 13.8412C30.9767 12.6916 29.6427 12.4073 29.6303 12.4012C29.6303 12.4012 29.469 12.327 29.4938 12.0736C29.5124 11.8511 29.7978 11.8079 29.7978 11.8079C29.8599 11.8264 31.3551 12.327 31.6653 13.7423C31.7708 14.2244 31.7088 14.6137 31.4854 14.898C31.1566 15.3059 30.6044 15.3121 30.5796 15.3121V15.3183Z" fill="#443633"/>
<path d="M23.247 16.1467L22.6948 16.4063C22.6948 16.4063 22.732 16.4186 22.7506 16.4248V16.4372L22.6638 16.6906L22.6141 16.8512C22.4652 16.8018 22.3411 16.7585 22.2419 16.7091C22.0495 16.6164 21.9627 16.5175 22.0061 16.3568C22.0309 16.2765 22.093 16.2147 22.1612 16.1652C22.217 16.1281 22.2791 16.1034 22.3349 16.0787L23.067 15.7326L26.3616 14.3544L26.3864 14.342L26.4733 14.5522V14.5645L26.5601 14.7561L23.247 16.1405V16.1467Z" fill="#BABAB6"/>
<g style="mix-blend-mode:multiply">
<path d="M22.6824 16.697H22.6638C22.6079 16.697 22.4466 16.697 22.2419 16.7094C22.0495 16.6167 21.9627 16.5178 22.0061 16.3571C22.0309 16.2768 22.093 16.215 22.1612 16.1655C22.1178 16.1902 22.0557 16.3633 22.1612 16.4684C22.2481 16.5611 22.5831 16.6661 22.6638 16.6909C22.6762 16.6909 22.6824 16.6909 22.6824 16.6909V16.697Z" fill="#999BA3"/>
</g>
<g style="mix-blend-mode:multiply">
<path d="M26.4794 14.5706L26.5601 14.7621L23.2469 16.1465L22.6947 16.4061L22.521 16.3258C22.521 16.3258 25.8155 14.8796 26.3491 14.6385C26.3863 14.6262 26.4236 14.6015 26.4732 14.5706H26.4794Z" fill="#999BA3"/>
</g>
<path d="M23.3462 19.7992C23.3462 19.7992 23.1352 19.7683 23.1042 19.5706C23.0732 19.3666 23.3462 19.3542 23.3462 19.3542C23.3462 19.3542 23.7122 19.3481 23.9046 19.1009C24.0411 18.9278 24.0721 18.6682 23.9976 18.3221C23.7433 17.1726 22.4093 16.8883 22.3969 16.8821C22.3969 16.8821 22.2356 16.808 22.2604 16.5546C22.279 16.3321 22.5644 16.2888 22.5644 16.2888C22.6265 16.3074 24.1217 16.808 24.4319 18.2232C24.5374 18.7053 24.4754 19.0947 24.252 19.379C23.9232 19.7869 23.371 19.793 23.3462 19.793V19.7992Z" fill="#443633"/>
<path d="M26.311 15.5039L26.5964 16.2517L26.7826 16.468L27.0432 14.1875L26.311 14.6634V15.5039Z" fill="#231310"/>
<path d="M27.0432 14.1875L27.3286 14.2926L26.5964 14.7684L26.311 14.6634L27.0432 14.1875Z" fill="#584C49"/>
<path d="M26.7828 16.4682L27.5087 15.9923L27.3288 14.2927L26.5967 14.7686L26.7828 16.4682Z" fill="#443633"/>
<path d="M14.4551 24.7929C14.4551 24.7929 14.3497 24.6198 14.3062 24.6384C14.1697 24.694 13.965 25.0092 13.8905 25.0463C13.7913 25.0957 13.2267 24.9783 13.2267 24.9783L13.0157 24.762L12.7986 24.2428L12.8234 23.9153C12.8234 23.9153 12.6497 24.0636 12.5566 24.2058C12.4635 24.3417 12.3643 24.4962 12.3643 24.5519C12.3643 24.6075 12.4883 25.1822 12.7179 25.5098C12.9413 25.8374 13.3508 26.8262 13.5245 27.1476C13.692 27.469 13.8409 27.6605 14.0953 27.7409C14.3497 27.8212 14.5172 27.883 15.0011 27.846C15.4851 27.8089 15.5843 27.7903 15.7643 27.5431C15.938 27.2959 15.7022 26.9931 15.7022 26.9931C15.7022 26.9931 14.8212 25.7632 14.7529 25.5654C14.6847 25.3677 14.4675 24.7929 14.4675 24.7929H14.4551Z" fill="#3A3E40"/>
<path d="M14.4551 24.4591C14.4551 24.4591 14.3497 24.2861 14.3062 24.3046C14.1697 24.3603 13.965 24.6755 13.8905 24.7125C13.7913 24.762 13.2267 24.6446 13.2267 24.6446L13.0157 24.4282L12.7986 23.9091L12.8234 23.5815C12.8234 23.5815 12.6497 23.7299 12.5566 23.872C12.4635 24.008 12.3643 24.1625 12.3643 24.2181C12.3643 24.2737 12.4883 24.8485 12.7179 25.1761C12.9413 25.5036 13.3508 26.4925 13.5245 26.8077C13.692 27.129 13.8409 27.3206 14.0953 27.401C14.3559 27.4813 14.5172 27.5431 15.0011 27.506C15.4851 27.4689 15.5843 27.4504 15.7643 27.2032C15.938 26.956 15.7022 26.6531 15.7022 26.6531C15.7022 26.6531 14.8212 25.4233 14.7529 25.2255C14.6847 25.0277 14.4675 24.453 14.4675 24.453L14.4551 24.4591Z" fill="#C12D32"/>
<path d="M15.7833 19.3049C15.6096 19.9477 14.6913 21.9934 14.4493 22.8401C14.2074 23.6806 14.3004 24.002 14.3004 24.0823C14.3004 24.1627 14.3253 24.6262 14.2322 24.756C14.1391 24.8919 13.7979 24.8301 13.3698 24.7003C13.1278 24.6262 12.9541 24.4531 12.8486 24.2863C12.768 24.1565 12.7307 24.0329 12.7493 23.9587C12.7866 23.7918 12.8238 23.6435 12.8548 23.2851C12.8858 22.9266 12.7183 21.4248 12.7555 20.5657C12.7866 19.7067 13.2271 19.0268 13.2271 19.0268L13.6552 18.8105L15.0077 18.1245C15.0077 18.1245 15.9756 18.6684 15.7957 19.3111L15.7833 19.3049Z" fill="#FFCDAB"/>
<path d="M13.4126 24.861C13.4126 24.861 13.1955 24.6447 13.5243 24.5396C13.8593 24.4345 14.2564 24.3913 14.2998 24.4284C14.3433 24.4654 14.2254 25.3616 14.2998 25.4481C14.3743 25.5408 13.8966 25.4481 13.8966 25.4481L13.4126 24.861Z" fill="#F5E1E1"/>
<g style="mix-blend-mode:multiply">
<path d="M12.9224 20.7079C12.879 21.6411 13.2016 23.0873 13.09 23.5817C12.9845 24.0638 12.8294 24.2554 12.8418 24.2863C12.7611 24.1565 12.7239 24.0329 12.7425 23.9587C12.7797 23.7919 12.817 23.6435 12.848 23.2851C12.879 22.9266 12.7115 21.4248 12.7487 20.5658C12.7797 19.7067 13.2202 19.0269 13.2202 19.0269L13.6483 18.8105L13.7786 19.1134C13.7786 19.1134 12.9721 19.7809 12.9286 20.7141L12.9224 20.7079Z" fill="#EDC0AF"/>
</g>
<path d="M16.2976 11.8393C16.2604 12.105 16.1611 12.4017 15.9936 12.618C15.8509 12.8034 15.6275 12.9023 15.5469 13.1433C15.491 13.304 15.4848 13.477 15.4786 13.6439C15.4538 15.1643 15.7578 16.6352 16.068 18.1184C16.1611 18.5572 16.1859 19.0022 15.9564 19.4101C15.7702 19.7439 15.1188 19.8613 14.7837 19.8736C14.1137 19.9045 13.6173 19.7068 13.3257 19.5214C13.1458 19.4039 13.0465 19.2865 13.0279 19.2247C12.9845 19.064 12.9348 18.4089 12.9348 18.4089C12.9348 18.4089 11.1852 14.5277 10.8191 13.6068C10.4593 12.686 9.9381 12.2472 10.1925 10.9617C10.2793 10.5167 10.4345 10.1891 10.6082 9.94192C10.9308 9.48457 11.3093 9.33007 11.3589 9.31771C11.3899 9.30534 12.0972 9.49693 12.9596 9.7256C13.698 9.92337 14.5418 10.1582 15.1622 10.3251C15.6896 10.4734 16.0556 10.5723 16.0556 10.5723C16.0556 10.5723 16.341 11.0544 16.31 11.6909C16.31 11.7404 16.3038 11.796 16.2976 11.8516V11.8393Z" fill="#C12D32"/>
<path d="M13.8965 19.138L13.6484 19.0762C13.6484 19.0762 13.7662 18.5508 13.3009 17.4198C13.0527 16.8265 12.6184 15.986 12.1903 15.1702C11.7684 14.3544 11.3279 13.5139 11.0921 12.9391C10.6082 11.7525 11.0797 10.8996 11.0983 10.8625L11.3217 10.9862C11.3217 10.9862 10.8936 11.7772 11.3279 12.8402C11.5575 13.4088 11.9918 14.2432 12.4137 15.0466C12.8418 15.8686 13.2823 16.7153 13.5305 17.321C14.033 18.5447 13.8965 19.1132 13.8903 19.138H13.8965Z" fill="#F5E1E1"/>
<path d="M14.5293 19.2986L14.2749 19.2554C14.2749 19.2554 14.3804 18.557 13.9088 17.4198C13.6606 16.8265 13.2263 15.986 12.7982 15.1702C12.3763 14.3544 11.9358 13.5139 11.7001 12.9391C11.2161 11.7525 11.6876 10.8996 11.7063 10.8625L11.9296 10.9862C11.9296 10.9862 11.5015 11.7772 11.9358 12.8402C12.1654 13.4088 12.5997 14.2432 13.0216 15.0466C13.4497 15.8686 13.8902 16.7153 14.1384 17.321C14.6409 18.5385 14.5231 19.2677 14.5231 19.2986H14.5293Z" fill="#F5E1E1"/>
<path d="M15.9567 19.3977C16.087 19.169 16.1305 18.928 16.1305 18.6808C16.1181 18.7055 15.8637 19.1134 14.9144 19.1505C13.9341 19.1876 13.1896 18.8538 12.9414 18.5325C12.96 18.7364 12.991 19.1011 13.0221 19.2123C13.0407 19.2741 13.1399 19.3915 13.3199 19.509C13.6115 19.7005 14.1016 19.8921 14.7779 19.8612C15.1129 19.8489 15.7644 19.7253 15.9505 19.3977H15.9567Z" fill="#3A3E40"/>
<g style="mix-blend-mode:multiply">
<path d="M13.4188 19.1875C13.4188 19.2493 13.3815 19.3668 13.3257 19.5089C13.1458 19.3915 13.0465 19.274 13.0279 19.2122C12.9845 19.0516 12.9348 18.3964 12.9348 18.3964C12.9348 18.3964 11.1852 14.5152 10.8191 13.5944C10.4593 12.6735 9.9381 12.2347 10.1925 10.9492C10.2793 10.5042 10.4345 10.1767 10.6082 9.92944C10.6764 10.3003 10.7385 10.6464 10.7385 10.6464C10.7385 10.6464 10.602 11.9504 10.9928 12.9578C11.3837 13.9652 12.7301 16.4435 13.0155 17.3211C13.3071 18.1987 13.4188 18.9959 13.4188 19.1875Z" fill="#B3847B"/>
</g>
<path d="M25.6353 8.3966C25.6353 8.3966 25.4988 8.55111 25.263 8.7427C25.0273 8.93429 24.6612 9.57086 23.6251 9.09498C23.1473 8.87248 22.8185 5.67727 22.8309 5.59693C22.8433 5.51659 25.0211 5.65255 25.0211 5.65255C25.0211 5.65255 25.1327 7.09256 25.6415 8.3966H25.6353Z" fill="#FF4046"/>
<path d="M22.7875 8.68093C21.9499 9.19389 21.0068 8.94668 19.9831 9.66359C18.9656 10.3805 18.0039 11.2272 17.6502 11.4435C17.3028 11.6598 17.1229 11.7464 16.0247 12.0245C14.9265 12.3026 14.0393 12.284 12.8418 11.9379C11.8863 11.289 10.7509 11.1716 10.6393 10.8935C10.6331 10.8749 10.6269 10.8564 10.6144 10.8317C10.5338 10.5845 10.4531 10.294 10.5152 10.0468C10.5896 9.73158 10.7571 9.44728 10.9247 9.17535C11.0425 8.98376 11.1604 8.78599 11.3031 8.61294C11.6692 8.16178 12.1717 7.83423 12.6619 7.52521C13.152 7.21002 13.6422 6.89482 14.1509 6.61671C14.6721 6.33242 15.1623 5.96778 15.5345 5.49808C16.2046 4.65756 17.3214 3.7985 18.4382 3.576C19.555 3.35351 20.8517 3.18047 21.559 3.12484C21.8382 3.10012 22.074 3.18665 22.2601 3.30407C22.5455 3.47712 22.7068 3.71197 22.7068 3.71197C22.7068 3.71197 24.686 4.66374 24.6984 5.75147C24.7108 6.8392 23.8546 8.032 22.7937 8.68093H22.7875Z" fill="#ECC180"/>
<path d="M18.8351 7.96411C18.8351 7.96411 18.4318 8.40291 18.0286 9.04566C17.6253 9.68842 17.4888 9.96035 17.4888 9.96035C17.4888 9.96035 19.6107 9.41648 20.0388 9.32378C20.4669 9.23725 21.1556 8.86026 21.5092 8.75519C21.8629 8.64395 22.2599 8.35965 22.2599 8.35965L22.5143 7.7478C22.5143 7.7478 21.2362 7.7787 20.6158 7.82815C19.9953 7.87759 18.8351 7.96411 18.8351 7.96411Z" fill="#F5E1E1"/>
<path d="M20.6904 9.09497C20.6904 9.09497 19.6295 9.38544 19.3255 9.40399C19.0214 9.42253 17.489 9.7748 17.489 9.7748L17.2222 10.3248C17.2222 10.3248 18.5313 10.1889 18.9532 10.0158C19.3751 9.84279 19.9831 9.66356 19.9831 9.66356C19.9831 9.66356 20.3058 9.21858 20.6904 9.09497Z" fill="#3A3E40"/>
<path d="M25.2073 8.45237C25.2073 8.45237 24.7854 6.82696 24.6241 5.95553C24.469 5.12737 23.4701 4.0211 23.4639 4.00874L23.6562 3.83569C23.6996 3.88514 24.7109 5.00377 24.8785 5.90609C25.0398 6.77133 25.4555 8.36585 25.4617 8.38439L25.2135 8.44619L25.2073 8.45237Z" fill="#F5E1E1"/>
<path d="M22.3719 3.298C22.3719 3.298 21.0504 3.10641 20.6781 3.76771C20.3059 4.429 20.8271 5.58471 21.0194 6.02969C21.2117 6.48085 21.6646 7.24721 21.6646 7.24721C21.6646 7.24721 22.4712 6.64772 22.8 6.45613C23.1351 6.26454 23.9292 5.86282 24.0099 5.56617C24.0844 5.26952 22.3719 3.29182 22.3719 3.29182V3.298Z" fill="#F5E1E1"/>
<g style="mix-blend-mode:multiply">
<path d="M21.5653 6.52383C21.5653 6.52383 22.1361 7.35817 22.8 7.55594C23.4638 7.75371 24.1091 7.42615 24.1091 7.42615C24.1091 7.42615 25.0335 6.51765 24.9219 6.3755C24.8102 6.23336 24.4814 5.48554 24.3759 5.33104C24.2704 5.17653 23.6934 4.36691 23.6438 4.32983C23.5941 4.29275 22.5394 5.33104 22.5394 5.33104L21.5591 6.53001L21.5653 6.52383Z" fill="#F0B2A5"/>
</g>
<g style="mix-blend-mode:multiply">
<path d="M15.2555 5.80704C15.2121 5.85031 15.1625 5.88739 15.119 5.93065C15.0632 5.98627 15.0011 6.03572 14.9391 6.08516C14.8895 6.12842 14.8336 6.1655 14.7778 6.20876C14.7157 6.25203 14.6537 6.30147 14.5917 6.33855C14.542 6.36945 14.4924 6.40653 14.4366 6.43743C14.3621 6.4807 14.2938 6.52396 14.2194 6.56722C14.1946 6.57958 14.1698 6.59812 14.1449 6.61048C13.6362 6.8886 13.146 7.20379 12.6559 7.51899C12.1657 7.83418 11.6632 8.15556 11.2971 8.60672C11.1544 8.78595 11.0365 8.97753 10.9187 9.16912C10.7511 9.44724 10.5836 9.72535 10.5092 10.0405C10.4844 10.1332 10.4906 10.2321 10.4968 10.331C10.5278 10.5226 10.5712 10.708 10.6084 10.8254C10.8504 10.4361 11.2165 9.91076 11.6694 9.41016C12.5256 8.46457 13.6052 7.828 14.3931 7.26559C15.1873 6.70319 16.0621 5.45477 16.242 5.18902C16.422 4.92326 17.1106 4.503 17.4085 4.14455C17.7063 3.78609 21.5592 2.97647 22.2417 3.29167C22.1982 3.26076 22.1486 3.23604 22.0928 3.21132C21.9377 3.13716 21.7515 3.0939 21.5406 3.11244C20.8395 3.16806 19.5366 3.34111 18.4198 3.5636C17.303 3.78609 16.1862 4.64515 15.5161 5.48567C15.4293 5.59691 15.33 5.70198 15.2307 5.80086L15.2555 5.80704Z" fill="#F0B2A5"/>
</g>
<path d="M23.5822 5.23855C23.4643 5.48576 23.3588 5.67735 23.3278 5.70207C23.2285 5.77624 22.6453 6.11615 22.3599 6.2583C22.0683 6.40663 21.8015 6.80835 21.8015 6.80835L21.6278 6.6044C21.6278 6.6044 21.5906 6.55495 21.5658 6.51787C21.3672 6.19032 21.0198 5.29417 20.9143 4.84301C20.7964 4.34241 20.9453 3.82944 21.1811 3.66258C21.4169 3.49571 21.6588 3.53897 21.8574 3.42773C22.0559 3.31648 22.484 2.76025 22.484 2.76025L23.8242 2.97038C23.8242 2.97038 24.1778 3.88507 24.153 3.97777C24.1344 4.03957 23.8242 4.74413 23.5884 5.23237L23.5822 5.23855Z" fill="#FFCDAB"/>
<path d="M17.7866 13.7675C17.8425 13.7675 18.4443 13.6995 18.5001 13.6934C18.3884 13.7428 18.2582 13.7675 18.1279 13.7799C17.9665 13.7984 17.8983 13.7922 17.7928 13.7675H17.7866Z" fill="#FFCDAB"/>
<g style="mix-blend-mode:multiply">
<path d="M23.5823 5.23858C23.4644 5.48579 23.3589 5.67738 23.3279 5.7021C23.2286 5.77627 22.6454 6.11618 22.36 6.25833C22.0684 6.40666 21.8016 6.80837 21.8016 6.80837L21.6279 6.60443C21.6279 6.60443 21.5906 6.55498 21.5658 6.5179V6.50554C21.5658 6.40666 21.9009 6.1718 21.9567 6.11618C21.9815 6.09146 22.0125 6.09146 22.0312 6.09146C22.0188 6.09146 21.9877 6.09146 21.9319 6.07292C21.7458 6.02348 21.5224 5.98022 21.51 5.96785C21.4976 5.95549 21.51 5.82571 21.5906 5.80717C21.6651 5.78863 21.8947 5.82571 21.9939 5.80717C22.0932 5.78863 22.2111 5.78863 22.2049 5.75154C22.1987 5.72064 22.0746 5.02845 22.0746 5.02845C22.2111 4.71944 23.0611 4.98519 23.5885 5.2324L23.5823 5.23858Z" fill="#EDC0AF"/>
</g>
<g style="mix-blend-mode:multiply">
<path d="M22.2603 8.61906C22.2603 8.61906 21.3048 8.31005 20.6595 8.45837C20.0143 8.6067 19.2077 9.19383 19.2077 9.19383L18.7052 6.51158L17.8117 7.55605C17.7745 7.08635 17.8924 6.5981 17.8551 6.12222C17.8551 6.0666 17.8427 6.01098 17.8117 5.96153C17.7559 5.87501 17.6442 5.85029 17.5449 5.83175C17.1913 5.77613 16.7694 5.6896 16.5026 5.94917C16.3289 6.12222 16.1427 6.28909 15.9628 6.45596C15.6836 6.71553 15.4044 6.9751 15.1252 7.23467L14.6103 7.54987L14.2938 8.33477L14.6227 9.4843L14.9763 10.2383C14.9763 10.2383 15.0011 10.7142 15.0259 10.9305C15.0321 10.9861 15.057 11.0356 15.1004 11.0912C14.7467 11.2828 14.2876 11.5238 14.0953 11.598C13.9092 11.6659 13.3197 11.8081 12.8296 11.9255C12.8358 11.9255 12.842 11.9379 12.8544 11.9379C13.9774 12.2654 14.8336 12.2963 15.8449 12.0677C15.8946 12.1851 15.9318 12.3087 15.9566 12.4199C16.1551 12.0182 17.5077 11.8637 17.6876 11.7154C17.7745 11.6412 17.7931 11.5053 17.7807 11.3507C18.2026 11.0479 19.0712 10.3001 19.9895 9.65735C21.007 8.94044 21.9563 9.19383 22.7938 8.67468C22.949 8.58198 23.0979 8.47073 23.2406 8.35949L22.2665 8.61288L22.2603 8.61906Z" fill="#F0B2A5"/>
</g>
<path d="M19.5177 12.8833C19.4991 13.5013 18.3389 12.6855 18.0038 12.8833C17.9542 12.9142 17.9046 12.9266 17.8549 12.9266C17.8053 12.9266 17.7805 12.9822 17.7743 13.0625C17.7681 13.0996 17.7619 13.1367 17.7619 13.18C17.7557 13.3283 17.7619 13.4704 17.6936 13.3901C17.5571 13.2232 17.1662 12.2653 17.0856 12.1046C16.9553 11.8326 16.8436 11.1157 16.6947 10.578C16.6823 10.5348 16.6761 10.5101 16.6761 10.5101C16.6513 10.4359 16.6327 10.3679 16.6078 10.2999C16.4093 9.76843 16.2666 9.2122 16.2666 9.2122L16.7319 9.09478L17.9542 8.83521C17.9542 8.83521 18.1031 8.92173 18.252 9.03915C18.4133 9.16894 18.5684 9.32963 18.5684 9.47796C18.5622 9.76225 18.9531 10.6213 18.9531 11.332C18.9531 11.3444 18.9531 11.3506 18.9531 11.3629C18.9531 11.3753 19.5301 12.8895 19.5301 12.8895L19.5177 12.8833Z" fill="#FFCDAB"/>
<path d="M25.2193 5.7144C25.2689 5.6835 25.7405 5.39921 26.1996 4.61431C26.6587 3.82941 26.7332 3.63165 26.7084 3.07542C26.6773 2.52537 26.5346 2.00623 25.7281 1.7343C24.9215 1.46236 23.5689 1.87644 23.3766 2.03713C23.1843 2.19782 22.9547 3.74289 22.6693 3.96538C22.3839 4.19405 22.1667 4.50307 22.0613 4.75028C21.9558 4.99749 22.7562 6.36333 23.0478 6.69089C23.3394 7.01227 23.4511 7.03081 23.5751 6.98754C23.6992 6.94428 24.4996 6.36334 24.4996 6.36334C24.4996 6.36334 24.7664 6.53638 24.8843 6.51166C25.0022 6.48076 25.2255 5.72058 25.2255 5.72058L25.2193 5.7144Z" fill="#FFCDAB"/>
<path d="M25.3315 4.29294C25.3315 4.29294 24.9282 3.77998 24.6552 3.97157C24.3822 4.16315 24.1464 4.52779 24.0782 4.55869C24.0099 4.58959 23.4577 4.28676 23.3212 4.37328C23.1847 4.45981 22.9055 4.78118 22.9055 4.78118L22.7752 4.48453C22.7752 4.48453 23.0669 4.11989 23.0482 3.90976C23.0296 3.69963 22.7008 3.15577 22.4836 3.18667C22.2665 3.21757 22.1548 3.48332 22.0617 3.50186C21.9687 3.5204 21.7329 3.50186 21.7329 3.50186C21.7329 3.50186 22.0183 3.0198 22.1858 2.55628C22.3533 2.09276 22.9924 0.665108 23.892 0.386995C24.7917 0.108882 26.6654 0.992664 27.0439 2.28435C27.4223 3.57603 26.4607 4.59577 26.4607 4.59577L26.2497 4.61432C26.2497 4.61432 25.9953 4.7441 25.3315 4.3053V4.29294Z" fill="#472A17"/>
<path d="M22.4218 2.35857C22.4218 2.35857 21.9192 3.35977 21.975 3.56372C22.0309 3.76767 21.9936 4.85541 21.9936 4.85541L22.7506 5.73301L22.8685 5.42399L22.2232 4.58965L22.2542 3.34741L22.7506 2.43891C22.7506 2.43891 22.6389 2.04337 22.428 2.35239L22.4218 2.35857Z" fill="#3A3E40"/>
<path d="M22.7996 3.91577C22.7996 3.91577 22.812 3.52023 22.6445 3.43989C22.4708 3.35955 22.3033 3.35337 22.173 3.61294C22.0427 3.87869 21.9744 4.29277 22.1171 4.39166C22.2598 4.48436 22.3157 4.47818 22.3901 4.37311C22.4646 4.26805 22.6755 4.16917 22.8058 3.90959L22.7996 3.91577Z" fill="#FFDBC2"/>
<path d="M25.083 5.59106C25.083 5.59106 24.8783 6.20909 24.8162 6.23381C24.7542 6.25854 24.6301 6.23382 24.5122 6.14111C24.3943 6.04841 24.5743 5.94334 24.5743 5.94334H24.748L25.083 5.59724V5.59106Z" fill="#FFDBC2"/>
<path d="M25.6726 5.10883C25.6726 5.10883 25.4244 5.14592 25.1204 5.15828C24.8164 5.17064 24.4627 5.00995 24.2828 4.9296C24.1028 4.84308 23.7864 4.81836 23.7616 4.8678C23.7368 4.91724 23.6251 4.96051 23.6251 5.11501C23.6251 5.26952 23.9912 5.56618 24.0966 5.6218C24.2021 5.67742 24.1773 5.70832 24.016 5.77631C23.8547 5.84429 23.4762 5.98025 23.2839 5.81957C23.0915 5.65888 23.0295 5.41785 23.0109 5.13973C22.9861 4.8678 23.1474 4.56497 23.2094 4.52789C23.2777 4.4908 23.6809 4.57733 23.7058 4.58969C23.7306 4.60205 24.1711 4.63913 24.1711 4.63913C24.1711 4.63913 24.7233 4.00874 24.8226 4.05818C24.9218 4.11381 24.9404 4.24359 25.2631 4.3981C25.5857 4.55261 25.9766 4.71947 25.9766 4.71947L25.6726 5.10883Z" fill="#FFDBC2"/>
<path d="M31.4549 13.3842C31.4549 13.3842 31.5789 13.891 31.5976 13.9281C31.6162 13.9714 31.7092 14.1382 31.6596 14.2062C31.61 14.2804 31.5417 14.2742 31.4983 14.2557C31.4549 14.2371 31.2625 14.0208 31.2439 13.959C31.2253 13.8972 30.9957 13.477 30.9957 13.477C30.9957 13.477 30.9089 13.65 30.8903 13.6871C30.8716 13.7242 30.5676 13.8231 30.5676 13.8231C30.5676 13.8231 30.3505 13.7983 30.2574 13.582C30.1643 13.3657 30.1519 13.3163 30.2078 13.2359C30.2698 13.1556 30.518 13.0567 30.518 13.0567C30.518 13.0567 30.8716 12.9825 30.9523 12.964C31.0392 12.9516 31.2191 12.964 31.2191 12.964L31.4673 13.3719L31.4549 13.3842Z" fill="#FFDBC2"/>
<path d="M24.9279 17.8339C24.9155 17.9822 24.8162 18.452 24.7914 18.4643C24.779 18.4705 24.6859 18.421 24.6239 18.384L24.6115 18.3778C24.5867 18.3654 24.5681 18.3531 24.5681 18.3531C24.5681 18.3531 24.5556 18.4087 24.537 18.4705C24.5184 18.5323 24.444 18.6744 24.444 18.6744L24.4067 18.9587L24.202 19.1441C24.202 19.1441 24.202 19.1936 24.0531 19.2739C24.0035 19.2987 23.9476 19.311 23.8856 19.3172C23.7677 19.3296 23.6312 19.3172 23.5009 19.2925C23.3458 19.2616 23.2775 19.2368 23.1845 19.1812C23.1845 19.1812 23.1845 19.1812 23.1783 19.1812C23.1597 19.1689 23.1348 19.1503 23.11 19.138C22.9611 19.0453 22.7191 18.6126 22.6943 18.557C22.6757 18.5014 22.0056 17.9019 20.9695 17.0058C20.8578 16.9069 20.7461 16.808 20.6345 16.7091C20.6096 16.6906 20.591 16.672 20.5662 16.6473C20.5166 16.604 20.4607 16.5546 20.4111 16.5052C20.0264 16.1529 19.6542 15.7882 19.2881 15.4112C19.2757 15.3989 19.2571 15.3803 19.2385 15.3618C18.9965 15.1146 18.7731 14.8797 18.5932 14.6758C18.5932 14.6758 18.5808 14.6634 18.5746 14.6573C18.5498 14.6325 18.5312 14.6078 18.5064 14.5831C18.494 14.5645 18.4753 14.546 18.4567 14.5275C18.3512 14.4039 18.2644 14.2988 18.2085 14.2185C17.9542 13.8476 17.7308 13.6313 17.6998 13.3903C17.6874 13.3038 17.6998 13.2172 17.7494 13.1184C17.7494 13.1184 17.768 13.0813 17.7804 13.0627C17.7991 13.0195 17.8301 12.97 17.8611 12.9329C18.0596 12.6857 18.3947 12.5621 18.7731 12.6116C18.9096 12.6301 19.0275 12.6548 19.1206 12.6857C19.3067 12.7475 19.4246 12.8279 19.5177 12.8897C19.5425 12.9082 19.5673 12.9206 19.5859 12.9391C19.6107 12.9515 19.6418 12.9824 19.6728 13.0257C19.679 13.0318 19.6852 13.0442 19.6976 13.0566C19.8341 13.242 19.983 13.5572 19.983 13.5572C20.4173 14.4966 22.4958 16.4928 22.7316 16.7586C22.9735 17.0243 23.079 17.1046 23.3148 17.1603C23.5443 17.2159 24.233 16.944 24.4254 17.0243C24.6239 17.1046 24.9341 17.6856 24.9217 17.8339H24.9279Z" fill="#FFCDAB"/>
<g style="mix-blend-mode:multiply">
<path d="M23.1657 19.169C23.1657 19.169 23.1223 19.1381 23.0975 19.1257C22.9486 19.033 22.7066 18.6004 22.6818 18.5448C22.6632 18.4892 21.9931 17.8897 20.957 16.9935C20.8453 16.8947 20.7336 16.7958 20.6219 16.6969C20.5971 16.6783 20.5785 16.6598 20.5537 16.6351C20.5041 16.5918 20.4482 16.5424 20.3986 16.4929C20.0139 16.1407 19.6416 15.776 19.2756 15.399C19.2632 15.3867 19.2446 15.3681 19.226 15.3496C19.0088 15.1209 18.7916 14.8984 18.5807 14.6636C18.5807 14.6636 18.5683 14.6512 18.5621 14.645C18.5435 14.6203 18.5187 14.5956 18.4938 14.5709C18.4814 14.5523 18.4628 14.5338 18.4442 14.5152C18.3387 14.3916 18.2519 14.2866 18.196 14.2062C17.9416 13.8354 17.7183 13.6191 17.6873 13.3781C17.5508 13.2112 17.1599 12.2533 17.0792 12.0926C16.9489 11.8206 16.8373 11.1037 16.6884 10.566C16.6759 10.5228 16.6697 10.4981 16.6697 10.4981C16.6449 10.4239 16.6263 10.3559 16.6015 10.2879C16.403 9.75642 16.2603 9.20019 16.2603 9.20019L16.7256 9.08276C16.7628 9.15075 16.7876 9.22491 16.8062 9.29907C16.9427 9.81822 17.0792 10.3374 17.1971 10.8627C17.3708 11.6105 17.5073 12.3707 17.7369 13.1C17.7369 13.1 17.7369 13.1185 17.7431 13.1309C17.7431 13.1432 17.7493 13.1556 17.7555 13.1618C17.9354 13.6994 18.3077 14.2186 18.6614 14.6512C19.226 15.3558 22.2909 18.0504 22.2909 18.0504C22.2909 18.0504 22.5453 18.2976 22.5825 18.2976C22.6136 18.2976 22.6632 18.2667 22.6818 18.2358C22.7066 18.2049 22.8059 18.0689 22.8369 17.9638C22.8679 17.8588 23.0541 17.8464 23.0541 17.8464C23.0541 17.8464 22.8679 18.3038 22.8493 18.3656C22.8307 18.4274 22.8245 18.6993 22.8307 18.7117C22.8369 18.7178 23.0975 19.1072 23.1657 19.1628V19.169Z" fill="#EDC0AF"/>
</g>
<path d="M17.3398 5.3252C17.3398 5.3252 16.0803 5.58477 16.0183 7.12984C15.9562 8.67491 16.4836 9.9666 16.4836 9.9666C16.4836 9.9666 16.4402 10.0037 17.4018 10.0222C18.3635 10.0346 18.6551 9.92333 18.6551 9.92333C18.6551 9.92333 18.6799 8.55749 18.7296 7.82821C18.7854 6.98769 19.3252 5.8258 17.3398 5.33138V5.3252Z" fill="#FF4046"/>
<path d="M17.3023 9.61436C17.2589 9.49076 16.291 6.64164 17.234 5.25108C18.1833 3.85433 20.6341 4.08918 20.7395 4.10154L20.7147 4.35493C20.7147 4.35493 18.3136 4.12008 17.4512 5.39322C16.5826 6.67872 17.5381 9.49694 17.5505 9.52784L17.3085 9.61436H17.3023Z" fill="#F5E1E1"/>
<g style="mix-blend-mode:multiply">
<path d="M24.4005 18.9466L24.1957 19.132C24.1957 19.132 24.1957 19.1815 24.0468 19.2556C23.9972 19.2804 23.9413 19.2927 23.8793 19.3051C23.8979 19.3051 24.084 19.2 24.0902 19.1753C24.0964 19.1506 24.0406 19.1073 24.0034 19.0826C23.9661 19.0641 23.5691 18.9528 23.5691 18.9528L24.1088 19.0393C24.1088 19.0393 24.2515 18.9714 24.2764 18.8972C24.3012 18.823 24.3198 18.7056 24.3198 18.7056L23.6001 18.5202L24.326 18.6005C24.326 18.6005 24.4749 18.446 24.4811 18.4151C24.4935 18.3842 24.4811 18.273 24.4191 18.2544C24.357 18.2297 24.1026 18.1617 24.1026 18.1617C24.1026 18.1617 23.6311 17.9949 23.5629 17.9578C23.4946 17.9207 23.749 17.9578 23.7738 17.9578C23.7924 17.9578 24.0654 18.0628 24.1585 18.069C24.2453 18.0814 24.3818 18.1123 24.4191 18.0814C24.4563 18.0505 24.5059 17.8713 24.5121 17.828C24.5121 17.7847 24.4315 17.5622 24.4129 17.5437C24.3942 17.5313 24.3074 17.5066 24.2391 17.5128C24.1709 17.5128 23.8172 17.383 23.7676 17.3459C23.718 17.315 23.6559 17.2285 23.6559 17.2285C23.6559 17.2285 23.7862 17.2285 23.8048 17.2161C23.8234 17.2038 24.1275 17.2594 24.1275 17.2594L24.4005 17.4325L24.6052 17.7168C24.6052 17.7168 24.5804 18.0072 24.5742 18.0258C24.5742 18.0443 24.5866 18.1803 24.5866 18.2297C24.5866 18.2792 24.6052 18.3595 24.6052 18.3595C24.5804 18.3471 24.5618 18.3348 24.5618 18.3348C24.5618 18.3348 24.5432 18.3904 24.5245 18.4522C24.5059 18.514 24.4315 18.6562 24.4315 18.6562L24.3942 18.9404L24.4005 18.9466Z" fill="#EDC0AF"/>
</g>
<path d="M23.6688 3.29785C23.6688 3.29785 22.8498 4.63898 22.7629 5.05306C22.6823 5.46095 22.7195 6.30147 22.7195 6.30147L23.0421 6.69083C23.0421 6.69083 23.0856 5.25082 23.1414 5.11486C23.2035 4.97271 24.0721 3.68721 24.0721 3.68721L23.6688 3.30403V3.29785Z" fill="#3A3E40"/>
<path d="M22.0055 0.652814C21.8318 0.776419 21.5588 1.14106 21.5712 1.34501C21.5712 1.41917 21.7822 1.83325 21.8256 1.89505C22.1668 2.42656 22.7873 3.19291 23.9413 4.08906C25.7157 5.46726 26.5285 5.0161 26.7084 4.81215C26.9628 4.52168 27.6267 3.10021 26.7705 1.96304C26.0446 1.00509 23.7055 -0.552344 22.0117 0.646633L22.0055 0.652814Z" fill="#AEAEAE"/>
<path d="M21.807 0.448781C21.565 0.615649 21.4843 0.943205 21.6146 1.20278C21.869 1.7281 22.8927 2.86528 24.1212 3.79232C26.0073 5.21997 26.938 4.60812 27.1055 4.39181C27.273 4.1755 27.9679 2.85292 27.0435 1.69102C26.2679 0.708353 23.5566 -0.737835 21.8008 0.442601L21.807 0.448781Z" fill="#C12D32"/>
<path d="M27.1122 4.06412C27.1122 4.06412 28.26 2.85897 26.6034 1.40042C24.9469 -0.0581321 23.3958 1.13466 24.6987 2.54377C26.0016 3.95288 26.5166 4.27425 27.1184 4.06412H27.1122Z" fill="#C12D32"/>
<path d="M25.0392 0.73293C24.7662 0.547521 24.4933 0.417735 24.2513 0.32503C23.9969 0.306489 23.7363 0.32503 23.4819 0.368292C23.8108 0.52898 24.2513 0.763831 24.667 1.06049C25.8644 1.91337 26.8323 3.34101 26.8323 3.34101C27.0122 2.85277 26.3173 1.58581 25.0392 0.73293Z" fill="#CF9F0C"/>
<path d="M25.8334 3.35355C25.8334 3.35355 24.9523 3.36591 23.8976 2.43886C22.8428 1.50564 22.0425 0.442627 22.0425 0.442627C22.0425 0.442627 23.0662 0.93705 23.8604 1.51182C24.3629 1.87646 25.8272 3.35355 25.8272 3.35355H25.8334Z" fill="#CF9F0C"/>
<path d="M27.3786 3.5574C27.3786 3.5574 27.4344 2.44494 26.2184 1.33249C25.4552 0.634118 25.1016 0.529053 25.1016 0.529053C25.1016 0.529053 26.2308 0.930772 26.9195 1.71567C27.7384 2.64889 27.3848 3.5574 27.3848 3.5574H27.3786Z" fill="#CF9F0C"/>
<g style="mix-blend-mode:overlay">
<path d="M24.5123 3.56979C23.4203 2.63656 23.2962 1.94437 23.3645 1.38814C23.4141 0.974064 24.3758 0.325133 25.4678 0.603246C24.5061 0.226249 22.8247 -0.249634 21.7948 0.448739C21.5528 0.615607 21.4721 0.943163 21.6024 1.20273C21.8568 1.72806 22.8805 2.86523 24.109 3.79228C25.6725 4.97271 26.5784 4.7564 26.9382 4.52773C26.9196 4.52773 25.5857 4.49683 24.5061 3.56979H24.5123Z" fill="#333333"/>
</g>
<path d="M18.655 9.36694C18.655 9.36694 18.016 9.39785 17.4266 9.42875C16.8371 9.45965 16.2974 9.36694 16.2974 9.36694L16.5083 10.0159C16.5083 10.0159 17.5507 10.0591 17.9601 10.053C18.3696 10.0468 18.6923 10.0159 18.6923 10.0159L18.6612 9.36694H18.655Z" fill="#F5E1E1"/>
<path d="M25.4986 8.01343C25.4986 8.01343 25.176 8.40279 24.7479 8.56347C24.326 8.72416 23.4077 8.79832 23.4077 8.79832C23.4077 8.79832 23.4822 9.07644 23.5814 9.18768L23.6869 9.29893C23.6869 9.29893 24.0157 9.41635 24.692 9.19386C25.3683 8.97137 25.7158 8.48931 25.7158 8.48931L25.4924 8.01343H25.4986Z" fill="#F5E1E1"/>
<path d="M23.5259 17.1293C23.5259 17.1293 23.4266 16.4248 23.3956 16.3506C23.3708 16.295 22.9303 16.4866 22.9737 16.4433C22.9861 16.4248 23.4266 16.159 23.4639 16.1528C23.5942 16.1096 23.7431 16.1776 23.7431 16.1776C23.7431 16.1776 23.8299 16.6596 23.8361 16.6782C23.8423 16.6967 23.7679 16.9872 23.7679 16.9872L23.5321 17.1355L23.5259 17.1293Z" fill="#231310"/>
<path d="M23.3456 16.8388C23.3456 16.8388 22.9857 16.6905 22.9547 16.6163C22.9175 16.5422 22.8865 16.4556 23.0168 16.4186C23.1471 16.3815 23.4945 16.332 23.4945 16.332C23.4945 16.332 23.5814 16.8141 23.5876 16.8326C23.5938 16.8512 23.5193 17.1416 23.5193 17.1416L23.3456 16.845V16.8388Z" fill="#231310"/>
<path d="M24.0034 16.2579L23.9723 16.5237L24.2081 16.9439L24.6796 18.0873L25.0333 18.3407L24.9837 18.4457L24.9216 18.4828L24.568 18.1553L24.0654 16.9748L23.5566 16.2888L23.7055 16.1899L24.0034 16.2579Z" fill="#84847C"/>
<path d="M23.8545 16.3568L23.8172 16.6226L24.1461 16.981L24.6176 18.1244L24.9712 18.3839L24.9216 18.4828L24.5493 18.2294L24.0034 17.0119L23.6435 16.8203L23.5566 16.2888L23.8545 16.3568Z" fill="#C3C3C3"/>
<path d="M31.0762 12.9452C31.0762 12.9452 30.9769 12.2407 30.9459 12.1665C30.9211 12.1109 30.4806 12.3025 30.524 12.2592C30.5364 12.2407 30.9769 11.9749 31.0142 11.9687C31.1444 11.9255 31.2933 11.9935 31.2933 11.9935C31.2933 11.9935 31.3802 12.4755 31.3864 12.4941C31.3926 12.5126 31.3182 12.8031 31.3182 12.8031L31.0824 12.9514L31.0762 12.9452Z" fill="#231310"/>
<path d="M30.9027 12.6486C30.9027 12.6486 30.5429 12.5003 30.5118 12.4261C30.4746 12.352 30.4436 12.2655 30.5739 12.2284C30.7042 12.1851 31.0516 12.1418 31.0516 12.1418C31.0516 12.1418 31.1385 12.6239 31.1447 12.6425C31.1447 12.661 31.0764 12.9515 31.0764 12.9515L30.9027 12.6548V12.6486Z" fill="#231310"/>
<path d="M31.5603 12.0677L31.5293 12.3335L31.7651 12.7538L32.2366 13.8971L32.5903 14.1505L32.5344 14.2556L32.4786 14.2926L32.1249 13.9651L31.6224 12.7847L31.1074 12.0986L31.2625 11.9998L31.5603 12.0677Z" fill="#84847C"/>
<path d="M31.4052 12.1666L31.3742 12.4324L31.703 12.7908L32.1746 13.9342L32.5282 14.1938L32.4786 14.2926L32.1063 14.0392L31.5603 12.8279L31.2005 12.6301L31.1074 12.0986L31.4052 12.1666Z" fill="#C3C3C3"/>
<path d="M22.7435 16.4374L22.6938 16.4065C22.6938 16.4065 22.7311 16.4189 22.7497 16.425V16.4374H22.7435Z" fill="#443633"/>
</svg>
