<svg width="16" height="26" viewBox="0 0 16 26" fill="none" xmlns="http://www.w3.org/2000/svg">
<path d="M14.7511 24.3665H13.9578C13.8454 23.9859 13.4926 23.7073 13.0758 23.7073H12.8933V18.9312H11.7018V14.0783L10.5102 14.084V10.0756L9.31876 10.0699V5.74527H8.67953V1.41576H7.72454V0H7.13346V1.41576V1.7113V3.73142H6.49435V7.70555L5.30292 7.71126V11.7196L4.1115 11.7139V16.5669H2.91985V23.7071H2.73721C2.32046 23.7071 1.96768 23.9858 1.85529 24.3664H1.06191C0.476366 24.3664 0 24.8428 0 25.4283V26H5.15103H10.662H15.813V25.4283C15.813 24.8428 15.3367 24.3665 14.7511 24.3665ZM3.51098 17.1579H4.1115V23.7071H3.51098V17.1579ZM5.15097 25.2175V25.409H2.91985H0.591531C0.601702 25.1583 0.808805 24.9576 1.06185 24.9576H2.4089V24.6264C2.4089 24.4456 2.55616 24.2984 2.73721 24.2984H2.91985H3.51098H5.15097V25.2175ZM5.30292 23.0824C5.20844 23.2222 5.15103 23.3846 5.15103 23.56V23.7071H4.70263V17.1579V16.8624V12.3078L5.30292 12.3107V23.0824ZM11.7017 19.5223H12.302V23.7073H11.7017V19.5223ZM9.31864 10.6611L9.91893 10.6639V14.3808V14.6777V22.6769C9.82999 22.654 9.73793 22.6378 9.64091 22.6378H9.31864V10.6611ZM7.08543 8.29392V7.99979V4.32256H7.72459V2.0069H8.08845V6.33635H8.72751V10.3641V10.6582V22.6377H7.08543V8.29392ZM5.89406 12.3135V12.0165V8.29962L6.49435 8.29674V22.6378H6.17202C6.075 22.6378 5.983 22.654 5.89406 22.6769V12.3135ZM10.0709 23.7072V24.0027V24.2982V25.2175H5.74217V24.2982V24.0027V23.7072V23.56C5.74217 23.4618 5.8024 23.3728 5.89412 23.3116C5.96984 23.261 6.06669 23.2289 6.17208 23.2289H6.49441H7.08548H8.72756H9.31876H9.64108C9.74647 23.2289 9.84327 23.261 9.91904 23.3116C10.0107 23.3729 10.0709 23.4617 10.0709 23.56V23.7072ZM10.5101 23.0824V14.675L11.1106 14.6721V19.2268V19.5223V23.7073H10.662V23.5601C10.662 23.3846 10.6045 23.2222 10.5101 23.0824ZM13.0522 25.409H12.8932H10.6621V25.2175V24.2982H12.3021H12.8932H13.0522H13.0758C13.2568 24.2982 13.4042 24.4454 13.4042 24.6263V24.9575H14.7513C15.0044 24.9575 15.2115 25.1583 15.2216 25.4089L13.0522 25.409Z" fill="#1A1C20"/>
</svg>
