<svg width="30" height="30" viewBox="0 0 30 30" fill="none" xmlns="http://www.w3.org/2000/svg">
<path d="M6.2617 15.8291L6.52228 15.9795L9.03418 26.1825L6.26152 27.7833L6.2617 15.8291Z" fill="#AA9D7A"/>
<path d="M6.88279 16.1874L7.14337 16.3378L9.65527 26.5408L6.88267 28.1416L6.88279 16.1874Z" fill="#AA9D7A"/>
<path d="M19.6465 7.26489L8.01891 13.978L5.16872 12.3324L16.7963 5.61938L19.6465 7.26489Z" fill="url(#paint0_linear_640_12844)"/>
<path d="M8.01891 13.9779L19.6465 7.26477V10.1301L8.01891 16.8434V13.9779Z" fill="url(#paint1_linear_640_12844)"/>
<path d="M8.01855 16.8434L5.16837 15.1978V12.3324L8.01855 13.978V16.8434Z" fill="url(#paint2_linear_640_12844)"/>
<path d="M7.50383 16.5458L7.76441 16.6963L10.2764 26.8992L7.50365 28.5L7.50383 16.5458Z" fill="url(#paint3_linear_640_12844)"/>
<path d="M7.50372 16.5458L7.04772 16.2825L7.04754 28.2367L7.50353 28.5L7.50372 16.5458ZM8.01942 16.8426L8.10587 16.7914V21.6742C8.10905 24.7096 9.03444 26.1825 10.9844 28.0428L10.5297 28.395C8.69183 26.7236 7.65119 24.7513 7.65119 22.1641V16.6313L8.01942 16.8426ZM6.88296 28.1417L6.42696 27.8784L6.42708 15.9242L6.88308 16.1875L6.88296 28.1417ZM6.26226 27.7833L5.80625 27.52L5.80638 15.5658L6.26238 15.8291L6.26226 27.7833Z" fill="url(#paint4_linear_640_12844)"/>
<path d="M8.10434 16.7899V21.6727C8.10752 24.7081 9.0329 26.181 10.9828 28.0413C11.9722 27.0935 12.9424 26.6261 14.3865 25.7071C16.7334 24.2215 19.3174 22.6909 19.3174 22.6909C19.3174 22.6909 19.0773 21.0547 18.9876 19.1816C18.9619 18.6694 18.9492 18.1442 18.9523 17.6255C18.9651 16.1687 18.9715 13.8826 18.9715 12.2976C18.9747 11.2538 18.9747 10.5142 18.9747 10.5142L8.10434 16.7899Z" fill="url(#paint5_linear_640_12844)"/>
<path d="M8.21103 10.4001L18.5498 4.43115V7.39869L8.21103 13.3677V10.4001Z" fill="url(#paint6_linear_640_12844)"/>
<path d="M8.21094 10.4001L6.1755 9.22498V12.1925L8.21094 13.3676V10.4001Z" fill="url(#paint7_linear_640_12844)"/>
<path d="M18.5498 4.4312L8.21102 10.4002L6.17558 9.22508L16.5144 3.2561L18.5498 4.4312Z" fill="url(#paint8_linear_640_12844)"/>
<path d="M18.5498 4.41418C17.6736 4.88614 16.8013 5.36518 15.9345 5.85334L13.3404 7.3294L10.7649 8.83756C9.90873 9.34433 9.05774 9.86009 8.21103 10.3832C9.08739 9.91139 9.95955 9.43235 10.8265 8.94425L13.4204 7.46794L15.9957 5.95954C16.852 5.45284 17.7029 4.93696 18.5498 4.41418Z" fill="url(#paint9_linear_640_12844)"/>
<path d="M19.6465 7.26477C18.6628 7.79895 17.6832 8.34015 16.7089 8.89047L13.7927 10.5531L10.895 12.2478C9.93141 12.8167 8.97303 13.3946 8.01891 13.9799C9.00267 13.4459 9.98223 12.9047 10.9566 12.3544L13.8727 10.6916L16.7703 8.99667C17.7339 8.42781 18.6922 7.84983 19.6465 7.26477Z" fill="url(#paint10_linear_640_12844)"/>
<path d="M8.64331 11.6267C8.64331 11.726 8.65933 11.8124 8.68813 11.8861C8.78737 12.1487 9.05317 12.2255 9.36691 12.043C9.38935 12.0302 9.41173 12.0174 9.43093 12.0014C9.80557 11.7516 10.0938 11.2233 10.0938 10.7879C10.0938 10.3748 9.83761 10.1827 9.49819 10.3076C9.45655 10.3204 9.41173 10.3428 9.36691 10.3684C9.35089 10.378 9.33487 10.3876 9.31885 10.4004C8.94109 10.6437 8.64331 11.1816 8.64331 11.6267Z" fill="#78170F"/>
<path d="M6.11066 8.00853C6.10106 8.47599 6.2003 8.85063 6.3284 9.13557L7.69562 8.34789C7.57718 7.91565 7.70204 7.68189 7.75646 7.60503C7.76924 7.58583 7.79168 7.57623 7.81412 7.57623C8.27522 7.59867 8.76188 8.04693 9.13652 8.63607C9.51752 9.24441 9.54956 9.80157 9.54638 10.0289C9.5432 10.1377 9.53036 10.237 9.49832 10.3075C9.46628 10.3811 9.40868 10.4227 9.31904 10.4004C8.94122 10.6437 8.64344 11.1816 8.64344 11.6267C8.64344 11.7259 8.65946 11.8124 8.68826 11.8861C8.96042 11.979 9.20696 12.0109 9.43112 12.0013C9.524 11.9982 9.61364 11.9886 9.69686 11.9693H9.70004C10.3981 11.8284 10.8079 11.2713 10.9104 10.9383C10.9712 10.7365 11.0481 10.4035 11.0448 9.97449V9.96489C11.0384 9.39495 10.8879 8.65209 10.366 7.81641C9.44708 6.34353 8.51852 6.08739 7.92302 6.01377C7.49714 5.96253 6.86 6.09381 6.46616 6.69255C6.46298 6.69573 6.45974 6.69897 6.45974 6.70215C6.29642 6.94869 6.17798 7.27209 6.12992 7.69155C6.11708 7.80039 6.11066 7.90929 6.11066 8.00853Z" fill="#5D635F"/>
<path d="M6.88248 8.43117C6.88566 8.02773 6.87288 7.75875 7.29234 7.26567C7.7118 6.76941 9.4056 7.86765 9.74496 9.22521C10.0876 10.5796 9.61686 11.0663 9.68412 11.5177C9.78018 12.1485 10.9841 11.1975 11.0449 9.97443V9.96483C11.0417 9.74709 11.0193 9.50055 10.9585 9.23799V9.22515C10.8848 8.89215 10.7567 8.52717 10.5518 8.13969C10.5487 8.13327 10.5487 8.13009 10.5454 8.12367C10.491 8.02443 10.4302 7.91877 10.3661 7.81629C9.44718 6.34341 8.51862 6.08727 7.92312 6.01365C7.49724 5.96241 6.8601 6.09369 6.46626 6.69243C6.46308 6.69561 6.45984 6.69885 6.45984 6.70203C6.12366 7.42575 6.8793 8.89863 6.88248 8.43117Z" fill="#676D68"/>
<path d="M6.76448 7.74291C6.80612 7.46433 7.26398 6.78555 8.21174 7.14417C9.1595 7.50279 10.1137 8.83797 9.93434 10.6054C9.75824 12.3664 11.1414 10.567 10.959 9.23817V9.22533C10.8853 8.89233 10.7572 8.52735 10.5523 8.13987C10.9462 9.35661 10.3923 10.2339 10.293 9.59673C10.1937 8.95953 9.67502 7.64361 8.30138 7.04163C6.92456 6.44289 6.54674 8.02143 6.76448 7.74291Z" fill="#707772"/>
<path d="M6.5024 7.49928C6.3086 6.98502 6.71816 5.90712 8.0189 6.1338C9.31964 6.36048 10.1777 7.40256 10.4206 8.3682C10.6635 9.33384 10.3743 9.37248 10.2425 8.3682C10.1107 7.36392 9.00104 6.39288 8.0189 6.23094C7.0367 6.069 6.42146 6.64656 6.5024 7.49928Z" fill="#707772"/>
<path d="M10.003 7.95347C10.1261 8.20601 10.2633 8.92103 10.1851 8.89937C10.0472 8.52623 9.93986 8.37497 9.71492 8.03147C9.06908 7.04519 7.46719 5.99663 6.83641 7.18259C6.59365 7.63901 6.52688 7.19069 6.7064 6.82805C6.88592 6.46535 7.55377 5.93987 8.64337 6.59147C9.42619 7.05965 9.79256 7.52153 10.003 7.95347Z" fill="#5D635F"/>
<path d="M10.1168 9.78411C10.1789 9.54891 10.0731 9.19089 10.0163 9.00195C9.91143 8.65389 9.73359 8.33247 9.51165 8.04573C9.44295 7.95693 9.15789 7.53921 8.99559 7.59465C8.90019 7.62723 9.01365 7.75047 9.05529 7.80735C9.20409 8.01039 9.37443 8.19579 9.51063 8.40831C9.68361 8.67837 9.91701 9.01137 9.97821 9.32823C10.0137 9.51171 10.0498 9.70935 10.0665 9.89643C10.0894 9.86397 10.1058 9.82599 10.1168 9.78411Z" fill="#AFBAB2"/>
<path d="M10.521 9.3601C10.6284 9.34606 10.5352 8.89516 10.5259 8.83438C10.484 8.56156 10.42 8.2996 10.2887 8.05978C10.1768 7.85512 9.97494 7.30864 9.68886 7.31512C9.74514 7.51702 9.90145 7.69294 9.99397 7.87948C10.105 8.10334 10.1907 8.3083 10.2682 8.54566C10.3105 8.6752 10.3459 8.8069 10.3766 8.93962C10.3949 9.01894 10.4053 9.30034 10.4719 9.34402C10.4916 9.35692 10.5078 9.36178 10.521 9.3601Z" fill="#AFBAB2"/>
<path d="M9.38582 6.9009C9.15884 6.62088 8.7605 6.3363 8.38286 6.36918C8.36726 6.44724 8.50598 6.489 8.55644 6.50742C8.6507 6.54186 8.73596 6.5913 8.82044 6.64782C8.94062 6.7284 9.06758 6.79338 9.1826 6.88194C9.2552 6.9378 9.35918 7.09812 9.4529 7.10238C9.4694 7.02666 9.4343 6.96072 9.38582 6.9009Z" fill="#AFBAB2"/>
<path d="M8.33024 7.11592C8.40206 7.1512 8.55596 7.29712 8.63672 7.28182C8.59388 7.13212 8.40866 7.0618 8.2826 7.0024C8.17622 6.9523 8.0795 6.91858 7.9637 6.91996C7.83668 6.92152 7.6754 6.862 7.57478 6.97204C7.68992 6.99796 7.8224 6.98428 7.94264 7.00294C8.07566 7.02358 8.20886 7.05622 8.33024 7.11592Z" fill="#AFBAB2"/>
<path d="M10.0108 7.65668C10.2951 7.9598 10.3511 8.37662 10.4451 8.76584C10.4473 8.77532 10.4337 8.77892 10.4306 8.76986C10.3555 8.54948 10.2895 8.33954 10.1898 8.12876C10.122 7.98542 9.99488 7.84208 9.95222 7.69076C9.94304 7.6577 9.98666 7.63088 10.0108 7.65668Z" fill="#E0E0E0"/>
<path d="M9.49527 8.12877C9.59451 8.20173 9.65649 8.29809 9.70779 8.40891C9.78651 8.57895 9.85737 8.75649 9.93939 8.92473C9.94431 8.93487 9.93057 8.94297 9.92427 8.93355C9.75939 8.68677 9.60705 8.42337 9.45411 8.16981C9.43953 8.14557 9.47025 8.11041 9.49527 8.12877Z" fill="#E0E0E0"/>
<path d="M7.83534 6.91528C8.0613 6.916 8.29908 7.00756 8.47182 7.15162C8.47422 7.15366 8.47097 7.15792 8.46839 7.15606C8.38967 7.09792 8.28467 7.06138 8.19359 7.03126C8.07515 6.99214 7.94634 6.9997 7.82964 6.95752C7.80774 6.94954 7.8099 6.91522 7.83534 6.91528Z" fill="#E0E0E0"/>
<path d="M8.71551 6.43317C8.83977 6.46809 8.93517 6.51957 9.04203 6.58887C9.10179 6.62769 9.14967 6.65811 9.20067 6.70881C9.25299 6.76083 9.29271 6.83439 9.34791 6.88161C9.36627 6.89727 9.34257 6.92571 9.32163 6.91377C9.27861 6.88923 9.25713 6.85443 9.22413 6.81909C9.16035 6.75099 9.07971 6.70929 9.00057 6.66027C8.93637 6.62055 8.87871 6.57981 8.80641 6.55341C8.75679 6.53529 8.71557 6.53067 8.67669 6.49623C8.64765 6.47043 8.67777 6.42249 8.71551 6.43317Z" fill="#E0E0E0"/>
<path d="M16.4442 7.12302C16.4442 7.22226 16.4601 7.30878 16.489 7.3824C16.5882 7.64496 16.854 7.72182 17.1678 7.53936C17.1901 7.52652 17.2126 7.51374 17.2318 7.49772C17.6064 7.248 17.8945 6.71964 17.8945 6.28416C17.8945 5.87118 17.6384 5.67906 17.299 5.80386C17.2573 5.8167 17.2126 5.83914 17.1678 5.8647C17.1517 5.87436 17.1357 5.8839 17.1197 5.89674C16.7419 6.14004 16.4442 6.67794 16.4442 7.12302Z" fill="#78170F"/>
<path d="M14.1291 4.63191L15.4963 3.84423C15.3778 3.41199 15.5027 3.17823 15.5571 3.10137C15.57 3.08217 15.5923 3.07257 15.6148 3.07257C16.0759 3.09501 16.5626 3.54321 16.9372 4.13241C17.3182 4.74075 17.3503 5.29791 17.347 5.52525C17.3439 5.63409 17.331 5.73339 17.299 5.80377C17.267 5.87745 17.2093 5.91909 17.1197 5.89665C16.7419 6.14001 16.4442 6.67791 16.4442 7.12293C16.4442 7.22217 16.4601 7.30869 16.489 7.38231C16.7611 7.47519 17.0077 7.50723 17.2318 7.49763C18.0931 7.46559 18.5958 6.80925 18.7111 6.43461C18.772 6.23289 18.8488 5.89989 18.8456 5.47083V5.46117C18.8392 4.89129 18.6887 4.14843 18.1668 3.31275C17.2479 1.83987 16.3193 1.58373 15.7238 1.51011C15.2979 1.45887 14.6607 1.59015 14.2669 2.18889C14.2638 2.19207 14.2605 2.19531 14.2605 2.19849C14.0972 2.44509 13.9788 2.76843 13.9308 3.18789C13.8601 3.80259 13.9722 4.28289 14.1291 4.63191Z" fill="#5D635F"/>
<path d="M14.6833 3.92751C14.6864 3.52407 14.6736 3.25509 15.0931 2.76201C15.5125 2.26575 17.2063 3.36399 17.5457 4.72155C17.8883 6.07599 17.4176 6.56265 17.4849 7.01415C17.5809 7.64487 18.7849 6.69393 18.8457 5.47083V5.46117C18.8425 5.24343 18.8201 4.99695 18.7592 4.73439V4.72155C18.6856 4.38861 18.5575 4.02351 18.3526 3.63615C18.3494 3.62973 18.3494 3.62655 18.3462 3.62013C18.2918 3.52089 18.2309 3.41523 18.1669 3.31275C17.248 1.83987 16.3194 1.58373 15.7239 1.51011C15.298 1.45887 14.6608 1.59015 14.267 2.18889C14.2639 2.19207 14.2606 2.19531 14.2606 2.19849C13.9244 2.92209 14.68 4.39497 14.6833 3.92751Z" fill="#676D68"/>
<path d="M14.5643 3.23903C14.6059 2.96045 15.0638 2.28167 16.0115 2.64029C16.9592 2.99891 17.9134 4.33415 17.7341 6.10151C17.558 7.86257 18.9412 6.06311 18.7588 4.73435V4.72151C18.6851 4.38857 18.557 4.02347 18.3521 3.63611C18.746 4.85285 18.1921 5.73017 18.0928 5.09297C17.9935 4.45577 17.4748 3.13979 16.1012 2.53787C14.7244 1.93907 14.3465 3.51761 14.5643 3.23903Z" fill="#707772"/>
<path d="M14.3032 2.9955C14.1094 2.4813 14.5189 1.40334 15.8197 1.63002C17.1204 1.8567 17.9785 2.89878 18.2214 3.86442C18.4643 4.83006 18.1751 4.8687 18.0433 3.86442C17.9115 2.86014 16.8019 1.8891 15.8197 1.72722C14.8375 1.56522 14.2222 2.14284 14.3032 2.9955Z" fill="#707772"/>
<path d="M17.8038 3.44987C17.9268 3.70241 18.0641 4.41743 17.9859 4.39571C17.848 4.02257 17.7407 3.87137 17.5157 3.52781C16.8698 2.54153 15.268 1.49297 14.6372 2.67893C14.3945 3.13535 14.3277 2.68709 14.5072 2.32439C14.6867 1.96169 15.3546 1.43621 16.4442 2.08781C17.227 2.55593 17.5934 3.01787 17.8038 3.44987Z" fill="#5D635F"/>
<path d="M17.9176 5.28027C17.9797 5.04507 17.8739 4.68705 17.817 4.49811C17.7122 4.15005 17.5343 3.82863 17.3124 3.54189C17.2436 3.45309 16.9586 3.03537 16.7963 3.09087C16.7009 3.12345 16.8143 3.24669 16.856 3.30357C17.0048 3.50661 17.1752 3.69201 17.3114 3.90453C17.4843 4.17453 17.7177 4.50759 17.7789 4.82445C17.8144 5.00787 17.8505 5.20557 17.8672 5.39265C17.8901 5.36013 17.9066 5.32215 17.9176 5.28027Z" fill="#AFBAB2"/>
<path d="M18.3218 4.85626C18.4292 4.84228 18.3359 4.39132 18.3266 4.33054C18.2848 4.05772 18.2207 3.79576 18.0895 3.55594C17.9775 3.35134 17.7757 2.8048 17.4896 2.81134C17.5459 3.01324 17.7022 3.1891 17.7947 3.3757C17.9057 3.5995 17.9915 3.80452 18.069 4.04188C18.1112 4.17142 18.1466 4.30306 18.1774 4.43578C18.1958 4.5151 18.2061 4.7965 18.2727 4.84024C18.2924 4.85314 18.3086 4.858 18.3218 4.85626Z" fill="#AFBAB2"/>
<path d="M17.1857 2.39711C16.9587 2.11715 16.5603 1.83251 16.1827 1.86539C16.1671 1.94351 16.3058 1.98521 16.3563 2.00369C16.4505 2.03813 16.5358 2.08757 16.6202 2.14415C16.7404 2.22467 16.8674 2.28971 16.9824 2.37821C17.055 2.43401 17.159 2.59439 17.2527 2.59865C17.2692 2.52293 17.2342 2.45699 17.1857 2.39711Z" fill="#AFBAB2"/>
<path d="M16.131 2.61208C16.2028 2.64736 16.3567 2.79334 16.4375 2.77798C16.3947 2.62834 16.2094 2.55796 16.0833 2.49856C15.9769 2.44846 15.8802 2.41474 15.7644 2.41618C15.6375 2.41774 15.4762 2.35822 15.3755 2.46826C15.4907 2.49418 15.6231 2.4805 15.7434 2.4991C15.8764 2.5198 16.0096 2.5525 16.131 2.61208Z" fill="#AFBAB2"/>
<path d="M17.8116 3.15301C18.0958 3.45607 18.1519 3.87295 18.2458 4.26217C18.2481 4.27159 18.2345 4.27525 18.2314 4.26619C18.1563 4.04581 18.0903 3.83587 17.9905 3.62509C17.9227 3.48175 17.7957 3.33841 17.7531 3.18709C17.7438 3.15403 17.7874 3.12721 17.8116 3.15301Z" fill="#E0E0E0"/>
<path d="M17.296 3.62511C17.3953 3.69807 17.4573 3.79443 17.5086 3.90525C17.5873 4.07523 17.6581 4.25283 17.7402 4.42107C17.7451 4.43121 17.7313 4.43937 17.725 4.42989C17.5602 4.18311 17.4078 3.91977 17.2549 3.66615C17.2403 3.64191 17.2711 3.60675 17.296 3.62511Z" fill="#E0E0E0"/>
<path d="M15.6361 2.4115C15.862 2.41222 16.0998 2.50378 16.2726 2.64784C16.275 2.64988 16.2718 2.65414 16.2692 2.65228C16.1905 2.59414 16.0855 2.55754 15.9944 2.52742C15.8759 2.48836 15.7471 2.49586 15.6304 2.45368C15.6085 2.44576 15.6107 2.41138 15.6361 2.4115Z" fill="#E0E0E0"/>
<path d="M16.5163 1.92937C16.6405 1.96429 16.736 2.01577 16.8428 2.08507C16.9026 2.12383 16.9505 2.15431 17.0015 2.20501C17.0538 2.25703 17.0935 2.33059 17.1487 2.37781C17.167 2.39347 17.1434 2.42191 17.1224 2.40997C17.0794 2.38549 17.0579 2.35063 17.0249 2.31535C16.9612 2.24725 16.8805 2.20555 16.8013 2.15653C16.7371 2.11675 16.6795 2.07607 16.6072 2.04967C16.5575 2.03149 16.5163 2.02693 16.4774 1.99249C16.4483 1.96663 16.4785 1.91875 16.5163 1.92937Z" fill="#E0E0E0"/>
<path d="M7.68459 8.35449L9.46042 9.37257C9.4867 9.47289 9.49834 9.52563 9.51838 9.64521C9.51838 9.64521 9.60526 10.1277 9.4987 10.3074C9.4987 10.3074 8.9554 10.4994 8.69212 11.2962V10.1121L6.6655 8.94201L7.68459 8.35449Z" fill="#C9AFAD"/>
<path d="M15.4854 3.85083L17.2612 4.86891C17.2875 4.96929 17.2991 5.02197 17.3192 5.14155C17.3192 5.14155 17.406 5.62401 17.2995 5.80371C17.2995 5.80371 16.7562 5.99571 16.493 6.79251V5.60853L14.4663 4.43847L15.4854 3.85083Z" fill="#C9AFAD"/>
<path d="M18.9756 10.5156L8.10515 16.7914V17.3994L18.9756 11.1234V10.5156Z" fill="url(#paint11_linear_640_12844)"/>
<path d="M18.5497 7.39868L8.2109 13.3677V13.6515L18.8115 7.53098L18.5497 7.39868Z" fill="url(#paint12_linear_640_12844)"/>
<path d="M6.1755 12.1925L8.21094 13.3677V13.6515L5.91372 12.3249L6.1755 12.1925Z" fill="url(#paint13_linear_640_12844)"/>
<path d="M8.70952 11.9315V13.0798C8.70952 13.0798 9.16894 13.2505 9.6961 12.9432C10.2233 12.636 9.85078 12.4209 9.85078 12.4209L9.8518 11.9315C9.8518 11.9315 9.35242 12.1135 8.68858 11.8861L8.70952 11.9315Z" fill="#C9AFAD"/>
<path d="M16.5103 7.42768V8.57602C16.5103 8.57602 16.9697 8.74672 17.4969 8.43946C18.024 8.1322 17.6516 7.91716 17.6516 7.91716L17.6526 7.42774C17.6526 7.42774 17.1532 7.60978 16.4894 7.38232L16.5103 7.42768Z" fill="#C9AFAD"/>
<path d="M10.9844 28.0428C10.3232 27.3496 9.64578 26.6586 9.13944 25.8451C8.62806 25.0335 8.35692 24.0959 8.23746 23.1495C8.17026 22.6755 8.14806 22.1983 8.13846 21.7182L8.1207 20.2791C8.11932 19.3193 8.1177 18.3594 8.10588 17.3994C8.08632 18.3592 8.06922 19.319 8.06748 20.2791L8.0718 21.7195C8.07696 22.199 8.09442 22.6824 8.15832 23.16C8.28732 24.1126 8.57088 25.0594 9.09444 25.8732C9.60864 26.6928 10.3015 27.3716 10.9844 28.0428Z" fill="#FAF0DA"/>
<path d="M6.11073 8.00862C6.10113 8.47608 6.20037 8.85072 6.32847 9.13566L7.52919 8.44404C7.50357 8.4312 7.48755 8.4024 7.48119 8.3544C7.45239 8.05662 7.54203 7.57632 7.81419 7.57632C8.27529 7.59876 8.76195 8.04702 9.13659 8.63616C9.51759 9.2445 9.54963 9.80166 9.54645 10.029C9.54327 10.1378 9.53043 10.2371 9.49839 10.3076C9.48561 10.3332 9.47277 10.3556 9.45357 10.3716C9.42153 10.4036 9.37671 10.4132 9.31911 10.4004C9.03093 10.5861 8.79081 10.9415 8.69151 11.2969C8.65947 11.409 8.64351 11.5211 8.64351 11.6267C8.64351 11.726 8.65953 11.8124 8.68833 11.8861C8.96049 11.979 9.20703 12.011 9.43119 12.0014C9.52407 11.9982 9.61371 11.9886 9.69693 11.9693C9.12381 11.9821 8.97651 11.3834 9.21987 11.1241C9.46641 10.8679 9.59451 10.8903 9.70017 10.1859C9.80265 9.4815 9.48243 8.45046 8.71077 7.82928C7.93911 7.21134 7.50045 7.29138 7.35639 7.54434C7.19307 7.82928 7.33077 8.77386 6.59433 8.62338C6.30285 8.56254 6.16197 8.34798 6.11073 8.00862Z" fill="#4F4842"/>
<path d="M8.69164 11.2969C8.89336 10.7206 9.26476 10.8295 9.45052 10.5669C9.62344 10.3268 9.48256 10.362 9.4537 10.3716C9.42166 10.4037 9.37684 10.4133 9.31924 10.4004C9.03106 10.5861 8.79088 10.9415 8.69164 11.2969Z" fill="#403933"/>
<path d="M13.9115 3.50491C13.9019 3.97237 14.0012 4.34701 14.1292 4.63195L15.33 3.94033C15.3043 3.92755 15.2883 3.89875 15.282 3.85069C15.2531 3.55291 15.3428 3.07261 15.6149 3.07261C16.076 3.09505 16.5627 3.54325 16.9373 4.13245C17.3183 4.74079 17.3504 5.29795 17.3472 5.52529C17.344 5.63413 17.3311 5.73343 17.2991 5.80381C17.2863 5.82943 17.2735 5.85187 17.2543 5.86789C17.2222 5.89993 17.1774 5.90953 17.1198 5.89669C16.8317 6.08239 16.5915 6.43783 16.4923 6.79321C16.4602 6.90523 16.4443 7.01737 16.4443 7.12297C16.4443 7.22221 16.4602 7.30873 16.4891 7.38235C16.7612 7.47523 17.0078 7.50727 17.232 7.49767C17.3248 7.49449 17.4144 7.48483 17.4977 7.46563C16.9246 7.47847 16.7773 6.87973 17.0206 6.62035C17.2672 6.36415 17.3953 6.38659 17.5009 5.68219C17.6034 4.97779 17.2833 3.94681 16.5116 3.32563C15.7399 2.70769 15.3012 2.78773 15.1572 3.04063C14.9938 3.32563 15.1316 4.27021 14.3951 4.11967C14.1037 4.05883 13.9628 3.84433 13.9115 3.50491Z" fill="#4F4842"/>
<path d="M16.4925 6.79322C16.6941 6.21686 17.0656 6.32576 17.2513 6.06314C17.4242 5.82302 17.2833 5.85824 17.2545 5.86784C17.2224 5.89988 17.1776 5.90948 17.12 5.89664C16.8319 6.08234 16.5917 6.43778 16.4925 6.79322Z" fill="#403933"/>
<path d="M13.7944 17.2878L15.7354 16.1672V13.926L13.7944 15.0466L13.7944 17.2878Z" fill="#ABA394"/>
<path d="M11.4536 18.6391L13.3945 17.5186L13.3945 15.2773L11.4535 16.3979L11.4536 18.6391Z" fill="#ABA394"/>
<path d="M9.11375 19.9904L11.0547 18.8698V16.6287L9.11375 17.7492V19.9904Z" fill="#EB3D3D"/>
<path d="M16.1353 18.4688L18.0762 17.3482V15.1071L16.1352 16.2276L16.1353 18.4688Z" fill="#ABA394"/>
<path d="M13.7944 19.8202L15.7354 18.6996V16.4584L13.7944 17.5789L13.7944 19.8202Z" fill="#ABA394"/>
<path d="M11.4536 21.1716L13.3945 20.051L13.3945 17.8098L11.4535 18.9304L11.4536 21.1716Z" fill="#ABA394"/>
<path d="M9.14069 22.534C9.14069 22.534 9.25361 22.4614 9.42689 22.3533C9.60371 22.2457 9.84227 22.1032 10.0842 21.9626C10.3268 21.8226 10.5694 21.6825 10.7514 21.5774C10.9334 21.4723 11.0547 21.4023 11.0547 21.4023L11.0546 19.1611L9.11369 20.2817V20.6319C9.11369 20.6319 9.11369 21.1221 9.11483 21.403C9.11597 21.684 9.12035 21.9667 9.12527 22.1791C9.13313 22.3917 9.14069 22.534 9.14069 22.534Z" fill="#EB3D3D"/>
<path d="M16.1719 21.022C16.1719 21.022 16.2953 20.9519 16.4799 20.8462C16.6645 20.7404 16.9101 20.5991 17.155 20.4592C17.4 20.3194 17.6439 20.1804 17.826 20.0765C18.0081 19.9726 18.1289 19.9034 18.1289 19.9034C18.1289 19.9034 18.118 19.7583 18.1055 19.5427C18.0931 19.327 18.0834 19.0432 18.0798 18.7615C18.0763 18.4799 18.0763 18.1997 18.0763 17.9896C18.0763 17.7795 18.0763 17.6394 18.0763 17.6394L16.1353 18.76V19.1102C16.1356 19.3203 16.1358 19.6004 16.1392 19.8829C16.1425 20.1654 16.15 20.4501 16.1579 20.6644C16.1658 20.8787 16.1719 21.022 16.1719 21.022Z" fill="#ABA394"/>
<path d="M13.769 22.3363C13.769 22.3363 13.894 22.2686 14.0824 22.1677C14.2707 22.0667 14.5223 21.9329 14.7731 21.7981C15.0239 21.6633 15.2725 21.5266 15.4575 21.4235C15.6426 21.3203 15.7656 21.2513 15.7656 21.2513C15.7656 21.2513 15.7611 21.1084 15.755 20.8944C15.7489 20.6804 15.7426 20.3961 15.7393 20.1137C15.736 19.8313 15.7357 19.5511 15.7355 19.341C15.7355 19.1309 15.7355 18.9908 15.7355 18.9908L13.7946 20.1114V20.4616C13.7946 20.6717 13.7946 20.9519 13.7946 21.232C13.7941 21.512 13.7907 21.7907 13.7839 21.9961C13.7767 22.2015 13.769 22.3363 13.769 22.3363Z" fill="#ABA394"/>
<path d="M11.4836 23.7202C11.4836 23.7202 11.5999 23.641 11.7753 23.5249C11.9496 23.4103 12.1794 23.2619 12.409 23.1183C12.6384 22.9747 12.8725 22.8349 13.0538 22.7316C13.2353 22.6281 13.3587 22.5599 13.3587 22.5599C13.3587 22.5599 13.368 22.4269 13.3793 22.2245C13.3855 22.0709 13.3903 21.8771 13.392 21.6711C13.3945 21.3616 13.3945 21.0292 13.3945 20.7744C13.3945 20.5195 13.3945 20.3423 13.3945 20.3423L11.4536 21.4628V21.8131C11.4536 21.8131 11.4537 22.3034 11.4585 22.5851C11.4667 22.8691 11.4741 23.1533 11.4772 23.3671C11.4803 23.5786 11.4836 23.7202 11.4836 23.7202Z" fill="#ABA394"/>
<path d="M14.1653 20.9971V17.8561C14.1653 17.5135 14.1397 17.1676 14.2549 16.8379C14.3862 16.4536 14.6456 16.0758 15.0041 15.8677C16.3233 15.1025 17.6489 14.3404 18.9713 13.5784C18.9713 15.1633 18.9649 17.4494 18.9521 18.9063C18.9489 19.425 18.9617 19.9501 18.9873 20.4624L18.3117 20.8531C17.7322 21.1861 17.1558 21.5222 16.5763 21.8552C16.5346 21.8776 16.493 21.9032 16.4514 21.9289L15.6893 22.3675C15.6765 22.3739 15.6669 22.3771 15.6541 22.3835C15.6349 22.3931 15.6189 22.3996 15.5997 22.4092C15.5485 22.4316 15.5005 22.4508 15.4524 22.4604C15.4332 22.4636 15.414 22.47 15.3947 22.4732C15.3563 22.4797 15.3211 22.4797 15.2859 22.4764H15.2795H15.2763C15.2027 22.47 15.1322 22.4476 15.0746 22.4092C14.9881 22.3643 14.9049 22.3099 14.8249 22.2651C14.6807 22.1818 14.495 22.1018 14.367 21.9961C14.098 21.772 14.1653 21.3142 14.1653 20.9971Z" fill="#E6D4B8"/>
<path d="M18.1306 14.2974C19.6445 13.4234 21.1584 12.5494 22.6722 11.6754C22.8726 11.5597 23.0701 11.4344 23.2752 11.3273C23.6412 11.1362 23.8531 11.2653 24.1764 11.4519C24.5211 11.6509 24.7836 11.7588 24.8034 12.2037C24.8398 13.0221 24.8034 13.8503 24.8034 14.6694C24.8034 15.5462 24.9863 16.6498 24.4273 17.3973C24.0047 17.9625 23.1578 18.2899 22.5654 18.6319C21.6121 19.1822 20.6589 19.7326 19.7056 20.2829C19.4298 20.4421 19.156 20.6056 18.8778 20.7608C18.7324 20.842 18.5793 20.9222 18.4071 20.9047C18.243 20.888 18.0928 20.7726 17.953 20.6918C17.8093 20.6088 17.6238 20.53 17.4955 20.4241C17.2252 20.2009 17.2936 19.7416 17.2936 19.4245C17.2936 18.9149 17.2936 18.4054 17.2936 17.8958C17.2936 17.3584 17.2936 16.8208 17.2936 16.2833C17.2936 15.9403 17.2683 15.5967 17.3815 15.2668C17.5129 14.883 17.7741 14.5033 18.1306 14.2974Z" fill="url(#paint14_linear_640_12844)"/>
<path d="M17.2935 18.8212C17.0805 19.653 15.8064 20.4225 14.6702 20.3423C14.6702 20.3423 18.2099 21.0493 17.9795 18.8212H17.2935Z" fill="url(#paint15_linear_640_12844)"/>
<path d="M17.9796 18.71C17.9796 19.1204 16.9461 20.633 14.6703 20.3422C14.6703 20.3422 16.1361 22.0522 18.5497 20.8967C20.9632 19.7411 17.9796 18.71 17.9796 18.71Z" fill="url(#paint16_linear_640_12844)"/>
<path d="M18.817 20.7961L23.9666 17.8231C24.4289 17.5561 24.8037 16.907 24.8037 16.3732L24.8037 12.2037C24.8037 11.6699 24.4289 11.4535 23.9665 11.7204L18.8169 14.6935C18.3546 14.9604 17.9798 15.6095 17.9798 16.1434L17.9798 20.3128C17.9799 20.8467 18.3547 21.0631 18.817 20.7961Z" fill="url(#paint17_linear_640_12844)"/>
<path d="M20.7496 17.7574C20.0634 17.4973 20.2951 16.6281 20.5876 16.1452C20.7574 15.865 21.0009 15.5898 21.3073 15.457C21.6403 15.3129 21.8587 15.4664 22.138 15.6297C22.4243 15.7971 22.5859 15.9502 22.5888 16.3096C22.5915 16.6363 22.4671 16.9659 22.2999 17.2418C21.9582 17.806 21.3453 18.244 20.7496 17.7574Z" fill="#F5B41D"/>
<path d="M18.6771 18.1021C18.6771 17.6794 18.9824 17.1278 19.3987 16.9823C19.757 16.8571 20.2347 17.2042 20.2401 17.5781C20.246 17.9827 19.9762 18.4517 19.6224 18.6479C19.2581 18.8501 18.6772 18.5292 18.6771 18.1021Z" fill="#F5B41D"/>
<path d="M22.7426 15.7548C22.7426 15.3321 23.0478 14.7806 23.4641 14.6351C23.8224 14.5098 24.3001 14.8569 24.3056 15.2308C24.3114 15.6353 24.0416 16.1043 23.6879 16.3007C23.3235 16.5029 22.7426 16.1819 22.7426 15.7548Z" fill="#F5B41D"/>
<path d="M24.6738 11.7639C24.611 11.6335 24.4509 11.5936 24.3166 11.6066C24.1778 11.617 24.0451 11.6629 23.9179 11.7155C23.664 11.8249 23.4377 11.9887 23.2114 12.1381C22.7501 12.4297 22.2725 12.6983 21.7971 12.9688C20.8554 13.5267 19.8957 14.0534 18.9546 14.6135C19.9293 14.1137 20.8807 13.5716 21.837 13.038C22.3086 12.7594 22.7812 12.4833 23.2407 12.1824C23.4678 12.0266 23.6857 11.8645 23.934 11.7511C24.0561 11.6935 24.184 11.6425 24.3184 11.626C24.4484 11.6077 24.6043 11.6372 24.6738 11.7639Z" fill="#FFEE2E"/>
<path d="M20.9371 17.4607C20.2509 17.2006 20.4825 16.3314 20.7751 15.8485C20.9449 15.5683 21.1884 15.2931 21.4948 15.1604C21.8278 15.0163 22.0462 15.1698 22.3254 15.3331C22.6118 15.5004 22.7734 15.6535 22.7763 16.0129C22.779 16.3396 22.6546 16.6692 22.4874 16.9452C22.1457 17.5092 21.5327 17.9472 20.9371 17.4607Z" fill="url(#paint18_linear_640_12844)"/>
<path d="M20.9663 17.0579C20.9663 17.635 21.3715 17.869 21.8713 17.5804C22.3711 17.2919 22.7764 16.5901 22.7764 16.0129C22.7763 15.4358 22.3711 15.2019 21.8713 15.4904C21.3714 15.7789 20.9663 16.4807 20.9663 17.0579Z" fill="url(#paint19_linear_640_12844)"/>
<path d="M18.8637 17.8054C18.8637 17.3827 19.1689 16.831 19.5852 16.6856C19.9435 16.5604 20.4213 16.9074 20.4267 17.2813C20.4325 17.6859 20.1627 18.1549 19.809 18.3511C19.4446 18.5534 18.8637 18.2325 18.8637 17.8054Z" fill="url(#paint20_linear_640_12844)"/>
<path d="M19.1914 17.9945C19.1914 18.3884 19.468 18.5481 19.8091 18.3512C20.1502 18.1542 20.4268 17.6752 20.4268 17.2813C20.4268 16.8874 20.1502 16.7278 19.8091 16.9247C19.4679 17.1216 19.1914 17.6006 19.1914 17.9945Z" fill="url(#paint21_linear_640_12844)"/>
<path d="M22.9301 15.4581C22.9301 15.0354 23.2353 14.4837 23.6516 14.3383C24.0099 14.2131 24.4876 14.5601 24.4931 14.934C24.4989 15.3386 24.2292 15.8076 23.8754 16.0039C23.511 16.2061 22.9301 15.8852 22.9301 15.4581Z" fill="url(#paint22_linear_640_12844)"/>
<path d="M23.2578 15.6473C23.2578 16.0412 23.5343 16.2009 23.8755 16.0039C24.2166 15.8069 24.4932 15.328 24.4932 14.934C24.4931 14.5401 24.2166 14.3805 23.8755 14.5774C23.5343 14.7743 23.2578 15.2534 23.2578 15.6473Z" fill="url(#paint23_linear_640_12844)"/>
<path d="M24.3721 14.581C24.328 14.5128 24.2467 14.4663 24.1607 14.4583C24.0744 14.448 23.9901 14.4728 23.9131 14.5038C23.7626 14.5772 23.6398 14.6982 23.5711 14.8447C23.6922 14.7392 23.807 14.6353 23.9463 14.5766C24.0796 14.5108 24.2366 14.4889 24.3721 14.581Z" fill="#DEC7AA"/>
<path d="M22.6104 15.506C22.5462 15.4073 22.4293 15.3432 22.3074 15.3324C22.1852 15.3174 22.0632 15.3482 21.9527 15.3941C21.8443 15.4463 21.7456 15.5147 21.6596 15.5954C21.5716 15.6744 21.5022 15.7702 21.4386 15.8672C21.6105 15.7113 21.7803 15.5564 21.9852 15.4671C22.1814 15.3743 22.4305 15.3494 22.6104 15.506Z" fill="#DEC7AA"/>
<path d="M20.3789 17.0344C20.3638 16.9537 20.3101 16.8751 20.2293 16.8343C20.1493 16.7907 20.0546 16.7927 19.9702 16.8087C19.8007 16.8526 19.6623 16.9671 19.5793 17.1091C19.7109 17.0121 19.8393 16.9167 19.9881 16.8866C20.133 16.8441 20.2904 16.8913 20.3789 17.0344Z" fill="#DEC7AA"/>
<defs>
<linearGradient id="paint0_linear_640_12844" x1="18.3043" y1="6.66032" x2="7.51712" y2="12.4015" gradientUnits="userSpaceOnUse">
<stop stop-color="#FF4036"/>
<stop offset="1" stop-color="#F53429"/>
</linearGradient>
<linearGradient id="paint1_linear_640_12844" x1="19.5874" y1="7.75419" x2="8.52566" y2="16.0193" gradientUnits="userSpaceOnUse">
<stop stop-color="#D42E1E"/>
<stop offset="1" stop-color="#C42413"/>
</linearGradient>
<linearGradient id="paint2_linear_640_12844" x1="8.01477" y1="13.9692" x2="5.24313" y2="15.1757" gradientUnits="userSpaceOnUse">
<stop stop-color="#B51D0E"/>
<stop offset="1" stop-color="#A51506"/>
</linearGradient>
<linearGradient id="paint3_linear_640_12844" x1="4.70423" y1="25.1714" x2="7.60367" y2="22.7824" gradientUnits="userSpaceOnUse">
<stop stop-color="#C9BDA1"/>
<stop offset="1" stop-color="#AA9D7A"/>
</linearGradient>
<linearGradient id="paint4_linear_640_12844" x1="5.71086" y1="17.7765" x2="9.23844" y2="30.1829" gradientUnits="userSpaceOnUse">
<stop stop-color="#CCC1A7"/>
<stop offset="1" stop-color="#E3DABF"/>
</linearGradient>
<linearGradient id="paint5_linear_640_12844" x1="13.0179" y1="23.2453" x2="11.2989" y2="31.9389" gradientUnits="userSpaceOnUse">
<stop stop-color="#E8DFCA"/>
<stop offset="1" stop-color="#FFF8E3"/>
</linearGradient>
<linearGradient id="paint6_linear_640_12844" x1="18.2983" y1="4.86645" x2="8.58494" y2="12.8319" gradientUnits="userSpaceOnUse">
<stop stop-color="#D42E1E"/>
<stop offset="1" stop-color="#C42413"/>
</linearGradient>
<linearGradient id="paint7_linear_640_12844" x1="8.23716" y1="10.3631" x2="6.08508" y2="12.2869" gradientUnits="userSpaceOnUse">
<stop stop-color="#B51D0E"/>
<stop offset="1" stop-color="#A51506"/>
</linearGradient>
<linearGradient id="paint8_linear_640_12844" x1="17.0997" y1="4.21976" x2="6.46952" y2="10.0731" gradientUnits="userSpaceOnUse">
<stop stop-color="#FF4036"/>
<stop offset="1" stop-color="#F53429"/>
</linearGradient>
<linearGradient id="paint9_linear_640_12844" x1="13.4204" y1="7.46788" x2="13.3403" y2="7.3291" gradientUnits="userSpaceOnUse">
<stop offset="0.0128" stop-color="#FF4036"/>
<stop offset="0.5026" stop-color="#FF6254"/>
<stop offset="0.6542" stop-color="#FF5145"/>
<stop offset="0.8322" stop-color="#FF443A"/>
<stop offset="1" stop-color="#FF4036"/>
</linearGradient>
<linearGradient id="paint10_linear_640_12844" x1="13.8731" y1="10.6924" x2="13.7923" y2="10.5524" gradientUnits="userSpaceOnUse">
<stop offset="0.0128" stop-color="#FF4036"/>
<stop offset="0.5026" stop-color="#FF6254"/>
<stop offset="0.6542" stop-color="#FF5145"/>
<stop offset="0.8322" stop-color="#FF443A"/>
<stop offset="1" stop-color="#FF4036"/>
</linearGradient>
<linearGradient id="paint11_linear_640_12844" x1="13.4111" y1="13.7326" x2="13.6736" y2="14.1893" gradientUnits="userSpaceOnUse">
<stop stop-color="#C9AFAD"/>
<stop offset="0.0954" stop-color="#D2BDBB"/>
<stop offset="0.33" stop-color="#E6DAD9"/>
<stop offset="0.5618" stop-color="#F4EEEE"/>
<stop offset="0.7875" stop-color="#FCFBFB"/>
<stop offset="1" stop-color="white"/>
</linearGradient>
<linearGradient id="paint12_linear_640_12844" x1="13.3869" y1="10.375" x2="13.5152" y2="10.5982" gradientUnits="userSpaceOnUse">
<stop stop-color="#C9AFAD"/>
<stop offset="0.0954" stop-color="#D2BDBB"/>
<stop offset="0.33" stop-color="#E6DAD9"/>
<stop offset="0.5618" stop-color="#F4EEEE"/>
<stop offset="0.7875" stop-color="#FCFBFB"/>
<stop offset="1" stop-color="white"/>
</linearGradient>
<linearGradient id="paint13_linear_640_12844" x1="7.18212" y1="12.7797" x2="7.06284" y2="12.9872" gradientUnits="userSpaceOnUse">
<stop stop-color="#C9AFAD"/>
<stop offset="0.0954" stop-color="#D2BDBB"/>
<stop offset="0.33" stop-color="#E6DAD9"/>
<stop offset="0.5618" stop-color="#F4EEEE"/>
<stop offset="0.7875" stop-color="#FCFBFB"/>
<stop offset="1" stop-color="white"/>
</linearGradient>
<linearGradient id="paint14_linear_640_12844" x1="21.0163" y1="16.1117" x2="20.2575" y2="17.428" gradientUnits="userSpaceOnUse">
<stop stop-color="#FFD52E"/>
<stop offset="1" stop-color="#F5B41D"/>
</linearGradient>
<linearGradient id="paint15_linear_640_12844" x1="14.2456" y1="20.868" x2="17.4838" y2="19.4123" gradientUnits="userSpaceOnUse">
<stop stop-color="#FFD52E"/>
<stop offset="1" stop-color="#F5B41D"/>
</linearGradient>
<linearGradient id="paint16_linear_640_12844" x1="17.9177" y1="19.9868" x2="15.2281" y2="20.0902" gradientUnits="userSpaceOnUse">
<stop stop-color="#FFD52E"/>
<stop offset="1" stop-color="#F5B41D"/>
</linearGradient>
<linearGradient id="paint17_linear_640_12844" x1="18.4359" y1="20.2511" x2="29.829" y2="4.86127" gradientUnits="userSpaceOnUse">
<stop stop-color="#CF9F0C"/>
<stop offset="1" stop-color="#F5B41D"/>
</linearGradient>
<linearGradient id="paint18_linear_640_12844" x1="22.1981" y1="15.4084" x2="21.0448" y2="17.4196" gradientUnits="userSpaceOnUse">
<stop stop-color="#967939"/>
<stop offset="1" stop-color="#6E4F23"/>
</linearGradient>
<linearGradient id="paint19_linear_640_12844" x1="22.4429" y1="15.5385" x2="21.2866" y2="17.5549" gradientUnits="userSpaceOnUse">
<stop stop-color="#AF9251"/>
<stop offset="1" stop-color="#876636"/>
</linearGradient>
<linearGradient id="paint20_linear_640_12844" x1="20.0464" y1="16.8442" x2="19.2389" y2="18.2526" gradientUnits="userSpaceOnUse">
<stop stop-color="#967939"/>
<stop offset="1" stop-color="#6E4F23"/>
</linearGradient>
<linearGradient id="paint21_linear_640_12844" x1="20.1992" y1="16.9575" x2="19.41" y2="18.3338" gradientUnits="userSpaceOnUse">
<stop stop-color="#AF9251"/>
<stop offset="1" stop-color="#876636"/>
</linearGradient>
<linearGradient id="paint22_linear_640_12844" x1="24.1128" y1="14.4969" x2="23.3053" y2="15.9053" gradientUnits="userSpaceOnUse">
<stop stop-color="#967939"/>
<stop offset="1" stop-color="#6E4F23"/>
</linearGradient>
<linearGradient id="paint23_linear_640_12844" x1="24.2656" y1="14.6102" x2="23.4764" y2="15.9865" gradientUnits="userSpaceOnUse">
<stop stop-color="#AF9251"/>
<stop offset="1" stop-color="#876636"/>
</linearGradient>
</defs>
</svg>
