<svg width="20" height="20" viewBox="0 0 20 20" fill="none" xmlns="http://www.w3.org/2000/svg">
<g clip-path="url(#clip0_612_2640)">
<path d="M9.99536 18.3246C14.5955 18.3246 18.3247 14.5954 18.3247 9.99524C18.3247 5.39507 14.5955 1.66589 9.99536 1.66589C5.39519 1.66589 1.66602 5.39507 1.66602 9.99524C1.66602 14.5954 5.39519 18.3246 9.99536 18.3246Z" stroke="#333333" stroke-width="1.66587" stroke-linecap="round" stroke-linejoin="round"/>
<path d="M9.99566 14.9928C12.7558 14.9928 14.9933 12.7553 14.9933 9.99517C14.9933 7.23506 12.7558 4.99756 9.99566 4.99756C7.23555 4.99756 4.99805 7.23506 4.99805 9.99517C4.99805 12.7553 7.23555 14.9928 9.99566 14.9928Z" stroke="#333333" stroke-width="1.66587" stroke-linecap="round" stroke-linejoin="round"/>
<path d="M9.99595 11.6608C10.916 11.6608 11.6618 10.915 11.6618 9.99497C11.6618 9.07494 10.916 8.3291 9.99595 8.3291C9.07591 8.3291 8.33008 9.07494 8.33008 9.99497C8.33008 10.915 9.07591 11.6608 9.99595 11.6608Z" stroke="#333333" stroke-width="1.66587" stroke-linecap="round" stroke-linejoin="round"/>
</g>
<defs>
<clipPath id="clip0_612_2640">
<rect width="19.9904" height="19.9904" fill="white"/>
</clipPath>
</defs>
</svg>
