<svg width="24" height="17" viewBox="0 0 24 17" fill="none" xmlns="http://www.w3.org/2000/svg">
<path d="M23.6118 6.31279C23.7329 5.69909 23.4791 4.98268 22.8971 4.29555C22.337 3.63418 21.5087 3.04055 20.5648 2.62405C19.8144 2.2929 19.3232 1.81569 18.8481 1.35415C18.163 0.688599 17.5159 0.0599893 16.2441 0.0037371C14.7308 -0.0630179 14.0541 0.780098 13.7852 1.28873C13.5164 1.79735 12.9844 2.13732 12.3976 2.17461C12.3292 2.17895 12.2605 2.17954 12.1919 2.17639C11.6129 2.14946 10.552 2.48199 8.78712 4.21874C8.48704 4.5141 7.97166 4.78393 7.42518 4.65456C6.75636 4.49661 6.2208 3.78073 5.91729 2.63882C5.89709 2.56201 5.86781 2.4874 5.82997 2.41631C5.60678 2.00029 5.19371 1.26785 4.92175 1.01143C4.84054 0.526651 4.77824 0.359719 4.5745 0.328967C4.52112 0.320779 4.43178 0.307339 4.12828 0.466082C4.03155 0.513191 3.94132 0.570572 3.85949 0.63702C3.84294 0.638132 3.82482 0.6392 3.80846 0.640135C3.60614 0.651884 3.26756 0.671287 2.91253 0.84485C2.70423 0.946495 2.12161 0.952993 1.39225 0.86185C1.12394 0.826001 0.849944 0.861924 0.603728 0.965231C0.35189 1.07329 0.193059 1.22335 0.131594 1.41133C0.0888517 1.55269 0.0988934 1.70294 0.160147 1.83856C0.104599 1.88621 0.0615207 1.94458 0.0340836 2.00936C0.00664646 2.07414 -0.00445042 2.14369 0.0016101 2.21288C0.0249719 2.46655 0.266328 2.70687 0.498281 2.70736C0.715374 2.70906 0.932371 2.69843 1.148 2.67554C1.34976 2.65599 1.55378 2.67713 1.74552 2.73744C1.95912 2.80921 2.17754 2.86852 2.39945 2.91501C2.46023 2.92836 3.89059 3.25964 4.15918 5.20733C4.2946 6.18925 5.21384 6.98666 6.81758 7.51345C8.03558 7.91349 9.29188 8.04024 9.61106 8.02608C9.6806 8.02306 9.80628 8.03792 10.0105 8.1272C10.2431 8.23156 10.4505 8.37685 10.6208 8.55461C10.7911 8.73238 10.9209 8.9391 11.0026 9.16279C11.5018 10.5041 12.1535 12.1737 12.4233 12.5101C12.6108 12.7437 12.6241 14.2909 12.5306 15.6386C12.4284 15.6944 12.2727 15.7831 12.1189 15.8859C11.7325 16.144 11.5588 16.3537 11.5671 16.555H7.42832C7.36337 16.555 7.30108 16.5784 7.25516 16.6201C7.20923 16.6619 7.18343 16.7185 7.18343 16.7775C7.18343 16.8365 7.20923 16.8931 7.25516 16.9348C7.30108 16.9766 7.36337 17 7.42832 17H21.6805C21.7454 17 21.8077 16.9766 21.8537 16.9348C21.8996 16.8931 21.9254 16.8365 21.9254 16.7775C21.9254 16.7185 21.8996 16.6619 21.8537 16.6201C21.8077 16.5784 21.7454 16.555 21.6805 16.555H21.29C21.2993 16.5338 21.3079 16.5122 21.315 16.4899L21.8719 14.6475C21.9446 14.533 22.2382 14.063 22.4977 13.5375C23.0704 12.3779 22.9478 12.0085 22.8058 11.8314C22.7299 11.7368 22.6214 11.2542 22.6338 10.3123C22.6366 9.968 22.6589 9.6241 22.7006 9.28192C22.9465 9.93123 23.169 10.7509 23.1718 10.7613C23.1837 10.8055 23.2103 10.8453 23.2479 10.8753C23.2855 10.9054 23.3324 10.9242 23.3821 10.9294C23.4319 10.9345 23.4822 10.9256 23.5262 10.9039C23.5703 10.8822 23.606 10.8488 23.6284 10.8081C23.6604 10.7503 24.4006 9.38228 23.6988 8.15683C23.6608 8.05043 23.4167 7.30197 23.6118 6.31279ZM19.5349 2.56192C19.7886 2.74126 20.062 2.89623 20.3508 3.02436C20.3812 3.03771 20.4111 3.05177 20.4411 3.06557V4.02995H18.9592L19.5349 2.56192ZM18.7574 1.91489C18.8768 2.02761 19.0023 2.14145 19.1359 2.25369L18.4747 3.9397L17.5321 1.9148L18.7574 1.91489ZM14.8518 1.91489H16.6138L15.7094 3.87869L14.8518 1.91489ZM15.2485 4.02995H13.1821L14.3999 2.08658L15.2485 4.02995ZM17.0729 2.07087L17.9848 4.02995H16.1707L17.0729 2.07087ZM16.2203 0.448281C16.5559 0.4593 16.8854 0.532729 17.1886 0.664033H15.0517C15.3503 0.516282 15.732 0.426519 16.2203 0.448281ZM14.4791 1.10907H17.8936C18.0302 1.22113 18.1622 1.34271 18.2952 1.46985H14.233C14.3009 1.34213 14.3834 1.22121 14.4791 1.10907ZM12.4246 2.61884C12.427 2.61884 12.4295 2.61884 12.4318 2.61857C12.719 2.59811 12.9987 2.52524 13.2543 2.40434C13.5098 2.28343 13.7359 2.11697 13.919 1.91489H13.9439L12.6185 4.02995H12.4622C12.4523 4.02998 12.4427 4.02641 12.4357 4.02005C12.4286 4.01368 12.4246 4.00503 12.4246 3.996V2.61884ZM11.5358 2.7532C11.6635 2.70073 11.7974 2.66176 11.9348 2.63704V3.996C11.935 4.12302 11.9906 4.2448 12.0895 4.33459C12.1884 4.42439 12.3224 4.47488 12.4622 4.47499H20.464C20.5877 4.47488 20.7064 4.43017 20.7939 4.35067C20.8815 4.27117 20.9307 4.16337 20.9309 4.05091V3.31305C21.0865 3.39947 21.2366 3.49062 21.3812 3.58648V4.76435C21.3812 4.7881 21.3707 4.81086 21.3522 4.82763C21.3337 4.8444 21.3086 4.85381 21.2825 4.8538H11.6367C11.61 4.8538 11.5845 4.84419 11.5656 4.82707C11.5467 4.80995 11.536 4.78672 11.5359 4.76248L11.5358 2.7532ZM2.50799 2.48119C2.30833 2.43902 2.11175 2.38562 1.91939 2.32129C1.6558 2.23646 1.37467 2.20626 1.09658 2.23291C0.912567 2.25257 0.727443 2.26237 0.542164 2.26228C0.513163 2.23804 0.494647 2.20518 0.489955 2.16962C0.491572 2.16166 0.542605 2.11177 0.728765 2.0828C0.760605 2.07801 0.791089 2.06754 0.818463 2.052C0.845836 2.03647 0.86956 2.01617 0.888271 1.99227C0.906981 1.96838 0.920308 1.94136 0.927487 1.91277C0.934665 1.88417 0.935552 1.85457 0.930098 1.82567C0.924643 1.79676 0.912955 1.76912 0.895704 1.74434C0.878453 1.71955 0.85598 1.69811 0.829578 1.68124C0.803176 1.66438 0.773364 1.65242 0.741858 1.64606C0.710353 1.6397 0.677774 1.63906 0.645995 1.64417C0.632575 1.64627 0.619841 1.64862 0.606813 1.65094C0.593357 1.61448 0.591373 1.57533 0.601083 1.5379C0.62611 1.4614 0.730087 1.40301 0.812858 1.36745C0.973222 1.30108 1.15137 1.27853 1.32559 1.30257C1.93716 1.37898 2.74915 1.42962 3.14439 1.2367C3.40533 1.10938 3.66672 1.09429 3.83985 1.08423C3.97307 1.07653 4.13528 1.06714 4.21208 0.947118C4.26913 0.90805 4.32929 0.872871 4.39206 0.841868C4.40607 0.90355 4.42204 0.983923 4.43908 1.08615C4.45341 1.17361 4.49801 1.25467 4.56642 1.31756C4.66558 1.42214 4.75314 1.53535 4.82781 1.65557L3.41322 2.91501C2.95617 2.57941 2.54374 2.48854 2.50799 2.48119ZM4.12539 3.67526C4.0223 3.51439 3.90227 3.36299 3.76698 3.2232L5.07793 2.0561C5.16682 2.20638 5.26106 2.37332 5.3571 2.55102L4.12539 3.67526ZM18.9382 16.0605C18.8928 16.1356 18.8662 16.2189 18.8604 16.3045C18.8546 16.39 18.8696 16.4757 18.9046 16.5553H14.0619C14.0651 16.5082 14.0631 16.461 14.0559 16.4142C14.0546 16.4044 14.053 16.3926 14.0521 16.3825C14.288 16.1288 14.1097 15.4537 14.0879 15.3752C13.9742 14.9655 13.6721 13.8771 13.8822 13.0729C14.0438 12.4543 13.6075 10.5436 13.1916 8.97952C13.6302 9.03362 14.0723 9.06074 14.5149 9.0607C16.1132 9.0538 17.6904 8.72862 19.1355 8.10806C19.3862 8.57129 19.7589 9.10493 20.2571 9.71378C20.2886 9.75228 20.3128 9.78178 20.3279 9.80105C20.4316 9.9861 20.7488 11.3883 21.0004 12.6593C20.9735 12.8113 20.8637 13.4162 20.7091 14.0434C20.4035 15.2828 20.193 15.527 20.1422 15.5701C19.494 15.6376 19.1001 15.7981 18.9382 16.0604V16.0605ZM23.4342 9.93029C23.302 9.50698 23.1249 8.99052 22.9546 8.64619C22.8695 8.47423 22.7471 8.43507 22.6594 8.43258C22.6031 8.43071 22.4643 8.44433 22.3719 8.60303C22.1656 8.95758 22.1453 10.1846 22.1437 10.3233C22.1361 10.9703 22.1761 11.8026 22.4098 12.0939C22.4164 12.1022 22.5669 12.3092 22.0522 13.3526C21.7708 13.9232 21.4361 14.4433 21.4328 14.4485C21.422 14.4652 21.4136 14.4832 21.4079 14.5019L20.8436 16.3691C20.8282 16.4174 20.7979 16.4606 20.7562 16.4936C20.7145 16.5266 20.6632 16.548 20.6085 16.5552L19.631 16.5528C19.622 16.5528 19.613 16.5532 19.6041 16.5541C19.5592 16.5588 19.5137 16.5507 19.474 16.5309C19.4343 16.5111 19.4024 16.4805 19.3828 16.4434C19.3283 16.3383 19.3563 16.293 19.3655 16.2781C19.3937 16.2323 19.5391 16.0776 20.2215 16.0098C20.5238 15.9797 20.7989 15.6695 21.1588 14.2531C21.3559 13.4778 21.4889 12.6621 21.4902 12.6543C21.2836 11.6074 20.9101 9.78005 20.7326 9.55023C20.7163 9.52918 20.688 9.49456 20.6502 9.44828C19.5067 8.05007 19.2292 7.29093 19.2379 6.88155C19.2396 6.83188 19.2228 6.78315 19.1901 6.74329C19.1575 6.70343 19.1109 6.6748 19.0581 6.66206L19.0483 6.65974C19.0134 6.65156 18.9768 6.65066 18.9415 6.6571C18.9061 6.66354 18.8728 6.67716 18.844 6.69695C18.8152 6.71673 18.7917 6.74216 18.7753 6.77134C18.7589 6.80053 18.7499 6.83271 18.7491 6.86548C18.7435 7.10518 18.8066 7.38291 18.9382 7.69867C18.2603 7.99578 15.8723 8.91432 13.0657 8.51335C12.829 7.65132 12.6208 6.96463 12.5641 6.77941C12.5549 6.74948 12.539 6.72163 12.5172 6.69764C12.4955 6.67366 12.4685 6.65407 12.4379 6.64015C12.4074 6.62623 12.3739 6.61828 12.3398 6.61681C12.3056 6.61534 12.2715 6.62038 12.2396 6.63162C12.1823 6.65335 12.1358 6.69358 12.1091 6.74455C12.0824 6.79553 12.0774 6.85367 12.095 6.9078C12.7238 8.96261 13.5898 12.266 13.4059 12.97C13.168 13.8803 13.4914 15.0454 13.6131 15.484C13.6598 15.6519 13.7039 15.9971 13.6719 16.1C13.5387 16.2284 13.5585 16.3818 13.5694 16.4661C13.5705 16.4747 13.5719 16.4855 13.5729 16.4953C13.5013 16.5247 13.241 16.5848 12.3422 16.5373C12.2564 16.5347 12.1712 16.5237 12.088 16.5045C12.1961 16.3754 12.5379 16.1417 12.8841 15.9669C12.92 15.9489 12.9505 15.923 12.9726 15.8916C12.9948 15.8602 13.0079 15.8242 13.0108 15.787C13.0637 15.0794 13.2064 12.7309 12.8191 12.248C12.6423 12.0277 12.1366 10.821 11.4665 9.02033C11.3637 8.74054 11.2008 8.48207 10.9873 8.25991C10.7737 8.03776 10.5138 7.85634 10.2225 7.72618C9.98063 7.62048 9.77282 7.57295 9.58637 7.58167C9.37842 7.5908 8.19686 7.49347 6.98381 7.09503C5.99419 6.77016 4.78505 6.169 4.64483 5.1521C4.59843 4.79072 4.5003 4.43639 4.35293 4.09809L5.52445 3.02903C5.98292 4.48126 6.73515 4.95135 7.3023 5.08508C7.93459 5.23439 8.64156 5.01806 9.14725 4.52042C9.84458 3.83418 10.4935 3.31603 11.0461 2.9953V4.76208C11.0462 4.90439 11.1085 5.04085 11.2192 5.14148C11.3299 5.24212 11.4801 5.29871 11.6367 5.29883H11.6718V5.58C11.6718 5.63902 11.6976 5.69562 11.7436 5.73735C11.7895 5.77908 11.8518 5.80252 11.9167 5.80252C11.9817 5.80252 12.044 5.77908 12.0899 5.73735C12.1358 5.69562 12.1616 5.63902 12.1616 5.58V5.29883H12.9697V5.59447C12.9697 5.65348 12.9955 5.71008 13.0414 5.75181C13.0874 5.79354 13.1497 5.81698 13.2146 5.81698C13.2795 5.81698 13.3418 5.79354 13.3878 5.75181C13.4337 5.71008 13.4595 5.65348 13.4595 5.59447V5.29883H14.2676V5.59447C14.2676 5.65348 14.2934 5.71008 14.3393 5.75181C14.3852 5.79354 14.4475 5.81698 14.5125 5.81698C14.5774 5.81698 14.6397 5.79354 14.6856 5.75181C14.7316 5.71008 14.7574 5.65348 14.7574 5.59447V5.29883H15.5655V5.59447C15.5655 5.65348 15.5913 5.71008 15.6372 5.75181C15.6831 5.79354 15.7454 5.81698 15.8104 5.81698C15.8753 5.81698 15.9376 5.79354 15.9835 5.75181C16.0294 5.71008 16.0552 5.65348 16.0552 5.59447V5.29883H16.8634V5.59447C16.8634 5.65348 16.8892 5.71008 16.9351 5.75181C16.981 5.79354 17.0433 5.81698 17.1082 5.81698C17.1732 5.81698 17.2355 5.79354 17.2814 5.75181C17.3273 5.71008 17.3531 5.65348 17.3531 5.59447V5.29883H18.1612V5.59447C18.1612 5.65348 18.187 5.71008 18.233 5.75181C18.2789 5.79354 18.3412 5.81698 18.4061 5.81698C18.4711 5.81698 18.5334 5.79354 18.5793 5.75181C18.6252 5.71008 18.651 5.65348 18.651 5.59447V5.29883H19.4591V5.59447C19.4591 5.65348 19.4849 5.71008 19.5308 5.75181C19.5768 5.79354 19.639 5.81698 19.704 5.81698C19.7689 5.81698 19.8312 5.79354 19.8772 5.75181C19.9231 5.71008 19.9489 5.65348 19.9489 5.59447V5.29883H20.757V5.59447C20.757 5.65348 20.7828 5.71008 20.8287 5.75181C20.8746 5.79354 20.9369 5.81698 21.0019 5.81698C21.0668 5.81698 21.1291 5.79354 21.175 5.75181C21.221 5.71008 21.2468 5.65348 21.2468 5.59447V5.29883H21.281C21.437 5.29871 21.5866 5.24237 21.6969 5.14217C21.8073 5.04197 21.8694 4.90609 21.8696 4.76435V3.94678C22.1025 4.13552 22.316 4.34311 22.5076 4.56697C23.0042 5.15348 23.2247 5.7456 23.1283 6.23429C22.8942 7.42142 23.2263 8.28358 23.2406 8.31967C23.2446 8.32971 23.2493 8.33948 23.2548 8.34891C23.5723 8.88967 23.538 9.48597 23.4342 9.9302V9.93029Z" fill="#1A1C20"/>
</svg>
