<svg width="24" height="24" viewBox="0 0 24 24" fill="none" xmlns="http://www.w3.org/2000/svg">
<path d="M3.09277 4.84195L5.06927 3.69336L7.98729 7.82285L6.01084 8.97149L3.09277 4.84195Z" fill="#F80202"/>
<path d="M6.01063 8.97147L7.98713 7.82288C7.23996 8.56803 6.79639 9.76006 6.79193 11.3255L4.81543 12.4741C4.81985 10.9087 5.26341 9.71657 6.01063 8.97147Z" fill="#C70000"/>
<path d="M3.09245 4.84192L6.01052 8.97146C5.26335 9.71656 4.81978 10.9086 4.81532 12.4741L1.2002 10.3869C1.2072 7.90869 1.90872 6.02253 3.09245 4.84192Z" fill="#F80202"/>
<path d="M6.625 8.49825L8.60149 7.34961C8.3794 7.47868 8.17401 7.63679 7.98724 7.82275L6.01074 8.97134C6.19751 8.78539 6.40295 8.62732 6.625 8.49825Z" fill="#FF8F00"/>
<path d="M8.00865 3.57546L9.11567 8.17122C7.85937 7.91423 6.77764 8.2077 6.01084 8.97143L3.09277 4.84189C4.30266 3.63517 6.01746 3.16962 8.00865 3.57546Z" fill="#FF8F00"/>
<path d="M4.0625 4.09423L6.039 2.94564C7.13008 2.31161 8.47831 2.11985 9.98469 2.4269L8.0082 3.57554C6.50181 3.26844 5.15359 3.46015 4.0625 4.09423Z" fill="#FFB300"/>
<path d="M8.00879 3.57552L9.98524 2.42688L11.0923 7.02264L9.11581 8.17123L8.00879 3.57552Z" fill="#FF8F00"/>
<path d="M16.0511 5.92992L14.0753 7.07717C13.1193 6.16964 12.1021 5.38695 11.0441 4.77764C9.98613 4.16573 8.96378 3.77064 8.00781 3.57432L9.98359 2.42712C10.9421 2.6208 11.9619 3.01853 13.0199 3.62789C14.0779 4.2397 15.0977 5.0198 16.0511 5.92992Z" fill="#FFD54F"/>
<path d="M14.0748 7.07791L16.0512 5.92932L14.9218 9.23388L12.9453 10.3824L14.0748 7.07791Z" fill="#FFB300"/>
<path d="M11.0444 4.77722C12.1024 5.38806 13.1207 6.16898 14.0752 7.07786L12.9458 10.3824C12.3425 9.8093 11.7016 9.31749 11.0326 8.93123C10.3636 8.54498 9.72033 8.29538 9.11581 8.17115L8.00879 3.57544C8.96524 3.76979 9.98634 4.16637 11.0444 4.77722Z" fill="#FFB300"/>
<path d="M18.9678 14.0074L20.9443 12.8588C22.1191 15.401 22.8076 18.0898 22.8006 20.5679L20.8241 21.7166C20.8311 19.2383 20.1426 16.5496 18.9678 14.0074Z" fill="#59D45A"/>
<path d="M18.9674 14.0073C20.1422 16.5496 20.8307 19.2383 20.8237 21.7166L17.207 19.6284C17.2114 18.0629 16.776 16.3635 16.0371 14.7603L18.9674 14.0073Z" fill="#52BA52"/>
<path d="M16.0371 14.7602L18.0136 13.6117L20.9439 12.8586L18.9674 14.0073L16.0371 14.7602Z" fill="#52BA52"/>
<path d="M14.0752 7.07791L16.0516 5.92932C18.0386 7.82023 19.7452 10.2611 20.9443 12.8587L18.9678 14.0073C17.7687 11.4098 16.0621 8.96883 14.0752 7.07791Z" fill="#82FF83"/>
<path d="M14.0747 7.07788C16.0617 8.96879 17.7682 11.4097 18.9673 14.0073L16.0371 14.7603C15.2772 13.1151 14.2006 11.5755 12.9453 10.3824L14.0747 7.07788Z" fill="#67EA68"/>
<path d="M11.0351 17.1733C11.4152 17.3928 11.7595 17.4131 12.008 17.2687L11.469 17.582C11.2205 17.7264 10.8762 17.706 10.4961 17.4866C10.6578 17.3926 10.8734 17.2673 11.0351 17.1733Z" fill="#587380"/>
<path d="M9.67284 14.8128C9.67039 15.6806 10.2804 16.7372 11.0357 17.1733L10.4966 17.4865C9.74138 17.0504 9.13135 15.9939 9.1338 15.126C9.31346 15.0216 9.49312 14.9171 9.67284 14.8127C9.49317 14.9171 9.31351 15.0215 9.1338 15.126C9.13504 14.6944 9.28754 14.3904 9.53344 14.2476L10.0725 13.9343C9.82653 14.0772 9.67404 14.3812 9.67284 14.8128Z" fill="#587380"/>
<path d="M9.14355 13.5801L9.68259 13.2669C9.7196 13.2454 9.75815 13.2265 9.79813 13.2102L9.25909 13.5235C9.21911 13.5397 9.18056 13.5586 9.14355 13.5801Z" fill="#587380"/>
<path d="M9.5332 14.2476L10.0722 13.9344C10.3208 13.79 10.6648 13.8101 11.0444 14.0292L10.5053 14.3425C10.1257 14.1233 9.78175 14.1032 9.5332 14.2476Z" fill="#37474F"/>
<path d="M12.008 17.2686L11.4689 17.5818C11.7143 17.4392 11.8665 17.1359 11.8677 16.7048C11.8701 15.837 11.2601 14.7785 10.5049 14.3424L11.0439 14.0292C11.7992 14.4653 12.4092 15.5238 12.4067 16.3915C12.4056 16.8227 12.2534 17.126 12.008 17.2686Z" fill="#37474F"/>
<path d="M10.5055 14.3425C11.2608 14.7786 11.8708 15.837 11.8684 16.7049C11.8659 17.5727 11.2519 17.9226 10.4966 17.4866C9.74138 17.0505 9.13135 15.9939 9.1338 15.1261C9.13629 14.2582 9.75031 13.9065 10.5055 14.3425Z" fill="#37474F"/>
<path d="M12.3962 17.9357L11.8572 18.249C12.2007 18.0493 12.4135 17.6246 12.4152 17.0206C12.4171 16.3511 12.1616 15.6041 11.751 14.9623L12.29 14.649C12.7007 15.2908 12.9562 16.0378 12.9543 16.7074C12.9526 17.3114 12.7397 17.7361 12.3962 17.9357Z" fill="#7295A6"/>
<path d="M11.7507 14.9623C12.1614 15.6041 12.4169 16.3511 12.4149 17.0206C12.4115 18.2363 11.5525 18.7259 10.4945 18.115C9.43649 17.5042 8.58152 16.0251 8.58497 14.8094C8.58684 14.1398 8.84739 13.6907 9.2587 13.5235L10.5256 7.16785L11.7507 14.9623ZM10.4963 17.4866C11.2516 17.9226 11.8656 17.5728 11.8681 16.7049C11.8705 15.837 11.2605 14.7785 10.5053 14.3425C9.74998 13.9065 9.13601 14.2583 9.13352 15.1261C9.13107 15.9939 9.7411 17.0506 10.4963 17.4866Z" fill="#587380"/>
<path d="M10.5254 7.16786L11.0644 6.85461L12.2895 14.649L11.7505 14.9622L10.5254 7.16786Z" fill="#7295A6"/>
</svg>
