<svg width="30" height="30" viewBox="0 0 30 30" fill="none" xmlns="http://www.w3.org/2000/svg">
<path d="M12.6842 25.5566L1.5 19.0994L17.3133 9.9696L28.4975 16.4268L12.6842 25.5566Z" fill="#CF9F0C"/>
<path d="M23.7945 15.3371L19.2012 12.6852L19.716 12.3879L24.3093 15.0399L23.7945 15.3371Z" fill="#333333"/>
<path d="M22.9009 15.8529L18.3076 13.2009L18.8224 12.9037L23.4157 15.5556L22.9009 15.8529Z" fill="#333333"/>
<path d="M21.1002 15.8448L18.3213 14.2404L18.8361 13.9431L21.615 15.5476L21.1002 15.8448Z" fill="#333333"/>
<path d="M13.9695 14.9005L12.3213 13.949L12.7551 13.6985L14.4033 14.65L13.9695 14.9005Z" fill="#333333"/>
<path d="M17.9903 17.2219L15.9365 16.0361L16.3705 15.7856L18.4242 16.9714L17.9903 17.2219Z" fill="#333333"/>
<path d="M21.6049 19.3089L20.4004 18.6135L20.8343 18.363L22.0388 19.0584L21.6049 19.3089Z" fill="#333333"/>
<path d="M12.8973 15.5196L11.249 14.5681L11.6829 14.3175L13.3311 15.2691L12.8973 15.5196Z" fill="#333333"/>
<path d="M17.0991 17.9455L14.6826 16.5504L15.1165 16.2999L17.5329 17.695L17.0991 17.9455Z" fill="#333333"/>
<path d="M20.5328 19.9279L18.6709 18.8529L19.1048 18.6024L20.9667 19.6774L20.5328 19.9279Z" fill="#333333"/>
<path d="M11.3396 15.8585L10.1768 15.1872L10.6107 14.9366L11.7734 15.608L11.3396 15.8585Z" fill="#333333"/>
<path d="M15.8458 18.46L13.792 17.2743L14.2259 17.0238L16.2797 18.2095L15.8458 18.46Z" fill="#333333"/>
<path d="M19.4603 20.5471L18.2559 19.8517L18.6897 19.6012L19.8942 20.2966L19.4603 20.5471Z" fill="#333333"/>
<path d="M10.7527 16.7579L9.10449 15.8063L9.53835 15.5558L11.1866 16.5074L10.7527 16.7579Z" fill="#333333"/>
<path d="M15.6031 19.5582L11.8896 17.4143L12.3235 17.1638L16.037 19.3077L15.6031 19.5582Z" fill="#333333"/>
<path d="M18.3883 21.1662L16.5264 20.0912L16.9602 19.8407L18.8222 20.9157L18.3883 21.1662Z" fill="#333333"/>
<path d="M9.48579 17.2646L8.03223 16.4254L8.46609 16.1749L9.91965 17.0141L9.48579 17.2646Z" fill="#333333"/>
<path d="M13.7013 19.6984L11.6475 18.5126L12.0813 18.2621L14.1351 19.4479L13.7013 19.6984Z" fill="#333333"/>
<path d="M17.3158 21.7854L16.1113 21.09L16.5452 20.8395L17.7497 21.5349L17.3158 21.7854Z" fill="#333333"/>
<path d="M15.6901 22.7239L6.40625 17.3639L6.65009 17.2231L15.9338 22.5831L15.6901 22.7239Z" fill="#333333"/>
<path d="M15.0035 23.1201L5.71973 17.7601L5.96357 17.6194L15.2473 22.9793L15.0035 23.1201Z" fill="#333333"/>
<path d="M14.3179 23.5164L5.03418 18.1564L5.27802 18.0156L14.5618 23.3756L14.3179 23.5164Z" fill="#333333"/>
<path d="M10.7195 22.2313L4.34766 18.5525L4.5915 18.4117L10.9634 22.0905L10.7195 22.2313Z" fill="#333333"/>
<path d="M11.6066 24.0154C11.5933 24.0077 11.5837 23.998 11.5758 23.9865C11.5239 23.9077 11.6633 23.8558 12.1121 23.704C12.2032 23.6731 12.3178 23.634 12.4137 23.5989C12.3455 23.6062 12.2731 23.6152 12.2098 23.6226C11.6602 23.6884 11.3001 23.7249 11.1765 23.6034C11.0697 23.4916 11.2977 23.3488 11.5613 23.1841C11.6856 23.1061 11.9443 22.9441 11.9214 22.9009C11.9136 22.8943 11.8358 22.8515 11.2199 22.9347C10.9515 22.9699 10.6927 23.0322 10.4508 23.119L10.335 23.0117C10.5979 22.9177 10.8784 22.8504 11.1704 22.8114C11.6536 22.7463 11.992 22.7251 12.1108 22.8382C12.2254 22.9539 11.992 23.0998 11.7217 23.269C11.5927 23.3498 11.3526 23.5003 11.3689 23.5438L11.3695 23.5442C11.4418 23.586 11.9485 23.5254 12.1651 23.4993C12.5596 23.4519 12.7394 23.431 12.7943 23.5115C12.8498 23.5951 12.6905 23.6542 12.2219 23.8127C12.1597 23.8339 12.0843 23.8594 12.0132 23.8845C12.1133 23.8713 12.2249 23.8542 12.3262 23.8395C13.0609 23.7302 13.5157 23.6689 13.6346 23.7974C13.7257 23.8953 13.5888 24.0495 12.6242 24.4824L12.4903 24.3828C13.3963 23.9761 13.4397 23.8688 13.4385 23.8514C13.3444 23.8186 12.6936 23.9151 12.3805 23.9614C11.8968 24.0331 11.691 24.0634 11.6066 24.0154Z" fill="#333333"/>
<path d="M12.6861 26.7292L1.50195 20.272V19.098L12.6861 25.5552V26.7292Z" fill="#ECC180"/>
<path d="M12.6861 25.9056L1.50195 19.4483V19.2856L12.6861 25.7429V25.9056Z" fill="#CF9F0C"/>
<path d="M12.6861 26.2235L1.50195 19.7663V19.6036L12.6861 26.0608V26.2235Z" fill="#CF9F0C"/>
<path d="M12.6861 26.5415L1.50195 20.0843V19.9216L12.6861 26.3788V26.5415Z" fill="#CF9F0C"/>
<path d="M28.5003 17.5992L12.6865 26.7293V25.5553L28.5003 16.4252V17.5992Z" fill="#F0DDAF"/>
<path d="M11.2493 19.2464L5.19238 15.7495V8.75574L11.2493 12.2527V19.2464Z" fill="#A1292D"/>
<path d="M8.8042 17.835L7.63672 17.161V10.1672L8.8042 10.8412V17.835Z" fill="#F3AE00"/>
<path d="M11.249 19.2464L17.306 15.7495V8.75574L11.249 12.2527V19.2464Z" fill="#C12D32"/>
<path d="M13.6934 17.835L14.8608 17.161V10.1672L13.6934 10.8412V17.835Z" fill="#F08700"/>
<path d="M11.2493 12.2543L5.19238 8.75736L11.2491 5.2605L17.3061 8.75742L11.2493 12.2543Z" fill="#E05559"/>
<path d="M8.80414 10.843L7.63672 10.1689L13.6934 6.672L14.8609 7.34604L8.80414 10.843Z" fill="#F6D13A"/>
<path d="M14.8611 10.1689L13.6937 10.8429L7.63672 7.34592L8.8042 6.67188L14.8611 10.1689Z" fill="#F6D13A"/>
<path d="M16.1737 5.54303C13.3751 3.61061 11.2461 8.75915 11.2461 8.75915C14.718 10.4241 18.9799 7.47821 16.1737 5.54303ZM11.5634 8.49845C11.5634 8.49845 13.0673 4.85579 15.049 6.22913C17.0336 7.59455 14.0186 9.68267 11.5634 8.49845Z" fill="#F3AE00"/>
<path d="M13.3702 3.27143C9.96994 3.33593 11.2465 8.75903 11.2465 8.75903C15.0374 8.08439 16.7784 3.20483 13.3702 3.27143ZM11.352 8.36219C11.352 8.36219 10.4469 4.52657 12.8576 4.48505C15.266 4.43531 14.0367 7.89065 11.352 8.36219Z" fill="#F3AE00"/>
<path d="M11.247 8.75903C11.247 8.75903 9.118 3.61049 6.31948 5.54291C3.51328 7.47815 7.7752 10.424 11.247 8.75903ZM7.44412 6.22907C9.4258 4.85573 10.9297 8.49839 10.9297 8.49839C8.47456 9.68261 5.45956 7.59449 7.44412 6.22907Z" fill="#F3AE00"/>
<path d="M11.2469 8.75903C11.2469 8.75903 12.5235 3.33593 9.12326 3.27143C5.71508 3.20483 7.45604 8.08439 11.2469 8.75903ZM9.6359 4.48505C12.0465 4.52663 11.1414 8.36219 11.1414 8.36219C8.45672 7.89065 7.2275 4.43531 9.6359 4.48505Z" fill="#F3AE00"/>
<path d="M12.3063 11.1158C12.3063 11.1158 12.1752 10.3032 12.1752 9.71783C12.1752 9.13241 10.9297 8.80907 10.9297 8.80907L11.4817 8.58191C11.4817 8.58191 12.7273 8.90519 12.7273 9.49061C12.7273 10.076 12.8584 10.8887 12.8584 10.8887L12.3063 11.1158Z" fill="#F3AE00"/>
<path d="M10.1869 11.1158C10.1869 11.1158 10.3179 10.3032 10.3179 9.71783C10.3179 9.13241 11.5635 8.80907 11.5635 8.80907L11.0114 8.58191C11.0114 8.58191 9.76587 8.90519 9.76587 9.49061C9.76587 10.076 9.63477 10.8887 9.63477 10.8887L10.1869 11.1158Z" fill="#F3AE00"/>
</svg>
