<svg width="30" height="30" viewBox="0 0 30 30" fill="none" xmlns="http://www.w3.org/2000/svg">
<g clip-path="url(#clip0_640_13837)">
<path d="M30 15C29.9121 20.0156 29.0273 24.0527 26.502 26.502C24.0527 29.0273 20.0156 29.9121 15 30C9.98438 29.9121 5.94727 29.0273 3.49805 26.502C0.972656 24.0527 0.0878906 20.0156 0 15C0.0878906 9.98438 0.972656 5.94727 3.49805 3.49805C5.94727 0.972656 9.98438 0.0878906 15 0C20.0156 0.0878906 24.0527 0.972656 26.502 3.49805C29.0273 5.94727 29.9121 9.98438 30 15Z" fill="url(#paint0_linear_640_13837)"/>
<path d="M15 30C20.0156 29.9121 24.0527 29.0273 26.502 26.502C29.0273 24.0527 29.9121 20.0156 30 15C29.9121 9.98438 29.0273 5.94727 26.502 3.49805C24.0527 0.972656 20.0156 0.0878906 15 0C9.98438 0.0878906 5.94727 0.972656 3.49805 3.49805C0.972656 5.94727 0.0878906 9.98438 0 15C0.0878906 20.0156 0.972656 24.0527 3.49805 26.502C5.94727 29.0273 9.98438 29.9121 15 30Z" fill="url(#paint1_radial_640_13837)"/>
<path d="M0 15C0.0878906 20.0156 0.972656 24.0527 3.49805 26.502C5.94727 29.0273 9.98438 29.9121 15 30C20.0156 29.9121 24.0527 29.0273 26.502 26.502C29.0273 24.0527 29.9121 20.0156 30 15C29.9121 9.98438 29.0273 5.94727 26.502 3.49805C24.0527 0.972656 20.0156 0.0878906 15 0C9.98438 0.0878906 5.94727 0.972656 3.49805 3.49805C0.972656 5.94727 0.0878906 9.98438 0 15Z" fill="url(#paint2_radial_640_13837)"/>
<path d="M30 15C29.9121 20.0156 29.0273 24.0527 26.502 26.502C24.0527 29.0273 20.0156 29.9121 15 30C9.98438 29.9121 5.94727 29.0273 3.49805 26.502C0.972656 24.0527 0.0878906 20.0156 0 15C0.0878906 9.98438 0.972656 5.94727 3.49805 3.49805C5.94727 0.972656 9.98438 0.0878906 15 0C20.0156 0.0878906 24.0527 0.972656 26.502 3.49805C29.0273 5.94727 29.9121 9.98438 30 15Z" fill="url(#paint3_radial_640_13837)"/>
<path d="M15 30C20.0156 29.9121 24.0527 29.0273 26.502 26.502C29.0273 24.0527 29.9121 20.0156 30 15C29.9121 9.98438 29.0273 5.94727 26.502 3.49805C24.0527 0.972656 20.0156 0.0878906 15 0C9.98438 0.0878906 5.94727 0.972656 3.49805 3.49805C0.972656 5.94727 0.0878906 9.98438 0 15C0.0878906 20.0156 0.972656 24.0527 3.49805 26.502C5.94727 29.0273 9.98438 29.9121 15 30Z" fill="url(#paint4_radial_640_13837)"/>
<path d="M24.1465 13.7168C23.918 13.6758 23.707 13.5762 23.5312 13.4297C23.3613 13.2832 23.2266 13.0898 23.1504 12.8672C23.0449 12.5625 22.9219 12.2637 22.7812 11.9766C22.5762 11.5547 22.6172 11.0508 22.8867 10.6699C23.2441 10.1543 23.1855 9.45703 22.7402 9.01172L21.9785 8.26172C21.5332 7.81641 20.8359 7.75781 20.3203 8.11523C20.0977 8.26758 19.8398 8.34961 19.5762 8.34961C19.3828 8.34961 19.1895 8.30859 19.0078 8.2207C18.7207 8.08008 18.4219 7.95703 18.1172 7.85156C17.6719 7.69922 17.3496 7.31836 17.2676 6.85547C17.2148 6.54492 17.0508 6.28125 16.8223 6.08789C16.5938 5.90039 16.3066 5.7832 15.9902 5.7832H14.9238C14.2969 5.7832 13.7578 6.23438 13.6465 6.84961C13.6055 7.07813 13.5059 7.28906 13.3594 7.46484C13.2129 7.63477 13.0195 7.76953 12.7969 7.8457C12.4922 7.95117 12.1934 8.07422 11.9062 8.21484C11.4844 8.41992 10.9863 8.37891 10.5996 8.10937C10.377 7.95117 10.1191 7.875 9.86133 7.875C9.52734 7.875 9.19336 8.00391 8.94727 8.25586L8.19141 9.01172C7.74609 9.45703 7.6875 10.1543 8.04492 10.6699C8.31445 11.0566 8.35547 11.5547 8.15039 11.9766C8.00977 12.2637 7.88672 12.5625 7.78125 12.8672C7.62891 13.3125 7.24805 13.6348 6.78516 13.7168C6.47461 13.7695 6.21094 13.9336 6.01758 14.1621C5.83008 14.3906 5.71289 14.6777 5.71289 14.9941V16.0605C5.71289 16.6875 6.16406 17.2266 6.7793 17.3379C7.00781 17.3789 7.21875 17.4785 7.39453 17.625C7.56445 17.7715 7.69922 17.9648 7.77539 18.1875C7.88086 18.4922 8.00391 18.791 8.14453 19.0781C8.34961 19.5 8.30859 19.998 8.03906 20.3848C7.88086 20.6074 7.80469 20.8711 7.80469 21.1289C7.80469 21.4629 7.93359 21.791 8.18555 22.043L8.94141 22.7988C9.38672 23.2441 10.084 23.3027 10.5996 22.9453C10.9863 22.6758 11.4844 22.6348 11.9062 22.8398C12.1934 22.9805 12.4922 23.1035 12.7969 23.209C13.2422 23.3613 13.5645 23.7422 13.6465 24.2051C13.6992 24.5156 13.8633 24.7793 14.0918 24.9727C14.3203 25.1602 14.6074 25.2773 14.9238 25.2773H15.9902C16.6172 25.2773 17.1562 24.8262 17.2676 24.2109C17.3086 23.9824 17.4082 23.7715 17.5547 23.5957C17.7012 23.4258 17.8945 23.291 18.1172 23.2148C18.4219 23.1094 18.7207 22.9863 19.0078 22.8457C19.4297 22.6406 19.9336 22.6816 20.3145 22.9512C20.8301 23.3086 21.5273 23.25 21.9727 22.8047L22.7285 22.0488C23.1738 21.6035 23.2324 20.9062 22.875 20.3906C22.7227 20.168 22.6406 19.9102 22.6406 19.6465C22.6406 19.4531 22.6816 19.2598 22.7695 19.0781C22.9102 18.791 23.0332 18.4922 23.1387 18.1875C23.291 17.7422 23.6719 17.4199 24.1348 17.3379C24.4453 17.2852 24.709 17.1211 24.9023 16.8926C25.0898 16.6641 25.207 16.377 25.207 16.0605V14.9941C25.2129 14.3672 24.7617 13.8281 24.1465 13.7168ZM15.4687 20.4023C14.1211 20.4023 12.9023 19.8574 12.0234 18.9727C11.1387 18.0937 10.5938 16.875 10.5938 15.5273C10.5938 14.1797 11.1387 12.9609 12.0234 12.082C12.9082 11.1973 14.127 10.6523 15.4687 10.6523C18.1582 10.6523 20.3438 12.832 20.3438 15.5273C20.3438 18.2227 18.1582 20.4023 15.4687 20.4023Z" fill="#CF9F0C"/>
<path d="M23.6777 13.1895C23.4492 13.1484 23.2383 13.0488 23.0625 12.9023C22.8926 12.7559 22.7578 12.5625 22.6816 12.3398C22.5762 12.0352 22.4531 11.7363 22.3125 11.4492C22.1074 11.0273 22.1484 10.5234 22.418 10.1426C22.7754 9.62695 22.7168 8.92969 22.2715 8.48438L21.5098 7.73438C21.0645 7.28906 20.3672 7.23047 19.8516 7.58789C19.6289 7.74023 19.3711 7.82227 19.1074 7.82227C18.9141 7.82227 18.7207 7.78125 18.5391 7.69336C18.252 7.55273 17.9531 7.42969 17.6484 7.32422C17.2031 7.17188 16.8809 6.79102 16.7988 6.32813C16.7461 6.01758 16.582 5.75391 16.3535 5.56055C16.125 5.36719 15.8379 5.25586 15.5215 5.25586H14.4551C13.8281 5.25586 13.2891 5.70703 13.1777 6.32227C13.1367 6.55078 13.0371 6.76172 12.8906 6.9375C12.7441 7.10742 12.5508 7.24219 12.3281 7.31836C12.0234 7.42383 11.7246 7.54687 11.4375 7.6875C11.0156 7.89258 10.5176 7.85156 10.1309 7.58203C9.9082 7.42383 9.65039 7.34766 9.39258 7.34766C9.05859 7.34766 8.72461 7.47656 8.47852 7.72852L7.72266 8.48438C7.27734 8.92969 7.21875 9.62695 7.57617 10.1426C7.8457 10.5293 7.88672 11.0273 7.68164 11.4492C7.54102 11.7363 7.41797 12.0352 7.3125 12.3398C7.16016 12.7852 6.7793 13.1074 6.31641 13.1895C6.00586 13.2422 5.74219 13.4062 5.54883 13.6348C5.36133 13.8633 5.24414 14.1504 5.24414 14.4668V15.5332C5.24414 16.1602 5.69531 16.6992 6.31055 16.8105C6.53906 16.8516 6.75 16.9512 6.92578 17.0977C7.10156 17.2441 7.23047 17.4375 7.30664 17.6602C7.41211 17.9648 7.53516 18.2637 7.67578 18.5508C7.88086 18.9727 7.83984 19.4707 7.57031 19.8574C7.41211 20.0801 7.33594 20.3438 7.33594 20.6016C7.33594 20.9355 7.46484 21.2637 7.7168 21.5156L8.47266 22.2715C8.91797 22.7168 9.61523 22.7754 10.1309 22.418C10.5176 22.1484 11.0156 22.1074 11.4375 22.3125C11.7246 22.4531 12.0234 22.5762 12.3281 22.6816C12.7734 22.834 13.0957 23.2148 13.1777 23.6777C13.2305 23.9883 13.3945 24.252 13.623 24.4453C13.8516 24.6328 14.1387 24.75 14.4551 24.75H15.5215C16.1484 24.75 16.6875 24.2988 16.7988 23.6836C16.8398 23.4551 16.9395 23.2441 17.0859 23.0684C17.2324 22.8984 17.4258 22.7637 17.6484 22.6875C17.9531 22.582 18.252 22.459 18.5391 22.3184C18.9609 22.1133 19.4648 22.1543 19.8457 22.4238C20.3613 22.7812 21.0586 22.7227 21.5039 22.2773L22.2598 21.5215C22.7051 21.0762 22.7637 20.3789 22.4062 19.8633C22.2539 19.6406 22.1719 19.3828 22.1719 19.1191C22.1719 18.9258 22.2129 18.7324 22.3008 18.5508C22.4414 18.2637 22.5645 17.9648 22.6699 17.6602C22.8223 17.2148 23.2031 16.8926 23.666 16.8105C23.9766 16.7578 24.2402 16.5937 24.4336 16.3652C24.6211 16.1367 24.7383 15.8496 24.7383 15.5332V14.4668C24.7441 13.8398 24.293 13.3008 23.6777 13.1895ZM15 19.875C13.6523 19.875 12.4336 19.3301 11.5547 18.4453C10.6699 17.5664 10.125 16.3477 10.125 15C10.125 13.6523 10.6699 12.4336 11.5547 11.5547C12.4395 10.6699 13.6582 10.125 15 10.125C17.6895 10.125 19.875 12.3047 19.875 15C19.875 17.6953 17.6895 19.875 15 19.875Z" fill="url(#paint5_linear_640_13837)"/>
<path d="M23.6777 13.1895C23.4492 13.1484 23.2383 13.0488 23.0625 12.9023C22.8926 12.7559 22.7578 12.5625 22.6816 12.3398C22.5762 12.0352 22.4531 11.7363 22.3125 11.4492C22.1074 11.0273 22.1484 10.5234 22.418 10.1426C22.7754 9.62695 22.7168 8.92969 22.2715 8.48438L21.5098 7.73438C21.0645 7.28906 20.3672 7.23047 19.8516 7.58789C19.6289 7.74023 19.3711 7.82227 19.1074 7.82227C18.9141 7.82227 18.7207 7.78125 18.5391 7.69336C18.252 7.55273 17.9531 7.42969 17.6484 7.32422C17.2031 7.17188 16.8809 6.79102 16.7988 6.32813C16.7461 6.01758 16.582 5.75391 16.3535 5.56055C16.125 5.36719 15.8379 5.25586 15.5215 5.25586H14.4551C13.8281 5.25586 13.2891 5.70703 13.1777 6.32227C13.1367 6.55078 13.0371 6.76172 12.8906 6.9375C12.7441 7.10742 12.5508 7.24219 12.3281 7.31836C12.0234 7.42383 11.7246 7.54687 11.4375 7.6875C11.0156 7.89258 10.5176 7.85156 10.1309 7.58203C9.9082 7.42383 9.65039 7.34766 9.39258 7.34766C9.05859 7.34766 8.72461 7.47656 8.47852 7.72852L7.72266 8.48438C7.27734 8.92969 7.21875 9.62695 7.57617 10.1426C7.8457 10.5293 7.88672 11.0273 7.68164 11.4492C7.54102 11.7363 7.41797 12.0352 7.3125 12.3398C7.16016 12.7852 6.7793 13.1074 6.31641 13.1895C6.00586 13.2422 5.74219 13.4062 5.54883 13.6348C5.36133 13.8633 5.24414 14.1504 5.24414 14.4668V15.5332C5.24414 16.1602 5.69531 16.6992 6.31055 16.8105C6.53906 16.8516 6.75 16.9512 6.92578 17.0977C7.10156 17.2441 7.23047 17.4375 7.30664 17.6602C7.41211 17.9648 7.53516 18.2637 7.67578 18.5508C7.88086 18.9727 7.83984 19.4707 7.57031 19.8574C7.41211 20.0801 7.33594 20.3438 7.33594 20.6016C7.33594 20.9355 7.46484 21.2637 7.7168 21.5156L8.47266 22.2715C8.91797 22.7168 9.61523 22.7754 10.1309 22.418C10.5176 22.1484 11.0156 22.1074 11.4375 22.3125C11.7246 22.4531 12.0234 22.5762 12.3281 22.6816C12.7734 22.834 13.0957 23.2148 13.1777 23.6777C13.2305 23.9883 13.3945 24.252 13.623 24.4453C13.8516 24.6328 14.1387 24.75 14.4551 24.75H15.5215C16.1484 24.75 16.6875 24.2988 16.7988 23.6836C16.8398 23.4551 16.9395 23.2441 17.0859 23.0684C17.2324 22.8984 17.4258 22.7637 17.6484 22.6875C17.9531 22.582 18.252 22.459 18.5391 22.3184C18.9609 22.1133 19.4648 22.1543 19.8457 22.4238C20.3613 22.7812 21.0586 22.7227 21.5039 22.2773L22.2598 21.5215C22.7051 21.0762 22.7637 20.3789 22.4062 19.8633C22.2539 19.6406 22.1719 19.3828 22.1719 19.1191C22.1719 18.9258 22.2129 18.7324 22.3008 18.5508C22.4414 18.2637 22.5645 17.9648 22.6699 17.6602C22.8223 17.2148 23.2031 16.8926 23.666 16.8105C23.9766 16.7578 24.2402 16.5937 24.4336 16.3652C24.6211 16.1367 24.7383 15.8496 24.7383 15.5332V14.4668C24.7441 13.8398 24.293 13.3008 23.6777 13.1895ZM15 19.875C13.6523 19.875 12.4336 19.3301 11.5547 18.4453C10.6699 17.5664 10.125 16.3477 10.125 15C10.125 13.6523 10.6699 12.4336 11.5547 11.5547C12.4395 10.6699 13.6582 10.125 15 10.125C17.6895 10.125 19.875 12.3047 19.875 15C19.875 17.6953 17.6895 19.875 15 19.875Z" fill="url(#paint6_radial_640_13837)"/>
<path d="M23.6777 13.1895C23.4492 13.1484 23.2383 13.0488 23.0625 12.9023C22.8926 12.7559 22.7578 12.5625 22.6816 12.3398C22.5762 12.0352 22.4531 11.7363 22.3125 11.4492C22.1074 11.0273 22.1484 10.5234 22.418 10.1426C22.7754 9.62695 22.7168 8.92969 22.2715 8.48438L21.5098 7.73438C21.0645 7.28906 20.3672 7.23047 19.8516 7.58789C19.6289 7.74023 19.3711 7.82227 19.1074 7.82227C18.9141 7.82227 18.7207 7.78125 18.5391 7.69336C18.252 7.55273 17.9531 7.42969 17.6484 7.32422C17.2031 7.17188 16.8809 6.79102 16.7988 6.32813C16.7461 6.01758 16.582 5.75391 16.3535 5.56055C16.125 5.36719 15.8379 5.25586 15.5215 5.25586H14.4551C13.8281 5.25586 13.2891 5.70703 13.1777 6.32227C13.1367 6.55078 13.0371 6.76172 12.8906 6.9375C12.7441 7.10742 12.5508 7.24219 12.3281 7.31836C12.0234 7.42383 11.7246 7.54687 11.4375 7.6875C11.0156 7.89258 10.5176 7.85156 10.1309 7.58203C9.9082 7.42383 9.65039 7.34766 9.39258 7.34766C9.05859 7.34766 8.72461 7.47656 8.47852 7.72852L7.72266 8.48438C7.27734 8.92969 7.21875 9.62695 7.57617 10.1426C7.8457 10.5293 7.88672 11.0273 7.68164 11.4492C7.54102 11.7363 7.41797 12.0352 7.3125 12.3398C7.16016 12.7852 6.7793 13.1074 6.31641 13.1895C6.00586 13.2422 5.74219 13.4062 5.54883 13.6348C5.36133 13.8633 5.24414 14.1504 5.24414 14.4668V15.5332C5.24414 16.1602 5.69531 16.6992 6.31055 16.8105C6.53906 16.8516 6.75 16.9512 6.92578 17.0977C7.10156 17.2441 7.23047 17.4375 7.30664 17.6602C7.41211 17.9648 7.53516 18.2637 7.67578 18.5508C7.88086 18.9727 7.83984 19.4707 7.57031 19.8574C7.41211 20.0801 7.33594 20.3438 7.33594 20.6016C7.33594 20.9355 7.46484 21.2637 7.7168 21.5156L8.47266 22.2715C8.91797 22.7168 9.61523 22.7754 10.1309 22.418C10.5176 22.1484 11.0156 22.1074 11.4375 22.3125C11.7246 22.4531 12.0234 22.5762 12.3281 22.6816C12.7734 22.834 13.0957 23.2148 13.1777 23.6777C13.2305 23.9883 13.3945 24.252 13.623 24.4453C13.8516 24.6328 14.1387 24.75 14.4551 24.75H15.5215C16.1484 24.75 16.6875 24.2988 16.7988 23.6836C16.8398 23.4551 16.9395 23.2441 17.0859 23.0684C17.2324 22.8984 17.4258 22.7637 17.6484 22.6875C17.9531 22.582 18.252 22.459 18.5391 22.3184C18.9609 22.1133 19.4648 22.1543 19.8457 22.4238C20.3613 22.7812 21.0586 22.7227 21.5039 22.2773L22.2598 21.5215C22.7051 21.0762 22.7637 20.3789 22.4062 19.8633C22.2539 19.6406 22.1719 19.3828 22.1719 19.1191C22.1719 18.9258 22.2129 18.7324 22.3008 18.5508C22.4414 18.2637 22.5645 17.9648 22.6699 17.6602C22.8223 17.2148 23.2031 16.8926 23.666 16.8105C23.9766 16.7578 24.2402 16.5937 24.4336 16.3652C24.6211 16.1367 24.7383 15.8496 24.7383 15.5332V14.4668C24.7441 13.8398 24.293 13.3008 23.6777 13.1895ZM15 19.875C13.6523 19.875 12.4336 19.3301 11.5547 18.4453C10.6699 17.5664 10.125 16.3477 10.125 15C10.125 13.6523 10.6699 12.4336 11.5547 11.5547C12.4395 10.6699 13.6582 10.125 15 10.125C17.6895 10.125 19.875 12.3047 19.875 15C19.875 17.6953 17.6895 19.875 15 19.875Z" fill="url(#paint7_radial_640_13837)"/>
</g>
<defs>
<linearGradient id="paint0_linear_640_13837" x1="1.82988" y1="1.82988" x2="28.1459" y2="28.1459" gradientUnits="userSpaceOnUse">
<stop stop-color="#A09471"/>
<stop offset="0.3104" stop-color="#928766"/>
<stop offset="0.8987" stop-color="#726848"/>
<stop offset="1" stop-color="#716646"/>
</linearGradient>
<radialGradient id="paint1_radial_640_13837" cx="0" cy="0" r="1" gradientUnits="userSpaceOnUse" gradientTransform="translate(13.0228 14.8654) rotate(90) scale(21.2137 17.2892)">
<stop offset="0.7889" stop-color="#CF9F0C" stop-opacity="0"/>
<stop offset="0.9077" stop-color="#615635" stop-opacity="0.56"/>
<stop offset="1" stop-color="#CF9F0C"/>
</radialGradient>
<radialGradient id="paint2_radial_640_13837" cx="0" cy="0" r="1" gradientUnits="userSpaceOnUse" gradientTransform="translate(13.8182 13.2899) rotate(180) scale(21.2137 17.2892)">
<stop offset="0.7889" stop-color="#534D39" stop-opacity="0"/>
<stop offset="0.9077" stop-color="#5F5535" stop-opacity="0.56"/>
<stop offset="1" stop-color="#514624"/>
</radialGradient>
<radialGradient id="paint3_radial_640_13837" cx="0" cy="0" r="1" gradientUnits="userSpaceOnUse" gradientTransform="translate(15.2842 16.9987) scale(21.7291 17.7092)">
<stop offset="0.6871" stop-color="#CF9F0C" stop-opacity="0"/>
<stop offset="0.7564" stop-color="#AFA484" stop-opacity="0.25"/>
<stop offset="0.8272" stop-color="#BBB190" stop-opacity="0.5"/>
<stop offset="0.8984" stop-color="#C6BB98" stop-opacity="0.75"/>
<stop offset="0.9653" stop-color="#CF9F0C"/>
</radialGradient>
<radialGradient id="paint4_radial_640_13837" cx="0" cy="0" r="1" gradientUnits="userSpaceOnUse" gradientTransform="translate(16.9709 15.2842) rotate(90) scale(21.7291 17.7092)">
<stop offset="0.6871" stop-color="#CF9F0C" stop-opacity="0"/>
<stop offset="0.7564" stop-color="#8E8463" stop-opacity="0.25"/>
<stop offset="0.8272" stop-color="#B3A989" stop-opacity="0.5"/>
<stop offset="0.8984" stop-color="#D0C39C" stop-opacity="0.76"/>
<stop offset="0.9653" stop-color="#EEE3BF"/>
</radialGradient>
<linearGradient id="paint5_linear_640_13837" x1="8.04504" y1="8.04545" x2="21.6005" y2="21.6009" gradientUnits="userSpaceOnUse">
<stop stop-color="#FFFAEB"/>
<stop offset="1" stop-color="#FFF1C4"/>
</linearGradient>
<radialGradient id="paint6_radial_640_13837" cx="0" cy="0" r="1" gradientUnits="userSpaceOnUse" gradientTransform="translate(14.2884 14.422) rotate(45) scale(11.0998 10.1579)">
<stop offset="0.8102" stop-color="#CF9F0C" stop-opacity="0"/>
<stop offset="1" stop-color="#FFEAA8"/>
</radialGradient>
<radialGradient id="paint7_radial_640_13837" cx="0" cy="0" r="1" gradientUnits="userSpaceOnUse" gradientTransform="translate(15.6278 15.5956) rotate(45) scale(10.8877 10.1485)">
<stop offset="0.8765" stop-color="white" stop-opacity="0"/>
<stop offset="1" stop-color="white"/>
</radialGradient>
<clipPath id="clip0_640_13837">
<rect width="30" height="30" fill="white"/>
</clipPath>
</defs>
</svg>
