<svg width="26" height="17" viewBox="0 0 26 17" fill="none" xmlns="http://www.w3.org/2000/svg">
<path fill-rule="evenodd" clip-rule="evenodd" d="M3.98385 16.1697H1.51097C0.677788 16.1697 0 15.4918 0 14.6584V8.08486C0 7.25167 0.677788 6.57389 1.51097 6.57389H3.98385C4.81703 6.57389 5.49482 7.25167 5.49482 8.08486V10.831C5.96237 10.5477 6.64899 10.1342 7.07115 9.90813L6.406 7.72105C6.34674 7.52575 6.4933 7.3277 6.69759 7.3277L10.4488 7.32739V5.68723C10.4488 4.73172 10.9561 3.89244 11.7154 3.42428V2.34125H7.98431C7.81612 2.34125 7.67962 2.20475 7.67962 2.03656V0.304692C7.67962 0.136502 7.81612 0 7.98431 0H18.2268C18.395 0 18.5315 0.136502 18.5315 0.304692V2.03656C18.5318 2.20506 18.395 2.34125 18.2268 2.34125H14.4959V3.42428C15.2552 3.89244 15.7625 4.73172 15.7625 5.68723V7.32754L19.5134 7.328C19.7275 7.328 19.8751 7.54433 19.7969 7.7436L18.945 9.91987L20.5053 10.8388V8.0847C20.5053 7.25152 21.1833 6.57373 22.0165 6.57373H24.489C25.3222 6.57373 26 7.25152 26 8.0847V14.6584C25.9997 15.4916 25.3221 16.1696 24.489 16.1696H22.0161C21.183 16.1696 20.505 15.4916 20.505 14.6583C20.505 14.5727 20.5005 14.481 20.498 14.3903H16.5452C15.9575 14.7112 13.2793 16.1993 13.1057 16.1993C12.9319 16.1993 10.2549 14.7115 9.66621 14.3903H5.50183C5.49924 14.4811 5.49482 14.5728 5.49482 14.6584C5.49452 15.4916 4.81688 16.1697 3.98385 16.1697ZM6.32038 11.067H9.57968L9.61289 10.3554H7.51554C7.42124 10.3821 6.86685 10.7335 6.32038 11.067ZM5.19028 11.6766L3.81795 11.6764C3.69211 11.6764 3.64214 11.8778 3.63346 11.9182L3.2308 13.7808H9.45292L9.55134 11.6764L5.19028 11.6766ZM7.6589 9.74573L9.64168 9.74589L9.72623 7.93723H7.10893L7.6589 9.74573ZM11.0583 7.3277H15.153V5.68739C15.153 4.26706 13.7038 3.14214 12.136 3.88467C11.4948 4.2308 11.0583 4.9092 11.0583 5.68739V7.3277ZM16.4855 7.93754L16.5699 9.74284C17.0367 9.73614 17.8758 9.72303 18.3598 9.74451L19.0672 7.93754H16.4855ZM16.5986 10.3556L16.6319 11.0673H19.6802C19.1328 10.7332 18.5774 10.3812 18.4843 10.3556H16.5986ZM16.6604 11.6767L16.7588 13.7812H22.7698L22.3672 11.9188C22.3583 11.8784 22.3085 11.6767 22.1824 11.6767H16.6604ZM10.057 13.9083L13.1059 15.5491L16.1548 13.9083L15.8757 7.93739H10.3359L10.057 13.9083ZM4.88559 11.067V8.08501C4.88559 7.58805 4.48096 7.18342 3.984 7.18342H1.51112C1.01417 7.18342 0.609537 7.58805 0.609537 8.08501V14.6587C0.609537 15.156 1.01417 15.5603 1.51112 15.5603H3.984C4.48111 15.5603 4.88559 15.156 4.88559 14.6587C4.88559 14.5731 4.88102 14.4814 4.87858 14.3906H2.85314C2.65981 14.3906 2.51432 14.2104 2.5553 14.0213C3.24878 10.8161 2.91469 11.067 4.88559 11.067ZM23.1473 14.3905H21.1219C21.1193 14.4811 21.1149 14.573 21.1149 14.6584C21.1149 15.1557 21.5192 15.56 22.0165 15.56H24.4895C24.9864 15.56 25.3909 15.1557 25.3909 14.6584V8.0847C25.3909 7.58775 24.9866 7.18312 24.4895 7.18312H22.0166C21.5193 7.18312 21.115 7.58775 21.115 8.0847V11.067C23.0832 11.067 22.7524 10.8147 23.445 14.0212C23.4858 14.2102 23.3408 14.3905 23.1473 14.3905ZM14.1915 5.78885H12.0204C11.6193 5.78885 11.6193 5.17946 12.0204 5.17946H14.1915C14.5926 5.17946 14.5926 5.78885 14.1915 5.78885ZM13.8868 2.34141H12.3251V3.14793C12.8321 2.99162 13.38 2.99162 13.8868 3.14793V2.34141ZM8.2893 1.73202H17.9222V0.609537H8.2893V1.73202ZM14.6889 13.9985H11.5227C11.1217 13.9985 11.1217 13.3891 11.5227 13.3891H14.6889C15.0899 13.3891 15.09 13.9985 14.6889 13.9985ZM14.6889 12.4305H11.5227C11.1217 12.4305 11.1217 11.8211 11.5227 11.8211H14.6889C15.0899 11.8211 15.09 12.4305 14.6889 12.4305ZM14.6889 10.8624H11.5227C11.1217 10.8624 11.1217 10.253 11.5227 10.253H14.6889C15.0899 10.253 15.09 10.8624 14.6889 10.8624ZM14.6889 9.29433H11.5227C11.1217 9.29433 11.1217 8.68495 11.5227 8.68495H14.6889C15.0899 8.68495 15.09 9.29433 14.6889 9.29433Z" fill="#1A1C20"/>
</svg>
